%TF.GenerationSoftware,KiCad,Pcbnew,8.0.4*%
%TF.CreationDate,2024-09-09T12:33:28-05:00*%
%TF.ProjectId,Sistema de riego,53697374-656d-4612-9064-652072696567,rev?*%
%TF.SameCoordinates,Original*%
%TF.FileFunction,Soldermask,Bot*%
%TF.FilePolarity,Negative*%
%FSLAX46Y46*%
G04 Gerber Fmt 4.6, Leading zero omitted, Abs format (unit mm)*
G04 Created by KiCad (PCBNEW 8.0.4) date 2024-09-09 12:33:28*
%MOMM*%
%LPD*%
G01*
G04 APERTURE LIST*
G04 Aperture macros list*
%AMRoundRect*
0 Rectangle with rounded corners*
0 $1 Rounding radius*
0 $2 $3 $4 $5 $6 $7 $8 $9 X,Y pos of 4 corners*
0 Add a 4 corners polygon primitive as box body*
4,1,4,$2,$3,$4,$5,$6,$7,$8,$9,$2,$3,0*
0 Add four circle primitives for the rounded corners*
1,1,$1+$1,$2,$3*
1,1,$1+$1,$4,$5*
1,1,$1+$1,$6,$7*
1,1,$1+$1,$8,$9*
0 Add four rect primitives between the rounded corners*
20,1,$1+$1,$2,$3,$4,$5,0*
20,1,$1+$1,$4,$5,$6,$7,0*
20,1,$1+$1,$6,$7,$8,$9,0*
20,1,$1+$1,$8,$9,$2,$3,0*%
G04 Aperture macros list end*
%ADD10R,2.000000X2.000000*%
%ADD11C,2.000000*%
%ADD12C,3.200000*%
%ADD13R,3.500000X3.500000*%
%ADD14C,3.500000*%
%ADD15R,1.300000X1.300000*%
%ADD16C,1.300000*%
%ADD17R,3.000000X3.000000*%
%ADD18C,3.000000*%
%ADD19R,1.700000X1.700000*%
%ADD20O,1.700000X1.700000*%
%ADD21RoundRect,0.750000X-0.750000X-1.000000X0.750000X-1.000000X0.750000X1.000000X-0.750000X1.000000X0*%
%ADD22RoundRect,0.875000X-0.875000X-0.875000X0.875000X-0.875000X0.875000X0.875000X-0.875000X0.875000X0*%
%ADD23C,1.600000*%
%ADD24O,1.600000X1.600000*%
%ADD25C,1.524000*%
%ADD26C,2.700000*%
%ADD27RoundRect,0.102000X-1.000000X-1.000000X1.000000X-1.000000X1.000000X1.000000X-1.000000X1.000000X0*%
%ADD28C,2.204000*%
%ADD29RoundRect,0.102000X-0.754000X-0.754000X0.754000X-0.754000X0.754000X0.754000X-0.754000X0.754000X0*%
%ADD30C,1.712000*%
%ADD31R,2.400000X2.400000*%
%ADD32O,2.400000X2.400000*%
G04 APERTURE END LIST*
D10*
%TO.C,BZ1*%
X38200000Y-99000000D03*
D11*
X45800000Y-99000000D03*
%TD*%
%TO.C,SW4*%
X59500000Y-142250000D03*
X59500000Y-148750000D03*
X55000000Y-142250000D03*
X55000000Y-148750000D03*
%TD*%
D12*
%TO.C,BT2*%
X44145000Y-176000000D03*
X99755000Y-176000000D03*
D13*
X35500000Y-176000000D03*
D14*
X107500000Y-176000000D03*
%TD*%
D15*
%TO.C,Q1*%
X53500000Y-100500000D03*
D16*
X54770000Y-101770000D03*
X53500000Y-103040000D03*
%TD*%
D17*
%TO.C,J4*%
X85500000Y-90460000D03*
D18*
X85500000Y-95540000D03*
%TD*%
D19*
%TO.C,J1*%
X125000000Y-175500000D03*
D20*
X122460000Y-175500000D03*
X119920000Y-175500000D03*
X117380000Y-175500000D03*
%TD*%
D13*
%TO.C,J2*%
X44500000Y-125042500D03*
D21*
X38500000Y-125042500D03*
D22*
X41500000Y-129742500D03*
%TD*%
D23*
%TO.C,R1*%
X126000000Y-96810000D03*
D24*
X126000000Y-89190000D03*
%TD*%
D25*
%TO.C,U4*%
X33650000Y-159430000D03*
X36190000Y-159430000D03*
X38730000Y-159430000D03*
X41270000Y-159430000D03*
X43810000Y-159430000D03*
X46350000Y-159430000D03*
%TD*%
D26*
%TO.C,REF\u002A\u002A*%
X127000000Y-121000000D03*
%TD*%
D15*
%TO.C,Q2*%
X118230000Y-92230000D03*
D16*
X119500000Y-93500000D03*
X118230000Y-94770000D03*
%TD*%
D18*
%TO.C,U2*%
X96020000Y-105420000D03*
X96020000Y-152370000D03*
X120530000Y-105420000D03*
X120530000Y-152370000D03*
D27*
X95600000Y-113380000D03*
D28*
X95600000Y-115920000D03*
X95600000Y-118460000D03*
X95600000Y-121000000D03*
X95600000Y-123540000D03*
X95600000Y-126080000D03*
X95600000Y-128620000D03*
X95600000Y-131160000D03*
X95600000Y-133700000D03*
X95600000Y-136240000D03*
X95600000Y-138780000D03*
X95600000Y-141320000D03*
X95600000Y-143860000D03*
X95600000Y-146400000D03*
X95600000Y-148940000D03*
X121000000Y-148940000D03*
X121000000Y-146400000D03*
X121000000Y-143860000D03*
X121000000Y-141320000D03*
X121000000Y-138780000D03*
X121000000Y-136240000D03*
X121000000Y-133700000D03*
X121000000Y-131160000D03*
X121000000Y-128620000D03*
X121000000Y-126080000D03*
X121000000Y-123540000D03*
X121000000Y-121000000D03*
X121000000Y-118460000D03*
X121000000Y-115920000D03*
X121000000Y-113380000D03*
%TD*%
D26*
%TO.C,2.7mm*%
X33750000Y-90750000D03*
%TD*%
D29*
%TO.C,U1*%
X66690000Y-108500000D03*
D30*
X69230000Y-108500000D03*
X71770000Y-108500000D03*
X74310000Y-108500000D03*
%TD*%
D19*
%TO.C,J3*%
X123040000Y-182000000D03*
D20*
X120500000Y-182000000D03*
X117960000Y-182000000D03*
%TD*%
D23*
%TO.C,C1*%
X94500000Y-95000000D03*
X94500000Y-90000000D03*
%TD*%
D11*
%TO.C,SW1*%
X89750000Y-142250000D03*
X89750000Y-148750000D03*
X85250000Y-142250000D03*
X85250000Y-148750000D03*
%TD*%
D31*
%TO.C,D1*%
X36840000Y-111000000D03*
D32*
X47000000Y-111000000D03*
%TD*%
D11*
%TO.C,SW3*%
X69250000Y-142250000D03*
X69250000Y-148750000D03*
X64750000Y-142250000D03*
X64750000Y-148750000D03*
%TD*%
D23*
%TO.C,R2*%
X63310000Y-95500000D03*
D24*
X55690000Y-95500000D03*
%TD*%
D11*
%TO.C,SW2*%
X79500000Y-142250000D03*
X79500000Y-148750000D03*
X75000000Y-142250000D03*
X75000000Y-148750000D03*
%TD*%
D26*
%TO.C,REF\u002A\u002A*%
X58500000Y-158000000D03*
%TD*%
M02*
