M48
; DRILL file {KiCad 8.0.4} date 2024-09-09T12:32:31-0500
; FORMAT={-:-/ absolute / inch / decimal}
; #@! TF.CreationDate,2024-09-09T12:32:31-05:00
; #@! TF.GenerationSoftware,Kicad,Pcbnew,8.0.4
; #@! TF.FileFunction,Plated,1,2,PTH
FMAT,2
INCH
; #@! TA.AperFunction,Plated,PTH,ViaDrill
T1C0.0256
; #@! TA.AperFunction,Plated,PTH,ComponentDrill
T2C0.0295
; #@! TA.AperFunction,Plated,PTH,ComponentDrill
T3C0.0300
; #@! TA.AperFunction,Plated,PTH,ComponentDrill
T4C0.0315
; #@! TA.AperFunction,Plated,PTH,ComponentDrill
T5C0.0394
; #@! TA.AperFunction,Plated,PTH,ComponentDrill
T6C0.0402
; #@! TA.AperFunction,Plated,PTH,ComponentDrill
T7C0.0433
; #@! TA.AperFunction,Plated,PTH,ComponentDrill
T8C0.0472
; #@! TA.AperFunction,Plated,PTH,ComponentDrill
T9C0.0598
; #@! TA.AperFunction,Plated,PTH,ComponentDrill
T10C0.0787
%
G90
G05
T1
X4.7244Y-6.4567
T2
X2.1063Y-3.9567
X2.1063Y-4.0567
X2.1563Y-4.0067
X4.6547Y-3.6311
X4.6547Y-3.7311
X4.7047Y-3.6811
T3
X1.3248Y-6.2768
X1.4248Y-6.2768
X1.5248Y-6.2768
X1.6248Y-6.2768
X1.7248Y-6.2768
X1.8248Y-6.2768
T4
X2.1925Y-3.7598
X2.4925Y-3.7598
X3.7205Y-3.5433
X3.7205Y-3.7402
X4.9606Y-3.5114
X4.9606Y-3.8114
T5
X1.5039Y-3.8976
X1.8031Y-3.8976
X2.6256Y-4.2717
X2.7256Y-4.2717
X2.8256Y-4.2717
X2.9256Y-4.2717
X4.6213Y-6.9094
X4.6441Y-7.1654
X4.7213Y-6.9094
X4.7441Y-7.1654
X4.8213Y-6.9094
X4.8441Y-7.1654
X4.9213Y-6.9094
T6
X3.7638Y-4.4638
X3.7638Y-4.5638
X3.7638Y-4.6638
X3.7638Y-4.7638
X3.7638Y-4.8638
X3.7638Y-4.9638
X3.7638Y-5.0638
X3.7638Y-5.1638
X3.7638Y-5.2638
X3.7638Y-5.3638
X3.7638Y-5.4638
X3.7638Y-5.5638
X3.7638Y-5.6638
X3.7638Y-5.7638
X3.7638Y-5.8638
X4.7638Y-4.4638
X4.7638Y-4.5638
X4.7638Y-4.6638
X4.7638Y-4.7638
X4.7638Y-4.8638
X4.7638Y-4.9638
X4.7638Y-5.0638
X4.7638Y-5.1638
X4.7638Y-5.2638
X4.7638Y-5.3638
X4.7638Y-5.4638
X4.7638Y-5.5638
X4.7638Y-5.6638
X4.7638Y-5.7638
X4.7638Y-5.8638
T7
X2.1654Y-5.6004
X2.1654Y-5.8563
X2.3425Y-5.6004
X2.3425Y-5.8563
X2.5492Y-5.6004
X2.5492Y-5.8563
X2.7264Y-5.6004
X2.7264Y-5.8563
X2.9528Y-5.6004
X2.9528Y-5.8563
X3.1299Y-5.6004
X3.1299Y-5.8563
X3.3563Y-5.6004
X3.3563Y-5.8563
X3.5335Y-5.6004
X3.5335Y-5.8563
T8
X1.4504Y-4.3701
X1.8504Y-4.3701
T9
X3.3661Y-3.5614
X3.3661Y-3.7614
T10
X1.3976Y-6.9291
X4.2323Y-6.9291
T5
G00X1.5157Y-4.8836
M15
G01X1.5157Y-4.9623
M16
G05
G00X1.5945Y-5.108
M15
G01X1.6732Y-5.108
M16
G05
G00X1.752Y-4.8836
M15
G01X1.752Y-4.9623
M16
G05
M30
