%TF.GenerationSoftware,KiCad,Pcbnew,8.0.4*%
%TF.CreationDate,2024-09-09T12:33:27-05:00*%
%TF.ProjectId,Sistema de riego,53697374-656d-4612-9064-652072696567,rev?*%
%TF.SameCoordinates,Original*%
%TF.FileFunction,Copper,L2,Bot*%
%TF.FilePolarity,Positive*%
%FSLAX46Y46*%
G04 Gerber Fmt 4.6, Leading zero omitted, Abs format (unit mm)*
G04 Created by KiCad (PCBNEW 8.0.4) date 2024-09-09 12:33:27*
%MOMM*%
%LPD*%
G01*
G04 APERTURE LIST*
G04 Aperture macros list*
%AMRoundRect*
0 Rectangle with rounded corners*
0 $1 Rounding radius*
0 $2 $3 $4 $5 $6 $7 $8 $9 X,Y pos of 4 corners*
0 Add a 4 corners polygon primitive as box body*
4,1,4,$2,$3,$4,$5,$6,$7,$8,$9,$2,$3,0*
0 Add four circle primitives for the rounded corners*
1,1,$1+$1,$2,$3*
1,1,$1+$1,$4,$5*
1,1,$1+$1,$6,$7*
1,1,$1+$1,$8,$9*
0 Add four rect primitives between the rounded corners*
20,1,$1+$1,$2,$3,$4,$5,0*
20,1,$1+$1,$4,$5,$6,$7,0*
20,1,$1+$1,$6,$7,$8,$9,0*
20,1,$1+$1,$8,$9,$2,$3,0*%
G04 Aperture macros list end*
%TA.AperFunction,ComponentPad*%
%ADD10R,2.000000X2.000000*%
%TD*%
%TA.AperFunction,ComponentPad*%
%ADD11C,2.000000*%
%TD*%
%TA.AperFunction,ComponentPad*%
%ADD12R,3.500000X3.500000*%
%TD*%
%TA.AperFunction,ComponentPad*%
%ADD13C,3.500000*%
%TD*%
%TA.AperFunction,ComponentPad*%
%ADD14R,1.300000X1.300000*%
%TD*%
%TA.AperFunction,ComponentPad*%
%ADD15C,1.300000*%
%TD*%
%TA.AperFunction,ComponentPad*%
%ADD16R,3.000000X3.000000*%
%TD*%
%TA.AperFunction,ComponentPad*%
%ADD17C,3.000000*%
%TD*%
%TA.AperFunction,ComponentPad*%
%ADD18R,1.700000X1.700000*%
%TD*%
%TA.AperFunction,ComponentPad*%
%ADD19O,1.700000X1.700000*%
%TD*%
%TA.AperFunction,ComponentPad*%
%ADD20RoundRect,0.750000X-0.750000X-1.000000X0.750000X-1.000000X0.750000X1.000000X-0.750000X1.000000X0*%
%TD*%
%TA.AperFunction,ComponentPad*%
%ADD21RoundRect,0.875000X-0.875000X-0.875000X0.875000X-0.875000X0.875000X0.875000X-0.875000X0.875000X0*%
%TD*%
%TA.AperFunction,ComponentPad*%
%ADD22C,1.600000*%
%TD*%
%TA.AperFunction,ComponentPad*%
%ADD23O,1.600000X1.600000*%
%TD*%
%TA.AperFunction,ComponentPad*%
%ADD24C,1.524000*%
%TD*%
%TA.AperFunction,ComponentPad*%
%ADD25R,1.508000X1.508000*%
%TD*%
%TA.AperFunction,ComponentPad*%
%ADD26C,1.508000*%
%TD*%
%TA.AperFunction,ComponentPad*%
%ADD27R,2.400000X2.400000*%
%TD*%
%TA.AperFunction,ComponentPad*%
%ADD28O,2.400000X2.400000*%
%TD*%
%TA.AperFunction,ViaPad*%
%ADD29C,1.100000*%
%TD*%
%TA.AperFunction,Conductor*%
%ADD30C,1.000000*%
%TD*%
%TA.AperFunction,Conductor*%
%ADD31C,0.600000*%
%TD*%
G04 APERTURE END LIST*
D10*
%TO.P,BZ1,1,+*%
%TO.N,+5V*%
X38200000Y-99000000D03*
D11*
%TO.P,BZ1,2,-*%
%TO.N,/colector2*%
X45800000Y-99000000D03*
%TD*%
%TO.P,SW4,1,1*%
%TO.N,/boton 4*%
X59500000Y-142250000D03*
%TO.P,SW4,2,2*%
%TO.N,GND*%
X59500000Y-148750000D03*
%TO.P,SW4,3,3*%
%TO.N,unconnected-(SW4-Pad3)*%
X55000000Y-142250000D03*
%TO.P,SW4,4,4*%
%TO.N,unconnected-(SW4-Pad4)*%
X55000000Y-148750000D03*
%TD*%
D12*
%TO.P,BT2,1,+*%
%TO.N,+BATT*%
X35500000Y-176000000D03*
D13*
%TO.P,BT2,2,-*%
%TO.N,GND*%
X107500000Y-176000000D03*
%TD*%
D14*
%TO.P,Q1,1,E*%
%TO.N,GND*%
X53500000Y-100500000D03*
D15*
%TO.P,Q1,2,B*%
%TO.N,Net-(Q1-B)*%
X54770000Y-101770000D03*
%TO.P,Q1,3,C*%
%TO.N,/colector2*%
X53500000Y-103040000D03*
%TD*%
D16*
%TO.P,J4,1,Pin_1*%
%TO.N,/colector1*%
X85500000Y-90460000D03*
D17*
%TO.P,J4,2,Pin_2*%
%TO.N,+5V*%
X85500000Y-95540000D03*
%TD*%
D18*
%TO.P,J1,1,Pin_1*%
%TO.N,+5V*%
X125000000Y-175500000D03*
D19*
%TO.P,J1,2,Pin_2*%
%TO.N,/onewire*%
X122460000Y-175500000D03*
%TO.P,J1,3,Pin_3*%
%TO.N,unconnected-(J1-Pin_3-Pad3)*%
X119920000Y-175500000D03*
%TO.P,J1,4,Pin_4*%
%TO.N,GND*%
X117380000Y-175500000D03*
%TD*%
D12*
%TO.P,J2,1*%
%TO.N,VDC*%
X44500000Y-125042500D03*
D20*
%TO.P,J2,2*%
%TO.N,GND*%
X38500000Y-125042500D03*
D21*
%TO.P,J2,3*%
X41500000Y-129742500D03*
%TD*%
D22*
%TO.P,R1,1*%
%TO.N,/bomba*%
X126000000Y-96810000D03*
D23*
%TO.P,R1,2*%
%TO.N,Net-(Q2-B)*%
X126000000Y-89190000D03*
%TD*%
D24*
%TO.P,U4,1,VIN*%
%TO.N,VDC*%
X33650000Y-159430000D03*
%TO.P,U4,2,GND*%
%TO.N,GND*%
X36190000Y-159430000D03*
%TO.P,U4,3,GND*%
X38730000Y-159430000D03*
%TO.P,U4,4,BAT*%
%TO.N,+BATT*%
X41270000Y-159430000D03*
%TO.P,U4,5,GND*%
%TO.N,GND*%
X43810000Y-159430000D03*
%TO.P,U4,6,OUT-5V*%
%TO.N,+5V*%
X46350000Y-159430000D03*
%TD*%
D14*
%TO.P,Q2,1,E*%
%TO.N,GND*%
X118230000Y-92230000D03*
D15*
%TO.P,Q2,2,B*%
%TO.N,Net-(Q2-B)*%
X119500000Y-93500000D03*
%TO.P,Q2,3,C*%
%TO.N,/colector1*%
X118230000Y-94770000D03*
%TD*%
D10*
%TO.P,U2,1,3V3*%
%TO.N,unconnected-(U2-3V3-Pad1)*%
X95600000Y-113380000D03*
D11*
%TO.P,U2,2,GND*%
%TO.N,GND*%
X95600000Y-115920000D03*
%TO.P,U2,3,D15*%
%TO.N,/buzzer*%
X95600000Y-118460000D03*
%TO.P,U2,4,D2*%
%TO.N,/scl*%
X95600000Y-121000000D03*
%TO.P,U2,5,D4*%
%TO.N,/sda*%
X95600000Y-123540000D03*
%TO.P,U2,6,RX2*%
%TO.N,unconnected-(U2-RX2-Pad6)*%
X95600000Y-126080000D03*
%TO.P,U2,7,TX2*%
%TO.N,unconnected-(U2-TX2-Pad7)*%
X95600000Y-128620000D03*
%TO.P,U2,8,D5*%
%TO.N,/boton 4*%
X95600000Y-131160000D03*
%TO.P,U2,9,D18*%
%TO.N,/boton 3*%
X95600000Y-133700000D03*
%TO.P,U2,10,D19*%
%TO.N,/boton 2*%
X95600000Y-136240000D03*
%TO.P,U2,11,D21*%
%TO.N,/boton 1*%
X95600000Y-138780000D03*
%TO.P,U2,12,RX0*%
%TO.N,unconnected-(U2-RX0-Pad12)*%
X95600000Y-141320000D03*
%TO.P,U2,13,TX0*%
%TO.N,unconnected-(U2-TX0-Pad13)*%
X95600000Y-143860000D03*
%TO.P,U2,14,D22*%
%TO.N,unconnected-(U2-D22-Pad14)*%
X95600000Y-146400000D03*
%TO.P,U2,15,D23*%
%TO.N,unconnected-(U2-D23-Pad15)*%
X95600000Y-148940000D03*
%TO.P,U2,16,EN*%
%TO.N,unconnected-(U2-EN-Pad16)*%
X121000000Y-148940000D03*
%TO.P,U2,17,VP*%
%TO.N,unconnected-(U2-VP-Pad17)*%
X121000000Y-146400000D03*
%TO.P,U2,18,VN*%
%TO.N,unconnected-(U2-VN-Pad18)*%
X121000000Y-143860000D03*
%TO.P,U2,19,D34*%
%TO.N,unconnected-(U2-D34-Pad19)*%
X121000000Y-141320000D03*
%TO.P,U2,20,D35*%
%TO.N,unconnected-(U2-D35-Pad20)*%
X121000000Y-138780000D03*
%TO.P,U2,21,D32*%
%TO.N,unconnected-(U2-D32-Pad21)*%
X121000000Y-136240000D03*
%TO.P,U2,22,D33*%
%TO.N,/onewire*%
X121000000Y-133700000D03*
%TO.P,U2,23,D25*%
%TO.N,unconnected-(U2-D25-Pad23)*%
X121000000Y-131160000D03*
%TO.P,U2,24,D26*%
%TO.N,unconnected-(U2-D26-Pad24)*%
X121000000Y-128620000D03*
%TO.P,U2,25,D27*%
%TO.N,unconnected-(U2-D27-Pad25)*%
X121000000Y-126080000D03*
%TO.P,U2,26,D14*%
%TO.N,unconnected-(U2-D14-Pad26)*%
X121000000Y-123540000D03*
%TO.P,U2,27,D12*%
%TO.N,/adc_agua*%
X121000000Y-121000000D03*
%TO.P,U2,28,D13*%
%TO.N,/bomba*%
X121000000Y-118460000D03*
%TO.P,U2,29,GND*%
%TO.N,GND*%
X121000000Y-115920000D03*
%TO.P,U2,30,VIN*%
%TO.N,+5V*%
X121000000Y-113380000D03*
%TD*%
D25*
%TO.P,U1,1,GND*%
%TO.N,GND*%
X66690000Y-108500000D03*
D26*
%TO.P,U1,2,VCC_IN*%
%TO.N,+5V*%
X69230000Y-108500000D03*
%TO.P,U1,3,SCL*%
%TO.N,/scl*%
X71770000Y-108500000D03*
%TO.P,U1,4,SDA*%
%TO.N,/sda*%
X74310000Y-108500000D03*
%TD*%
D18*
%TO.P,J3,1,Pin_1*%
%TO.N,/adc_agua*%
X123040000Y-182000000D03*
D19*
%TO.P,J3,2,Pin_2*%
%TO.N,+5V*%
X120500000Y-182000000D03*
%TO.P,J3,3,Pin_3*%
%TO.N,GND*%
X117960000Y-182000000D03*
%TD*%
D22*
%TO.P,C1,1*%
%TO.N,+5V*%
X94500000Y-95000000D03*
%TO.P,C1,2*%
%TO.N,/colector1*%
X94500000Y-90000000D03*
%TD*%
D11*
%TO.P,SW1,1,1*%
%TO.N,/boton 1*%
X89750000Y-142250000D03*
%TO.P,SW1,2,2*%
%TO.N,GND*%
X89750000Y-148750000D03*
%TO.P,SW1,3,3*%
%TO.N,unconnected-(SW1-Pad3)*%
X85250000Y-142250000D03*
%TO.P,SW1,4,4*%
%TO.N,unconnected-(SW1-Pad4)*%
X85250000Y-148750000D03*
%TD*%
D27*
%TO.P,D1,1,K*%
%TO.N,+5V*%
X36840000Y-111000000D03*
D28*
%TO.P,D1,2,A*%
%TO.N,/colector2*%
X47000000Y-111000000D03*
%TD*%
D11*
%TO.P,SW3,1,1*%
%TO.N,/boton 3*%
X69250000Y-142250000D03*
%TO.P,SW3,2,2*%
%TO.N,GND*%
X69250000Y-148750000D03*
%TO.P,SW3,3,3*%
%TO.N,unconnected-(SW3-Pad3)*%
X64750000Y-142250000D03*
%TO.P,SW3,4,4*%
%TO.N,unconnected-(SW3-Pad4)*%
X64750000Y-148750000D03*
%TD*%
D22*
%TO.P,R2,1*%
%TO.N,/buzzer*%
X63310000Y-95500000D03*
D23*
%TO.P,R2,2*%
%TO.N,Net-(Q1-B)*%
X55690000Y-95500000D03*
%TD*%
D11*
%TO.P,SW2,1,1*%
%TO.N,/boton 2*%
X79500000Y-142250000D03*
%TO.P,SW2,2,2*%
%TO.N,GND*%
X79500000Y-148750000D03*
%TO.P,SW2,3,3*%
%TO.N,unconnected-(SW2-Pad3)*%
X75000000Y-142250000D03*
%TO.P,SW2,4,4*%
%TO.N,unconnected-(SW2-Pad4)*%
X75000000Y-148750000D03*
%TD*%
D29*
%TO.N,GND*%
X120000000Y-164000000D03*
%TD*%
D30*
%TO.N,+BATT*%
X35500000Y-168250000D02*
X35500000Y-176000000D01*
X41270000Y-162480000D02*
X35500000Y-168250000D01*
X41270000Y-159430000D02*
X41270000Y-162480000D01*
%TO.N,+5V*%
X113500000Y-166500000D02*
X113500000Y-183000000D01*
X113500000Y-183000000D02*
X115500000Y-185000000D01*
X115500000Y-185000000D02*
X119000000Y-185000000D01*
X119000000Y-185000000D02*
X120500000Y-183500000D01*
X49920000Y-163000000D02*
X110000000Y-163000000D01*
X110000000Y-163000000D02*
X113500000Y-166500000D01*
X120500000Y-183500000D02*
X120500000Y-182000000D01*
X46350000Y-159430000D02*
X49920000Y-163000000D01*
X120500000Y-180250000D02*
X120500000Y-182000000D01*
X124000000Y-179250000D02*
X121500000Y-179250000D01*
X125000000Y-178250000D02*
X124000000Y-179250000D01*
X125000000Y-175500000D02*
X125000000Y-178250000D01*
X121500000Y-179250000D02*
X120500000Y-180250000D01*
D31*
%TO.N,/onewire*%
X124000000Y-167750000D02*
X122460000Y-169290000D01*
X122460000Y-169290000D02*
X122460000Y-175500000D01*
X121000000Y-133560000D02*
X124000000Y-136560000D01*
X121000000Y-133280000D02*
X121000000Y-133560000D01*
X124000000Y-136560000D02*
X124000000Y-167750000D01*
%TO.N,/bomba*%
X125000000Y-117000000D02*
X125000000Y-97810000D01*
X123540000Y-118460000D02*
X125000000Y-117000000D01*
X121000000Y-118460000D02*
X123540000Y-118460000D01*
X125000000Y-97810000D02*
X126000000Y-96810000D01*
X121000000Y-118040000D02*
X121040000Y-118000000D01*
D30*
%TO.N,+5V*%
X116500000Y-108880000D02*
X121000000Y-113380000D01*
X102000000Y-100000000D02*
X112000000Y-100000000D01*
X97000000Y-95000000D02*
X102000000Y-100000000D01*
X94500000Y-95000000D02*
X97000000Y-95000000D01*
X112000000Y-100000000D02*
X116500000Y-104500000D01*
X116500000Y-104500000D02*
X116500000Y-108880000D01*
X90500000Y-95000000D02*
X90000000Y-95500000D01*
X85540000Y-95500000D02*
X85500000Y-95540000D01*
X94500000Y-95000000D02*
X90500000Y-95000000D01*
X90000000Y-95500000D02*
X85540000Y-95500000D01*
X38200000Y-109640000D02*
X36840000Y-111000000D01*
X38200000Y-99000000D02*
X38200000Y-109640000D01*
D31*
%TO.N,/sda*%
X95560000Y-123500000D02*
X95600000Y-123540000D01*
X74310000Y-113810000D02*
X84000000Y-123500000D01*
X84000000Y-123500000D02*
X95560000Y-123500000D01*
X74310000Y-108500000D02*
X74310000Y-113810000D01*
%TO.N,/boton 4*%
X90940000Y-126500000D02*
X95600000Y-131160000D01*
X75250000Y-126500000D02*
X90940000Y-126500000D01*
X59500000Y-142250000D02*
X75250000Y-126500000D01*
%TO.N,/boton 3*%
X80000000Y-131500000D02*
X93400000Y-131500000D01*
X93400000Y-131500000D02*
X95600000Y-133700000D01*
X69250000Y-142250000D02*
X80000000Y-131500000D01*
X95600000Y-133319222D02*
X95600000Y-133280000D01*
%TO.N,/boton 2*%
X85510000Y-136240000D02*
X95600000Y-136240000D01*
X79500000Y-142250000D02*
X85510000Y-136240000D01*
X95180000Y-136240000D02*
X95600000Y-135820000D01*
%TO.N,/boton 1*%
X93220000Y-138780000D02*
X95600000Y-138780000D01*
X89750000Y-142250000D02*
X93220000Y-138780000D01*
D30*
%TO.N,+5V*%
X50500000Y-155280000D02*
X50500000Y-120000000D01*
X46350000Y-159430000D02*
X50500000Y-155280000D01*
X46700000Y-90500000D02*
X76000000Y-90500000D01*
X38200000Y-99000000D02*
X46700000Y-90500000D01*
X39000000Y-116000000D02*
X36840000Y-113840000D01*
X36840000Y-113840000D02*
X36840000Y-111000000D01*
X57730000Y-120000000D02*
X50500000Y-120000000D01*
X46500000Y-116000000D02*
X39000000Y-116000000D01*
X50500000Y-120000000D02*
X46500000Y-116000000D01*
X81040000Y-95540000D02*
X85500000Y-95540000D01*
X76000000Y-90500000D02*
X81040000Y-95540000D01*
X69230000Y-108500000D02*
X57730000Y-120000000D01*
D31*
%TO.N,/colector2*%
X51540000Y-103040000D02*
X53500000Y-103040000D01*
X47500000Y-99000000D02*
X51540000Y-103040000D01*
X53500000Y-104500000D02*
X47000000Y-111000000D01*
X45800000Y-99000000D02*
X47500000Y-99000000D01*
X53500000Y-103040000D02*
X53500000Y-104500000D01*
%TO.N,/colector1*%
X85500000Y-90460000D02*
X85960000Y-90000000D01*
X118230000Y-94730000D02*
X118230000Y-94770000D01*
X85960000Y-90000000D02*
X94500000Y-90000000D01*
X94500000Y-90000000D02*
X113500000Y-90000000D01*
X113500000Y-90000000D02*
X118230000Y-94730000D01*
%TO.N,Net-(Q1-B)*%
X55690000Y-100850000D02*
X55690000Y-95500000D01*
X54770000Y-101770000D02*
X55690000Y-100850000D01*
%TO.N,/adc_agua*%
X127000000Y-181000000D02*
X126000000Y-182000000D01*
X121000000Y-120580000D02*
X121000000Y-121000000D01*
X121000000Y-121000000D02*
X127000000Y-127000000D01*
X127000000Y-127000000D02*
X127000000Y-181000000D01*
X126000000Y-182000000D02*
X123040000Y-182000000D01*
%TO.N,/buzzer*%
X78640000Y-101500000D02*
X95600000Y-118460000D01*
X69310000Y-101500000D02*
X78640000Y-101500000D01*
X63310000Y-95500000D02*
X69310000Y-101500000D01*
%TO.N,/scl*%
X95600000Y-121000000D02*
X89500000Y-121000000D01*
X73270000Y-107000000D02*
X71770000Y-108500000D01*
X89500000Y-121000000D02*
X75500000Y-107000000D01*
X75500000Y-107000000D02*
X73270000Y-107000000D01*
%TO.N,Net-(Q2-B)*%
X123810000Y-89190000D02*
X119500000Y-93500000D01*
X126000000Y-89190000D02*
X123810000Y-89190000D01*
%TO.N,VDC*%
X45000000Y-125042500D02*
X44500000Y-125042500D01*
X45000000Y-132000000D02*
X45000000Y-125042500D01*
X40000000Y-137000000D02*
X45000000Y-132000000D01*
X40000000Y-153080000D02*
X40000000Y-137000000D01*
X33650000Y-159430000D02*
X40000000Y-153080000D01*
%TD*%
%TA.AperFunction,Conductor*%
%TO.N,GND*%
G36*
X125624093Y-87520185D02*
G01*
X125669848Y-87572989D01*
X125679792Y-87642147D01*
X125650767Y-87705703D01*
X125597317Y-87741781D01*
X125395197Y-87811169D01*
X125395188Y-87811172D01*
X125176493Y-87929524D01*
X124980255Y-88082262D01*
X124980252Y-88082265D01*
X124918374Y-88149483D01*
X124858487Y-88185474D01*
X124827145Y-88189500D01*
X123711456Y-88189500D01*
X123518171Y-88227947D01*
X123518163Y-88227949D01*
X123467903Y-88248768D01*
X123336083Y-88303369D01*
X123172222Y-88412857D01*
X123172214Y-88412863D01*
X119466969Y-92118108D01*
X119405646Y-92151593D01*
X119390097Y-92153955D01*
X119264596Y-92164936D01*
X119264586Y-92164938D01*
X119036344Y-92226094D01*
X119036335Y-92226098D01*
X118822171Y-92325964D01*
X118822169Y-92325965D01*
X118628597Y-92461505D01*
X118461505Y-92628597D01*
X118325965Y-92822169D01*
X118325964Y-92822171D01*
X118226098Y-93036335D01*
X118226090Y-93036355D01*
X118223600Y-93045648D01*
X118187231Y-93105306D01*
X118124382Y-93135831D01*
X118055007Y-93127531D01*
X118016147Y-93101227D01*
X114281479Y-89366559D01*
X114281459Y-89366537D01*
X114137785Y-89222863D01*
X114137781Y-89222860D01*
X113973920Y-89113371D01*
X113973907Y-89113364D01*
X113842097Y-89058768D01*
X113791836Y-89037949D01*
X113791828Y-89037947D01*
X113695188Y-89018724D01*
X113598544Y-88999500D01*
X113598541Y-88999500D01*
X95672855Y-88999500D01*
X95605816Y-88979815D01*
X95581626Y-88959483D01*
X95519747Y-88892265D01*
X95519744Y-88892262D01*
X95323509Y-88739526D01*
X95323507Y-88739525D01*
X95323506Y-88739524D01*
X95104811Y-88621172D01*
X95104802Y-88621169D01*
X94869616Y-88540429D01*
X94624335Y-88499500D01*
X94375665Y-88499500D01*
X94130383Y-88540429D01*
X93895197Y-88621169D01*
X93895188Y-88621172D01*
X93676493Y-88739524D01*
X93480255Y-88892262D01*
X93480252Y-88892265D01*
X93418374Y-88959483D01*
X93358487Y-88995474D01*
X93327145Y-88999500D01*
X87822477Y-88999500D01*
X87755438Y-88979815D01*
X87709683Y-88927011D01*
X87698986Y-88886723D01*
X87698681Y-88883368D01*
X87694086Y-88832804D01*
X87643478Y-88670394D01*
X87555472Y-88524815D01*
X87555470Y-88524813D01*
X87555469Y-88524811D01*
X87435188Y-88404530D01*
X87289606Y-88316522D01*
X87127196Y-88265914D01*
X87127194Y-88265913D01*
X87127192Y-88265913D01*
X87077778Y-88261423D01*
X87056616Y-88259500D01*
X83943384Y-88259500D01*
X83924145Y-88261248D01*
X83872807Y-88265913D01*
X83710393Y-88316522D01*
X83564811Y-88404530D01*
X83444530Y-88524811D01*
X83356522Y-88670393D01*
X83305913Y-88832807D01*
X83299500Y-88903386D01*
X83299500Y-92016613D01*
X83305913Y-92087192D01*
X83305913Y-92087194D01*
X83305914Y-92087196D01*
X83315783Y-92118867D01*
X83356522Y-92249606D01*
X83444530Y-92395188D01*
X83564811Y-92515469D01*
X83564813Y-92515470D01*
X83564815Y-92515472D01*
X83710394Y-92603478D01*
X83872804Y-92654086D01*
X83943384Y-92660500D01*
X83943387Y-92660500D01*
X87056613Y-92660500D01*
X87056616Y-92660500D01*
X87127196Y-92654086D01*
X87289606Y-92603478D01*
X87435185Y-92515472D01*
X87555472Y-92395185D01*
X87643478Y-92249606D01*
X87694086Y-92087196D01*
X87700500Y-92016616D01*
X87700500Y-91124500D01*
X87720185Y-91057461D01*
X87772989Y-91011706D01*
X87824500Y-91000500D01*
X93327145Y-91000500D01*
X93394184Y-91020185D01*
X93418374Y-91040517D01*
X93480252Y-91107734D01*
X93480256Y-91107738D01*
X93676491Y-91260474D01*
X93676493Y-91260475D01*
X93868490Y-91364379D01*
X93895190Y-91378828D01*
X94130386Y-91459571D01*
X94375665Y-91500500D01*
X94624335Y-91500500D01*
X94869614Y-91459571D01*
X95104810Y-91378828D01*
X95323509Y-91260474D01*
X95519744Y-91107738D01*
X95544194Y-91081177D01*
X95581626Y-91040517D01*
X95641513Y-91004526D01*
X95672855Y-91000500D01*
X113034218Y-91000500D01*
X113101257Y-91020185D01*
X113121899Y-91036819D01*
X116844273Y-94759193D01*
X116877758Y-94820516D01*
X116880120Y-94836066D01*
X116894936Y-95005403D01*
X116894938Y-95005413D01*
X116956094Y-95233655D01*
X116956096Y-95233659D01*
X116956097Y-95233663D01*
X117010546Y-95350429D01*
X117055965Y-95447830D01*
X117055967Y-95447834D01*
X117127172Y-95549524D01*
X117191505Y-95641401D01*
X117358599Y-95808495D01*
X117455384Y-95876265D01*
X117552165Y-95944032D01*
X117552167Y-95944033D01*
X117552170Y-95944035D01*
X117766337Y-96043903D01*
X117994592Y-96105063D01*
X118182918Y-96121539D01*
X118229999Y-96125659D01*
X118230000Y-96125659D01*
X118230001Y-96125659D01*
X118269234Y-96122226D01*
X118465408Y-96105063D01*
X118693663Y-96043903D01*
X118907830Y-95944035D01*
X119101401Y-95808495D01*
X119268495Y-95641401D01*
X119404035Y-95447830D01*
X119503903Y-95233663D01*
X119565063Y-95005408D01*
X119569698Y-94952417D01*
X119595149Y-94887351D01*
X119651740Y-94846372D01*
X119682414Y-94839699D01*
X119735408Y-94835063D01*
X119963663Y-94773903D01*
X120177830Y-94674035D01*
X120371401Y-94538495D01*
X120538495Y-94371401D01*
X120674035Y-94177830D01*
X120773903Y-93963663D01*
X120835063Y-93735408D01*
X120846043Y-93609901D01*
X120871495Y-93544834D01*
X120881882Y-93533037D01*
X124188102Y-90226819D01*
X124249425Y-90193334D01*
X124275783Y-90190500D01*
X124827145Y-90190500D01*
X124894184Y-90210185D01*
X124918374Y-90230517D01*
X124980252Y-90297734D01*
X124980256Y-90297738D01*
X125176491Y-90450474D01*
X125395190Y-90568828D01*
X125630386Y-90649571D01*
X125875665Y-90690500D01*
X126124335Y-90690500D01*
X126369614Y-90649571D01*
X126604810Y-90568828D01*
X126823509Y-90450474D01*
X127019744Y-90297738D01*
X127188164Y-90114785D01*
X127324173Y-89906607D01*
X127424063Y-89678881D01*
X127485108Y-89437821D01*
X127489282Y-89387453D01*
X127505643Y-89190005D01*
X127505643Y-89189994D01*
X127485109Y-88942187D01*
X127485107Y-88942175D01*
X127424063Y-88701118D01*
X127324173Y-88473393D01*
X127188166Y-88265217D01*
X127081625Y-88149483D01*
X127019744Y-88082262D01*
X126823509Y-87929526D01*
X126823507Y-87929525D01*
X126823506Y-87929524D01*
X126604811Y-87811172D01*
X126604802Y-87811169D01*
X126402683Y-87741781D01*
X126345668Y-87701396D01*
X126319537Y-87636596D01*
X126332588Y-87567956D01*
X126380677Y-87517268D01*
X126442946Y-87500500D01*
X129375500Y-87500500D01*
X129442539Y-87520185D01*
X129488294Y-87572989D01*
X129499500Y-87624500D01*
X129499500Y-186375500D01*
X129479815Y-186442539D01*
X129427011Y-186488294D01*
X129375500Y-186499500D01*
X30624500Y-186499500D01*
X30557461Y-186479815D01*
X30511706Y-186427011D01*
X30500500Y-186375500D01*
X30500500Y-174193386D01*
X33049500Y-174193386D01*
X33049500Y-177806613D01*
X33055913Y-177877192D01*
X33055913Y-177877194D01*
X33055914Y-177877196D01*
X33106522Y-178039606D01*
X33165673Y-178137454D01*
X33194530Y-178185188D01*
X33314811Y-178305469D01*
X33314813Y-178305470D01*
X33314815Y-178305472D01*
X33460394Y-178393478D01*
X33622804Y-178444086D01*
X33693384Y-178450500D01*
X33693387Y-178450500D01*
X37306613Y-178450500D01*
X37306616Y-178450500D01*
X37377196Y-178444086D01*
X37539606Y-178393478D01*
X37685185Y-178305472D01*
X37805472Y-178185185D01*
X37893478Y-178039606D01*
X37944086Y-177877196D01*
X37950500Y-177806616D01*
X37950500Y-175878711D01*
X42294500Y-175878711D01*
X42294500Y-176121288D01*
X42326161Y-176361785D01*
X42388947Y-176596104D01*
X42481773Y-176820205D01*
X42481776Y-176820212D01*
X42603064Y-177030289D01*
X42603066Y-177030292D01*
X42603067Y-177030293D01*
X42750733Y-177222736D01*
X42750739Y-177222743D01*
X42922256Y-177394260D01*
X42922262Y-177394265D01*
X43114711Y-177541936D01*
X43324788Y-177663224D01*
X43520269Y-177744195D01*
X43540889Y-177752736D01*
X43548900Y-177756054D01*
X43783211Y-177818838D01*
X43963586Y-177842584D01*
X44023711Y-177850500D01*
X44023712Y-177850500D01*
X44266289Y-177850500D01*
X44314388Y-177844167D01*
X44506789Y-177818838D01*
X44741100Y-177756054D01*
X44965212Y-177663224D01*
X45175289Y-177541936D01*
X45367738Y-177394265D01*
X45539265Y-177222738D01*
X45686936Y-177030289D01*
X45808224Y-176820212D01*
X45901054Y-176596100D01*
X45963838Y-176361789D01*
X45995500Y-176121288D01*
X45995500Y-175878712D01*
X45995500Y-175878711D01*
X97904500Y-175878711D01*
X97904500Y-176121288D01*
X97936161Y-176361785D01*
X97998947Y-176596104D01*
X98091773Y-176820205D01*
X98091776Y-176820212D01*
X98213064Y-177030289D01*
X98213066Y-177030292D01*
X98213067Y-177030293D01*
X98360733Y-177222736D01*
X98360739Y-177222743D01*
X98532256Y-177394260D01*
X98532262Y-177394265D01*
X98724711Y-177541936D01*
X98934788Y-177663224D01*
X99130269Y-177744195D01*
X99150889Y-177752736D01*
X99158900Y-177756054D01*
X99393211Y-177818838D01*
X99573586Y-177842584D01*
X99633711Y-177850500D01*
X99633712Y-177850500D01*
X99876289Y-177850500D01*
X99924388Y-177844167D01*
X100116789Y-177818838D01*
X100351100Y-177756054D01*
X100575212Y-177663224D01*
X100785289Y-177541936D01*
X100977738Y-177394265D01*
X101149265Y-177222738D01*
X101296936Y-177030289D01*
X101418224Y-176820212D01*
X101511054Y-176596100D01*
X101573838Y-176361789D01*
X101605500Y-176121288D01*
X101605500Y-175878712D01*
X101573838Y-175638211D01*
X101511054Y-175403900D01*
X101418224Y-175179788D01*
X101296936Y-174969711D01*
X101162040Y-174793911D01*
X101149266Y-174777263D01*
X101149260Y-174777256D01*
X100977743Y-174605739D01*
X100977736Y-174605733D01*
X100785293Y-174458067D01*
X100785292Y-174458066D01*
X100785289Y-174458064D01*
X100575212Y-174336776D01*
X100523763Y-174315465D01*
X100351104Y-174243947D01*
X100116785Y-174181161D01*
X99876289Y-174149500D01*
X99876288Y-174149500D01*
X99633712Y-174149500D01*
X99633711Y-174149500D01*
X99393214Y-174181161D01*
X99158895Y-174243947D01*
X98934794Y-174336773D01*
X98934785Y-174336777D01*
X98724706Y-174458067D01*
X98532263Y-174605733D01*
X98532256Y-174605739D01*
X98360739Y-174777256D01*
X98360733Y-174777263D01*
X98213067Y-174969706D01*
X98091777Y-175179785D01*
X98091773Y-175179794D01*
X97998947Y-175403895D01*
X97936161Y-175638214D01*
X97904500Y-175878711D01*
X45995500Y-175878711D01*
X45963838Y-175638211D01*
X45901054Y-175403900D01*
X45808224Y-175179788D01*
X45686936Y-174969711D01*
X45552040Y-174793911D01*
X45539266Y-174777263D01*
X45539260Y-174777256D01*
X45367743Y-174605739D01*
X45367736Y-174605733D01*
X45175293Y-174458067D01*
X45175292Y-174458066D01*
X45175289Y-174458064D01*
X44965212Y-174336776D01*
X44913763Y-174315465D01*
X44741104Y-174243947D01*
X44506785Y-174181161D01*
X44266289Y-174149500D01*
X44266288Y-174149500D01*
X44023712Y-174149500D01*
X44023711Y-174149500D01*
X43783214Y-174181161D01*
X43548895Y-174243947D01*
X43324794Y-174336773D01*
X43324785Y-174336777D01*
X43114706Y-174458067D01*
X42922263Y-174605733D01*
X42922256Y-174605739D01*
X42750739Y-174777256D01*
X42750733Y-174777263D01*
X42603067Y-174969706D01*
X42481777Y-175179785D01*
X42481773Y-175179794D01*
X42388947Y-175403895D01*
X42326161Y-175638214D01*
X42294500Y-175878711D01*
X37950500Y-175878711D01*
X37950500Y-174193384D01*
X37944086Y-174122804D01*
X37893478Y-173960394D01*
X37805472Y-173814815D01*
X37805470Y-173814813D01*
X37805469Y-173814811D01*
X37685188Y-173694530D01*
X37539606Y-173606522D01*
X37377196Y-173555914D01*
X37377194Y-173555913D01*
X37377192Y-173555913D01*
X37327778Y-173551423D01*
X37306616Y-173549500D01*
X37306613Y-173549500D01*
X36824500Y-173549500D01*
X36757461Y-173529815D01*
X36711706Y-173477011D01*
X36700500Y-173425500D01*
X36700500Y-168798626D01*
X36720185Y-168731587D01*
X36736819Y-168710945D01*
X39408601Y-166039163D01*
X42185690Y-163262074D01*
X42296760Y-163109199D01*
X42382547Y-162940832D01*
X42440940Y-162761118D01*
X42454077Y-162678168D01*
X42470500Y-162574487D01*
X42470500Y-160303342D01*
X42490185Y-160236303D01*
X42490691Y-160235520D01*
X42560638Y-160128459D01*
X42657998Y-159906500D01*
X42717497Y-159671545D01*
X42730247Y-159517681D01*
X42737512Y-159430005D01*
X42737512Y-159429994D01*
X42717498Y-159188463D01*
X42717496Y-159188451D01*
X42657998Y-158953501D01*
X42560638Y-158731541D01*
X42428075Y-158528637D01*
X42409408Y-158508359D01*
X42263919Y-158350316D01*
X42263914Y-158350312D01*
X42263912Y-158350310D01*
X42072661Y-158201453D01*
X42072650Y-158201446D01*
X41859499Y-158086095D01*
X41859496Y-158086094D01*
X41859493Y-158086092D01*
X41859487Y-158086090D01*
X41859485Y-158086089D01*
X41630256Y-158007393D01*
X41450952Y-157977473D01*
X41391186Y-157967500D01*
X41148814Y-157967500D01*
X41101000Y-157975478D01*
X40909743Y-158007393D01*
X40680514Y-158086089D01*
X40680500Y-158086095D01*
X40467349Y-158201446D01*
X40467338Y-158201453D01*
X40276087Y-158350310D01*
X40276084Y-158350313D01*
X40111924Y-158528637D01*
X39979361Y-158731541D01*
X39882001Y-158953501D01*
X39822503Y-159188451D01*
X39822501Y-159188463D01*
X39802488Y-159429994D01*
X39802488Y-159430005D01*
X39822501Y-159671536D01*
X39822503Y-159671548D01*
X39882001Y-159906498D01*
X39882002Y-159906500D01*
X39979362Y-160128459D01*
X40049309Y-160235520D01*
X40069496Y-160302410D01*
X40069500Y-160303342D01*
X40069500Y-161931374D01*
X40049815Y-161998413D01*
X40033181Y-162019055D01*
X34584310Y-167467925D01*
X34541566Y-167526759D01*
X34541565Y-167526759D01*
X34473242Y-167620797D01*
X34387454Y-167789163D01*
X34329059Y-167968881D01*
X34299500Y-168155513D01*
X34299500Y-173425500D01*
X34279815Y-173492539D01*
X34227011Y-173538294D01*
X34175500Y-173549500D01*
X33693384Y-173549500D01*
X33674145Y-173551248D01*
X33622807Y-173555913D01*
X33460393Y-173606522D01*
X33314811Y-173694530D01*
X33194530Y-173814811D01*
X33106522Y-173960393D01*
X33055913Y-174122807D01*
X33049500Y-174193386D01*
X30500500Y-174193386D01*
X30500500Y-159429994D01*
X32182488Y-159429994D01*
X32182488Y-159430005D01*
X32202501Y-159671536D01*
X32202503Y-159671548D01*
X32262001Y-159906498D01*
X32359361Y-160128458D01*
X32491924Y-160331362D01*
X32491927Y-160331365D01*
X32656081Y-160509684D01*
X32656084Y-160509686D01*
X32656087Y-160509689D01*
X32847338Y-160658546D01*
X32847345Y-160658550D01*
X32847347Y-160658552D01*
X33060507Y-160773908D01*
X33179544Y-160814774D01*
X33289743Y-160852606D01*
X33289745Y-160852606D01*
X33289747Y-160852607D01*
X33528814Y-160892500D01*
X33528815Y-160892500D01*
X33771185Y-160892500D01*
X33771186Y-160892500D01*
X34010253Y-160852607D01*
X34239493Y-160773908D01*
X34452653Y-160658552D01*
X34643919Y-160509684D01*
X34808073Y-160331365D01*
X34940638Y-160128459D01*
X35037998Y-159906500D01*
X35097497Y-159671545D01*
X35110247Y-159517681D01*
X35117512Y-159430004D01*
X35117512Y-159428769D01*
X35117654Y-159428283D01*
X35117936Y-159424888D01*
X35118634Y-159424945D01*
X35137197Y-159361730D01*
X35153831Y-159341088D01*
X37863789Y-156631130D01*
X40637778Y-153857141D01*
X40637782Y-153857139D01*
X40777139Y-153717782D01*
X40886632Y-153553914D01*
X40897921Y-153526661D01*
X40962049Y-153371839D01*
X40962051Y-153371835D01*
X41000500Y-153178541D01*
X41000500Y-137465781D01*
X41020185Y-137398742D01*
X41036814Y-137378105D01*
X45637778Y-132777141D01*
X45637782Y-132777139D01*
X45777139Y-132637782D01*
X45886632Y-132473914D01*
X45920959Y-132391041D01*
X45950436Y-132319878D01*
X45962049Y-132291840D01*
X45962051Y-132291836D01*
X45992694Y-132137782D01*
X46000500Y-132098541D01*
X46000500Y-127617000D01*
X46020185Y-127549961D01*
X46072989Y-127504206D01*
X46124500Y-127493000D01*
X46306613Y-127493000D01*
X46306616Y-127493000D01*
X46377196Y-127486586D01*
X46539606Y-127435978D01*
X46685185Y-127347972D01*
X46805472Y-127227685D01*
X46893478Y-127082106D01*
X46944086Y-126919696D01*
X46950500Y-126849116D01*
X46950500Y-123235884D01*
X46944086Y-123165304D01*
X46893478Y-123002894D01*
X46805472Y-122857315D01*
X46805470Y-122857313D01*
X46805469Y-122857311D01*
X46685188Y-122737030D01*
X46539606Y-122649022D01*
X46383890Y-122600500D01*
X46377196Y-122598414D01*
X46377194Y-122598413D01*
X46377192Y-122598413D01*
X46327778Y-122593923D01*
X46306616Y-122592000D01*
X42693384Y-122592000D01*
X42674145Y-122593748D01*
X42622807Y-122598413D01*
X42460393Y-122649022D01*
X42314811Y-122737030D01*
X42194530Y-122857311D01*
X42106522Y-123002893D01*
X42055913Y-123165307D01*
X42049500Y-123235886D01*
X42049500Y-126849113D01*
X42055913Y-126919692D01*
X42106522Y-127082106D01*
X42194530Y-127227688D01*
X42314811Y-127347969D01*
X42314813Y-127347970D01*
X42314815Y-127347972D01*
X42460394Y-127435978D01*
X42622804Y-127486586D01*
X42693384Y-127493000D01*
X43875500Y-127493000D01*
X43942539Y-127512685D01*
X43988294Y-127565489D01*
X43999500Y-127617000D01*
X43999500Y-131534217D01*
X43979815Y-131601256D01*
X43963181Y-131621898D01*
X41630925Y-133954154D01*
X39362221Y-136222858D01*
X39362218Y-136222861D01*
X39316917Y-136268162D01*
X39222859Y-136362219D01*
X39113371Y-136526079D01*
X39113364Y-136526092D01*
X39037950Y-136708160D01*
X39037947Y-136708170D01*
X38999500Y-136901456D01*
X38999500Y-152614218D01*
X38979815Y-152681257D01*
X38963181Y-152701899D01*
X33733899Y-157931181D01*
X33672576Y-157964666D01*
X33646218Y-157967500D01*
X33528814Y-157967500D01*
X33481000Y-157975478D01*
X33289743Y-158007393D01*
X33060514Y-158086089D01*
X33060500Y-158086095D01*
X32847349Y-158201446D01*
X32847338Y-158201453D01*
X32656087Y-158350310D01*
X32656084Y-158350313D01*
X32491924Y-158528637D01*
X32359361Y-158731541D01*
X32262001Y-158953501D01*
X32202503Y-159188451D01*
X32202501Y-159188463D01*
X32182488Y-159429994D01*
X30500500Y-159429994D01*
X30500500Y-109743386D01*
X34939500Y-109743386D01*
X34939500Y-112256613D01*
X34945913Y-112327192D01*
X34996522Y-112489606D01*
X35084530Y-112635188D01*
X35204811Y-112755469D01*
X35204813Y-112755470D01*
X35204815Y-112755472D01*
X35350394Y-112843478D01*
X35512804Y-112894086D01*
X35526720Y-112895350D01*
X35591702Y-112921019D01*
X35632492Y-112977746D01*
X35639500Y-113018841D01*
X35639500Y-113934486D01*
X35669060Y-114121118D01*
X35669059Y-114121118D01*
X35727454Y-114300836D01*
X35813240Y-114469199D01*
X35924310Y-114622074D01*
X38217926Y-116915690D01*
X38370801Y-117026760D01*
X38539168Y-117112547D01*
X38718882Y-117170940D01*
X38788870Y-117182025D01*
X38905513Y-117200500D01*
X38905518Y-117200500D01*
X38905519Y-117200500D01*
X45951374Y-117200500D01*
X46018413Y-117220185D01*
X46039055Y-117236819D01*
X49263181Y-120460945D01*
X49296666Y-120522268D01*
X49299500Y-120548626D01*
X49299500Y-154731373D01*
X49279815Y-154798412D01*
X49263181Y-154819054D01*
X46119976Y-157962258D01*
X46058653Y-157995743D01*
X46052708Y-157996885D01*
X45989748Y-158007392D01*
X45760514Y-158086089D01*
X45760500Y-158086095D01*
X45547349Y-158201446D01*
X45547338Y-158201453D01*
X45356087Y-158350310D01*
X45356084Y-158350313D01*
X45191924Y-158528637D01*
X45059361Y-158731541D01*
X44962001Y-158953501D01*
X44902503Y-159188451D01*
X44902501Y-159188463D01*
X44882488Y-159429994D01*
X44882488Y-159430005D01*
X44902501Y-159671536D01*
X44902503Y-159671548D01*
X44962001Y-159906498D01*
X45059361Y-160128458D01*
X45191924Y-160331362D01*
X45191927Y-160331365D01*
X45356081Y-160509684D01*
X45356084Y-160509686D01*
X45356087Y-160509689D01*
X45547338Y-160658546D01*
X45547345Y-160658550D01*
X45547347Y-160658552D01*
X45760507Y-160773908D01*
X45989747Y-160852607D01*
X46052704Y-160863112D01*
X46115589Y-160893562D01*
X46119976Y-160897740D01*
X49137926Y-163915690D01*
X49290801Y-164026760D01*
X49370347Y-164067290D01*
X49459163Y-164112545D01*
X49459165Y-164112545D01*
X49459168Y-164112547D01*
X49555497Y-164143846D01*
X49638881Y-164170940D01*
X49825514Y-164200500D01*
X49825519Y-164200500D01*
X109451374Y-164200500D01*
X109518413Y-164220185D01*
X109539055Y-164236819D01*
X112263181Y-166960945D01*
X112296666Y-167022268D01*
X112299500Y-167048626D01*
X112299500Y-183094486D01*
X112329059Y-183281118D01*
X112387454Y-183460836D01*
X112454538Y-183592495D01*
X112473240Y-183629199D01*
X112584310Y-183782074D01*
X114717926Y-185915690D01*
X114870801Y-186026760D01*
X115039168Y-186112547D01*
X115218882Y-186170940D01*
X115288870Y-186182025D01*
X115405513Y-186200500D01*
X115405518Y-186200500D01*
X119094486Y-186200500D01*
X119281118Y-186170940D01*
X119460832Y-186112547D01*
X119629199Y-186026760D01*
X119782074Y-185915690D01*
X121415690Y-184282074D01*
X121526760Y-184129199D01*
X121612547Y-183960832D01*
X121670940Y-183781118D01*
X121695001Y-183629199D01*
X121700500Y-183594481D01*
X121700500Y-183592495D01*
X121700713Y-183591767D01*
X121700883Y-183589618D01*
X121701334Y-183589653D01*
X121720185Y-183525456D01*
X121772989Y-183479701D01*
X121842147Y-183469757D01*
X121888648Y-183486377D01*
X121900394Y-183493478D01*
X122062804Y-183544086D01*
X122133384Y-183550500D01*
X122133387Y-183550500D01*
X123946613Y-183550500D01*
X123946616Y-183550500D01*
X124017196Y-183544086D01*
X124179606Y-183493478D01*
X124325185Y-183405472D01*
X124445472Y-183285185D01*
X124533478Y-183139606D01*
X124547538Y-183094486D01*
X124549681Y-183087610D01*
X124588418Y-183029462D01*
X124652443Y-183001488D01*
X124668066Y-183000500D01*
X126098543Y-183000500D01*
X126192521Y-182981806D01*
X126215697Y-182977196D01*
X126291836Y-182962051D01*
X126345165Y-182939961D01*
X126473914Y-182886632D01*
X126637782Y-182777139D01*
X126777139Y-182637782D01*
X126777139Y-182637780D01*
X126787347Y-182627573D01*
X126787348Y-182627570D01*
X127777140Y-181637781D01*
X127886632Y-181473914D01*
X127962052Y-181291835D01*
X128000501Y-181098540D01*
X128000501Y-180901459D01*
X128000501Y-180896349D01*
X128000500Y-180896323D01*
X128000500Y-126901456D01*
X128000499Y-126901454D01*
X127962052Y-126708171D01*
X127962051Y-126708164D01*
X127930811Y-126632745D01*
X127886632Y-126526086D01*
X127777139Y-126362218D01*
X127637782Y-126222861D01*
X127637781Y-126222860D01*
X122725248Y-121310328D01*
X122691764Y-121249006D01*
X122689277Y-121213385D01*
X122705268Y-121000000D01*
X122695829Y-120874038D01*
X125399500Y-120874038D01*
X125399500Y-121125961D01*
X125438910Y-121374785D01*
X125516760Y-121614383D01*
X125631132Y-121838848D01*
X125779201Y-122042649D01*
X125779205Y-122042654D01*
X125957345Y-122220794D01*
X125957350Y-122220798D01*
X126078694Y-122308959D01*
X126161155Y-122368870D01*
X126304184Y-122441747D01*
X126385616Y-122483239D01*
X126385618Y-122483239D01*
X126385621Y-122483241D01*
X126625215Y-122561090D01*
X126874038Y-122600500D01*
X126874039Y-122600500D01*
X127125961Y-122600500D01*
X127125962Y-122600500D01*
X127374785Y-122561090D01*
X127614379Y-122483241D01*
X127838845Y-122368870D01*
X128042656Y-122220793D01*
X128220793Y-122042656D01*
X128368870Y-121838845D01*
X128483241Y-121614379D01*
X128561090Y-121374785D01*
X128600500Y-121125962D01*
X128600500Y-120874038D01*
X128561090Y-120625215D01*
X128483241Y-120385621D01*
X128483239Y-120385618D01*
X128483239Y-120385616D01*
X128419291Y-120260112D01*
X128368870Y-120161155D01*
X128349952Y-120135117D01*
X128220798Y-119957350D01*
X128220794Y-119957345D01*
X128042654Y-119779205D01*
X128042649Y-119779201D01*
X127838848Y-119631132D01*
X127838847Y-119631131D01*
X127838845Y-119631130D01*
X127768747Y-119595413D01*
X127614383Y-119516760D01*
X127374785Y-119438910D01*
X127268336Y-119422050D01*
X127125962Y-119399500D01*
X126874038Y-119399500D01*
X126749626Y-119419205D01*
X126625214Y-119438910D01*
X126385616Y-119516760D01*
X126161151Y-119631132D01*
X125957350Y-119779201D01*
X125957345Y-119779205D01*
X125779205Y-119957345D01*
X125779201Y-119957350D01*
X125631132Y-120161151D01*
X125516760Y-120385616D01*
X125438910Y-120625214D01*
X125399500Y-120874038D01*
X122695829Y-120874038D01*
X122686222Y-120745843D01*
X122629508Y-120497363D01*
X122536393Y-120260112D01*
X122408959Y-120039388D01*
X122250050Y-119840123D01*
X122229330Y-119820898D01*
X122193576Y-119760870D01*
X122195951Y-119691041D01*
X122229331Y-119639101D01*
X122250050Y-119619877D01*
X122339917Y-119507186D01*
X122397106Y-119467047D01*
X122436864Y-119460500D01*
X123638543Y-119460500D01*
X123710900Y-119446106D01*
X123747080Y-119438910D01*
X123831836Y-119422051D01*
X123925345Y-119383318D01*
X124013914Y-119346632D01*
X124177782Y-119237139D01*
X124317139Y-119097782D01*
X124317140Y-119097779D01*
X124324206Y-119090714D01*
X124324209Y-119090710D01*
X125637778Y-117777141D01*
X125637782Y-117777139D01*
X125777139Y-117637782D01*
X125886632Y-117473914D01*
X125962051Y-117291835D01*
X125986099Y-117170940D01*
X126000500Y-117098543D01*
X126000500Y-98434500D01*
X126020185Y-98367461D01*
X126072989Y-98321706D01*
X126119282Y-98311634D01*
X126119224Y-98310924D01*
X126124328Y-98310501D01*
X126124334Y-98310500D01*
X126124335Y-98310500D01*
X126369614Y-98269571D01*
X126604810Y-98188828D01*
X126823509Y-98070474D01*
X127019744Y-97917738D01*
X127188164Y-97734785D01*
X127324173Y-97526607D01*
X127424063Y-97298881D01*
X127426434Y-97289521D01*
X127485107Y-97057824D01*
X127485108Y-97057821D01*
X127485109Y-97057812D01*
X127505643Y-96810005D01*
X127505643Y-96809994D01*
X127485109Y-96562187D01*
X127485107Y-96562175D01*
X127424063Y-96321118D01*
X127324173Y-96093393D01*
X127188166Y-95885217D01*
X127117536Y-95808493D01*
X127019744Y-95702262D01*
X126823509Y-95549526D01*
X126823507Y-95549525D01*
X126823506Y-95549524D01*
X126604811Y-95431172D01*
X126604802Y-95431169D01*
X126369616Y-95350429D01*
X126124335Y-95309500D01*
X125875665Y-95309500D01*
X125630383Y-95350429D01*
X125395197Y-95431169D01*
X125395188Y-95431172D01*
X125176493Y-95549524D01*
X124980257Y-95702261D01*
X124811833Y-95885217D01*
X124675826Y-96093393D01*
X124575936Y-96321118D01*
X124514892Y-96562175D01*
X124514890Y-96562187D01*
X124495549Y-96795609D01*
X124494357Y-96810000D01*
X124496553Y-96836502D01*
X124482470Y-96904938D01*
X124460658Y-96934421D01*
X124362220Y-97032859D01*
X124362218Y-97032861D01*
X124295752Y-97099327D01*
X124222859Y-97172219D01*
X124113371Y-97336079D01*
X124113364Y-97336092D01*
X124037950Y-97518160D01*
X124037947Y-97518170D01*
X123999500Y-97711456D01*
X123999500Y-116534218D01*
X123979815Y-116601257D01*
X123963181Y-116621899D01*
X123161899Y-117423181D01*
X123100576Y-117456666D01*
X123074218Y-117459500D01*
X122436864Y-117459500D01*
X122369825Y-117439815D01*
X122339917Y-117412813D01*
X122250050Y-117300123D01*
X122063217Y-117126768D01*
X121852634Y-116983195D01*
X121852630Y-116983193D01*
X121852627Y-116983191D01*
X121852626Y-116983190D01*
X121623006Y-116872612D01*
X121623008Y-116872612D01*
X121379466Y-116797489D01*
X121379462Y-116797488D01*
X121379458Y-116797487D01*
X121258231Y-116779214D01*
X121127440Y-116759500D01*
X121127435Y-116759500D01*
X120872565Y-116759500D01*
X120872559Y-116759500D01*
X120715609Y-116783157D01*
X120620542Y-116797487D01*
X120620539Y-116797488D01*
X120620533Y-116797489D01*
X120376992Y-116872612D01*
X120147373Y-116983190D01*
X120147372Y-116983191D01*
X119936782Y-117126768D01*
X119749952Y-117300121D01*
X119749950Y-117300123D01*
X119591041Y-117499388D01*
X119463608Y-117720109D01*
X119370492Y-117957362D01*
X119370490Y-117957369D01*
X119313777Y-118205845D01*
X119294732Y-118459995D01*
X119294732Y-118460004D01*
X119313777Y-118714154D01*
X119313778Y-118714157D01*
X119370492Y-118962637D01*
X119463607Y-119199888D01*
X119591041Y-119420612D01*
X119667716Y-119516759D01*
X119749954Y-119619882D01*
X119770669Y-119639103D01*
X119806422Y-119699132D01*
X119804046Y-119768961D01*
X119770669Y-119820897D01*
X119749954Y-119840117D01*
X119591041Y-120039388D01*
X119463608Y-120260109D01*
X119370492Y-120497362D01*
X119370490Y-120497369D01*
X119313777Y-120745845D01*
X119294732Y-120999995D01*
X119294732Y-121000004D01*
X119313777Y-121254154D01*
X119341310Y-121374785D01*
X119370492Y-121502637D01*
X119463607Y-121739888D01*
X119591041Y-121960612D01*
X119749949Y-122159876D01*
X119749954Y-122159882D01*
X119770669Y-122179103D01*
X119806422Y-122239132D01*
X119804046Y-122308961D01*
X119770669Y-122360897D01*
X119749954Y-122380117D01*
X119591041Y-122579388D01*
X119463608Y-122800109D01*
X119370492Y-123037362D01*
X119370490Y-123037369D01*
X119313777Y-123285845D01*
X119294732Y-123539995D01*
X119294732Y-123540004D01*
X119313777Y-123794154D01*
X119313778Y-123794157D01*
X119370492Y-124042637D01*
X119463607Y-124279888D01*
X119591041Y-124500612D01*
X119749949Y-124699876D01*
X119749954Y-124699882D01*
X119770669Y-124719103D01*
X119806422Y-124779132D01*
X119804046Y-124848961D01*
X119770669Y-124900897D01*
X119749954Y-124920117D01*
X119591041Y-125119388D01*
X119463608Y-125340109D01*
X119370492Y-125577362D01*
X119370490Y-125577369D01*
X119313777Y-125825845D01*
X119294732Y-126079995D01*
X119294732Y-126080004D01*
X119313777Y-126334154D01*
X119357584Y-126526086D01*
X119370492Y-126582637D01*
X119463607Y-126819888D01*
X119591041Y-127040612D01*
X119740227Y-127227685D01*
X119749954Y-127239882D01*
X119770669Y-127259103D01*
X119806422Y-127319132D01*
X119804046Y-127388961D01*
X119770669Y-127440897D01*
X119749954Y-127460117D01*
X119591041Y-127659388D01*
X119463608Y-127880109D01*
X119370492Y-128117362D01*
X119370490Y-128117369D01*
X119313777Y-128365845D01*
X119294732Y-128619995D01*
X119294732Y-128620004D01*
X119313777Y-128874154D01*
X119313778Y-128874157D01*
X119370492Y-129122637D01*
X119463607Y-129359888D01*
X119591041Y-129580612D01*
X119749949Y-129779876D01*
X119749954Y-129779882D01*
X119770669Y-129799103D01*
X119806422Y-129859132D01*
X119804046Y-129928961D01*
X119770669Y-129980897D01*
X119749954Y-130000117D01*
X119591041Y-130199388D01*
X119463608Y-130420109D01*
X119370492Y-130657362D01*
X119370490Y-130657369D01*
X119313777Y-130905845D01*
X119294732Y-131159995D01*
X119294732Y-131160004D01*
X119313777Y-131414154D01*
X119361193Y-131621898D01*
X119370492Y-131662637D01*
X119463607Y-131899888D01*
X119591041Y-132120612D01*
X119727582Y-132291828D01*
X119749951Y-132319878D01*
X119749953Y-132319881D01*
X119770669Y-132339103D01*
X119806422Y-132399132D01*
X119804046Y-132468961D01*
X119770669Y-132520897D01*
X119749954Y-132540117D01*
X119591041Y-132739388D01*
X119463608Y-132960109D01*
X119370492Y-133197362D01*
X119370490Y-133197369D01*
X119313777Y-133445845D01*
X119294732Y-133699995D01*
X119294732Y-133700004D01*
X119313777Y-133954154D01*
X119313778Y-133954157D01*
X119370492Y-134202637D01*
X119463607Y-134439888D01*
X119591041Y-134660612D01*
X119749949Y-134859876D01*
X119749954Y-134859882D01*
X119770669Y-134879103D01*
X119806422Y-134939132D01*
X119804046Y-135008961D01*
X119770669Y-135060897D01*
X119749954Y-135080117D01*
X119591041Y-135279388D01*
X119463608Y-135500109D01*
X119370492Y-135737362D01*
X119370490Y-135737369D01*
X119313777Y-135985845D01*
X119294732Y-136239995D01*
X119294732Y-136240004D01*
X119313777Y-136494154D01*
X119370155Y-136741163D01*
X119370492Y-136742637D01*
X119463607Y-136979888D01*
X119591041Y-137200612D01*
X119732583Y-137378100D01*
X119749954Y-137399882D01*
X119770669Y-137419103D01*
X119806422Y-137479132D01*
X119804046Y-137548961D01*
X119770669Y-137600897D01*
X119749954Y-137620117D01*
X119591041Y-137819388D01*
X119463608Y-138040109D01*
X119370492Y-138277362D01*
X119370490Y-138277369D01*
X119313777Y-138525845D01*
X119294732Y-138779995D01*
X119294732Y-138780004D01*
X119313777Y-139034154D01*
X119313778Y-139034157D01*
X119370492Y-139282637D01*
X119463607Y-139519888D01*
X119591041Y-139740612D01*
X119749949Y-139939876D01*
X119749954Y-139939882D01*
X119770669Y-139959103D01*
X119806422Y-140019132D01*
X119804046Y-140088961D01*
X119770669Y-140140897D01*
X119749954Y-140160117D01*
X119591041Y-140359388D01*
X119463608Y-140580109D01*
X119370492Y-140817362D01*
X119370490Y-140817369D01*
X119313777Y-141065845D01*
X119294732Y-141319995D01*
X119294732Y-141320004D01*
X119313777Y-141574154D01*
X119353312Y-141747369D01*
X119370492Y-141822637D01*
X119463607Y-142059888D01*
X119591041Y-142280612D01*
X119749949Y-142479876D01*
X119749954Y-142479882D01*
X119770669Y-142499103D01*
X119806422Y-142559132D01*
X119804046Y-142628961D01*
X119770669Y-142680897D01*
X119749954Y-142700117D01*
X119591041Y-142899388D01*
X119463608Y-143120109D01*
X119370492Y-143357362D01*
X119370490Y-143357369D01*
X119313777Y-143605845D01*
X119294732Y-143859995D01*
X119294732Y-143860004D01*
X119313777Y-144114154D01*
X119313778Y-144114157D01*
X119370492Y-144362637D01*
X119463607Y-144599888D01*
X119591041Y-144820612D01*
X119749949Y-145019876D01*
X119749954Y-145019882D01*
X119770669Y-145039103D01*
X119806422Y-145099132D01*
X119804046Y-145168961D01*
X119770669Y-145220897D01*
X119749954Y-145240117D01*
X119591041Y-145439388D01*
X119463608Y-145660109D01*
X119370492Y-145897362D01*
X119370490Y-145897369D01*
X119313777Y-146145845D01*
X119294732Y-146399995D01*
X119294732Y-146400004D01*
X119313777Y-146654154D01*
X119313778Y-146654157D01*
X119370492Y-146902637D01*
X119463607Y-147139888D01*
X119591041Y-147360612D01*
X119749949Y-147559876D01*
X119749954Y-147559882D01*
X119770669Y-147579103D01*
X119806422Y-147639132D01*
X119804046Y-147708961D01*
X119770669Y-147760897D01*
X119749954Y-147780117D01*
X119591041Y-147979388D01*
X119463608Y-148200109D01*
X119370492Y-148437362D01*
X119370490Y-148437369D01*
X119313777Y-148685845D01*
X119294732Y-148939995D01*
X119294732Y-148940004D01*
X119313777Y-149194154D01*
X119327125Y-149252637D01*
X119370492Y-149442637D01*
X119463607Y-149679888D01*
X119591041Y-149900612D01*
X119749950Y-150099877D01*
X119936783Y-150273232D01*
X120147366Y-150416805D01*
X120147371Y-150416807D01*
X120147372Y-150416808D01*
X120147373Y-150416809D01*
X120171104Y-150428237D01*
X120222964Y-150475059D01*
X120241277Y-150542486D01*
X120220229Y-150609110D01*
X120166503Y-150653779D01*
X120149396Y-150659732D01*
X119966112Y-150708842D01*
X119754123Y-150796650D01*
X119754109Y-150796657D01*
X119555382Y-150911392D01*
X119373338Y-151051081D01*
X119211081Y-151213338D01*
X119071392Y-151395382D01*
X118956657Y-151594109D01*
X118956650Y-151594123D01*
X118868842Y-151806112D01*
X118809453Y-152027759D01*
X118809451Y-152027770D01*
X118779500Y-152255258D01*
X118779500Y-152484741D01*
X118796547Y-152614218D01*
X118809452Y-152712238D01*
X118809453Y-152712240D01*
X118868842Y-152933887D01*
X118956650Y-153145876D01*
X118956657Y-153145890D01*
X119071392Y-153344617D01*
X119211081Y-153526661D01*
X119211089Y-153526670D01*
X119373330Y-153688911D01*
X119373338Y-153688918D01*
X119555382Y-153828607D01*
X119555385Y-153828608D01*
X119555388Y-153828611D01*
X119754112Y-153943344D01*
X119754117Y-153943346D01*
X119754123Y-153943349D01*
X119845480Y-153981190D01*
X119966113Y-154031158D01*
X120187762Y-154090548D01*
X120415266Y-154120500D01*
X120415273Y-154120500D01*
X120644727Y-154120500D01*
X120644734Y-154120500D01*
X120872238Y-154090548D01*
X121093887Y-154031158D01*
X121305888Y-153943344D01*
X121504612Y-153828611D01*
X121686661Y-153688919D01*
X121686665Y-153688914D01*
X121686670Y-153688911D01*
X121848911Y-153526670D01*
X121848914Y-153526665D01*
X121848919Y-153526661D01*
X121988611Y-153344612D01*
X122103344Y-153145888D01*
X122191158Y-152933887D01*
X122250548Y-152712238D01*
X122280500Y-152484734D01*
X122280500Y-152255266D01*
X122250548Y-152027762D01*
X122191158Y-151806113D01*
X122103344Y-151594112D01*
X121988611Y-151395388D01*
X121988608Y-151395385D01*
X121988607Y-151395382D01*
X121848918Y-151213338D01*
X121848911Y-151213330D01*
X121686670Y-151051089D01*
X121686661Y-151051081D01*
X121504617Y-150911392D01*
X121358470Y-150827014D01*
X121310254Y-150776447D01*
X121297032Y-150707840D01*
X121323000Y-150642975D01*
X121379914Y-150602447D01*
X121383885Y-150601147D01*
X121623004Y-150527389D01*
X121852634Y-150416805D01*
X122063217Y-150273232D01*
X122250050Y-150099877D01*
X122408959Y-149900612D01*
X122536393Y-149679888D01*
X122629508Y-149442637D01*
X122686222Y-149194157D01*
X122700460Y-149004157D01*
X122705268Y-148940004D01*
X122705268Y-148939995D01*
X122686222Y-148685845D01*
X122642855Y-148495843D01*
X122629508Y-148437363D01*
X122536393Y-148200112D01*
X122408959Y-147979388D01*
X122250050Y-147780123D01*
X122229330Y-147760898D01*
X122193576Y-147700870D01*
X122195951Y-147631041D01*
X122229331Y-147579101D01*
X122250050Y-147559877D01*
X122408959Y-147360612D01*
X122536393Y-147139888D01*
X122629508Y-146902637D01*
X122686222Y-146654157D01*
X122705268Y-146400000D01*
X122686222Y-146145843D01*
X122629508Y-145897363D01*
X122536393Y-145660112D01*
X122408959Y-145439388D01*
X122250050Y-145240123D01*
X122229330Y-145220898D01*
X122193576Y-145160870D01*
X122195951Y-145091041D01*
X122229331Y-145039101D01*
X122250050Y-145019877D01*
X122408959Y-144820612D01*
X122536393Y-144599888D01*
X122629508Y-144362637D01*
X122686222Y-144114157D01*
X122705268Y-143860000D01*
X122703573Y-143837387D01*
X122686222Y-143605845D01*
X122641493Y-143409876D01*
X122629508Y-143357363D01*
X122536393Y-143120112D01*
X122408959Y-142899388D01*
X122250050Y-142700123D01*
X122229330Y-142680898D01*
X122193576Y-142620870D01*
X122195951Y-142551041D01*
X122229331Y-142499101D01*
X122250050Y-142479877D01*
X122408959Y-142280612D01*
X122536393Y-142059888D01*
X122629508Y-141822637D01*
X122686222Y-141574157D01*
X122705268Y-141320000D01*
X122686222Y-141065843D01*
X122629508Y-140817363D01*
X122536393Y-140580112D01*
X122408959Y-140359388D01*
X122250050Y-140160123D01*
X122229330Y-140140898D01*
X122193576Y-140080870D01*
X122195951Y-140011041D01*
X122229331Y-139959101D01*
X122250050Y-139939877D01*
X122408959Y-139740612D01*
X122536393Y-139519888D01*
X122629508Y-139282637D01*
X122686222Y-139034157D01*
X122705268Y-138780000D01*
X122686222Y-138525843D01*
X122629508Y-138277363D01*
X122536393Y-138040112D01*
X122408959Y-137819388D01*
X122250050Y-137620123D01*
X122229330Y-137600898D01*
X122193576Y-137540870D01*
X122195951Y-137471041D01*
X122229331Y-137419101D01*
X122234376Y-137414420D01*
X122250050Y-137399877D01*
X122408959Y-137200612D01*
X122536393Y-136979888D01*
X122599273Y-136819671D01*
X122642085Y-136764464D01*
X122707955Y-136741163D01*
X122775966Y-136757173D01*
X122802379Y-136777299D01*
X122963181Y-136938101D01*
X122996666Y-136999424D01*
X122999500Y-137025782D01*
X122999500Y-167284217D01*
X122979815Y-167351256D01*
X122963181Y-167371898D01*
X122366198Y-167968881D01*
X121822221Y-168512858D01*
X121822218Y-168512861D01*
X121752538Y-168582540D01*
X121682859Y-168652219D01*
X121573371Y-168816079D01*
X121573364Y-168816092D01*
X121497950Y-168998160D01*
X121497947Y-168998170D01*
X121459500Y-169191456D01*
X121459500Y-174258300D01*
X121439815Y-174325339D01*
X121416032Y-174352590D01*
X121360247Y-174400235D01*
X121360241Y-174400241D01*
X121284290Y-174489168D01*
X121225783Y-174527361D01*
X121155915Y-174527859D01*
X121096869Y-174490505D01*
X121095710Y-174489168D01*
X121069144Y-174458064D01*
X121019759Y-174400241D01*
X120836761Y-174243946D01*
X120834176Y-174241738D01*
X120834173Y-174241737D01*
X120626089Y-174114222D01*
X120400618Y-174020830D01*
X120400621Y-174020830D01*
X120294992Y-173995470D01*
X120163302Y-173963854D01*
X120163300Y-173963853D01*
X120163297Y-173963853D01*
X119920000Y-173944706D01*
X119676702Y-173963853D01*
X119439380Y-174020830D01*
X119213910Y-174114222D01*
X119005826Y-174241737D01*
X119005823Y-174241738D01*
X118820241Y-174400241D01*
X118661738Y-174585823D01*
X118661737Y-174585826D01*
X118534222Y-174793910D01*
X118440830Y-175019380D01*
X118383853Y-175256702D01*
X118364706Y-175500000D01*
X118383853Y-175743297D01*
X118383853Y-175743300D01*
X118383854Y-175743302D01*
X118416363Y-175878711D01*
X118440830Y-175980619D01*
X118534222Y-176206089D01*
X118661737Y-176414173D01*
X118661738Y-176414176D01*
X118661741Y-176414179D01*
X118820241Y-176599759D01*
X118961082Y-176720048D01*
X119005823Y-176758261D01*
X119005826Y-176758262D01*
X119213910Y-176885777D01*
X119439381Y-176979169D01*
X119439378Y-176979169D01*
X119439384Y-176979170D01*
X119439388Y-176979172D01*
X119676698Y-177036146D01*
X119920000Y-177055294D01*
X120163302Y-177036146D01*
X120400612Y-176979172D01*
X120626089Y-176885777D01*
X120834179Y-176758259D01*
X121019759Y-176599759D01*
X121095710Y-176510832D01*
X121154216Y-176472638D01*
X121224084Y-176472139D01*
X121283131Y-176509493D01*
X121284290Y-176510832D01*
X121357115Y-176596100D01*
X121360241Y-176599759D01*
X121471589Y-176694859D01*
X121545823Y-176758261D01*
X121545826Y-176758262D01*
X121753910Y-176885777D01*
X121979381Y-176979169D01*
X121979378Y-176979169D01*
X121979384Y-176979170D01*
X121979388Y-176979172D01*
X122216698Y-177036146D01*
X122460000Y-177055294D01*
X122703302Y-177036146D01*
X122940612Y-176979172D01*
X123166089Y-176885777D01*
X123374179Y-176758259D01*
X123397685Y-176738182D01*
X123461445Y-176709611D01*
X123530531Y-176720048D01*
X123583008Y-176766178D01*
X123584333Y-176768320D01*
X123594530Y-176785188D01*
X123714811Y-176905469D01*
X123714813Y-176905470D01*
X123714815Y-176905472D01*
X123739650Y-176920485D01*
X123786837Y-176972010D01*
X123799500Y-177026601D01*
X123799500Y-177701374D01*
X123779815Y-177768413D01*
X123763181Y-177789055D01*
X123539055Y-178013181D01*
X123477732Y-178046666D01*
X123451374Y-178049500D01*
X121405514Y-178049500D01*
X121218881Y-178079059D01*
X121039163Y-178137454D01*
X120870800Y-178223240D01*
X120783579Y-178286610D01*
X120717927Y-178334310D01*
X120717925Y-178334312D01*
X120717924Y-178334312D01*
X119584312Y-179467923D01*
X119473240Y-179620800D01*
X119387454Y-179789163D01*
X119329059Y-179968881D01*
X119299500Y-180155513D01*
X119299500Y-180972447D01*
X119279815Y-181039486D01*
X119269792Y-181052977D01*
X119241741Y-181085821D01*
X119241735Y-181085829D01*
X119114222Y-181293910D01*
X119020830Y-181519380D01*
X118963853Y-181756702D01*
X118944706Y-182000000D01*
X118963853Y-182243297D01*
X118963853Y-182243300D01*
X118963854Y-182243302D01*
X119013808Y-182451374D01*
X119020830Y-182480619D01*
X119114222Y-182706089D01*
X119244286Y-182918333D01*
X119243133Y-182919039D01*
X119264542Y-182979070D01*
X119248706Y-183047122D01*
X119228424Y-183073811D01*
X118539055Y-183763181D01*
X118477732Y-183796666D01*
X118451374Y-183799500D01*
X116048626Y-183799500D01*
X115981587Y-183779815D01*
X115960945Y-183763181D01*
X114736819Y-182539055D01*
X114703334Y-182477732D01*
X114700500Y-182451374D01*
X114700500Y-166405513D01*
X114670940Y-166218881D01*
X114612545Y-166039163D01*
X114526759Y-165870799D01*
X114415690Y-165717926D01*
X110782074Y-162084310D01*
X110629199Y-161973240D01*
X110460836Y-161887454D01*
X110281118Y-161829059D01*
X110094486Y-161799500D01*
X110094481Y-161799500D01*
X50468626Y-161799500D01*
X50401587Y-161779815D01*
X50380945Y-161763181D01*
X48135445Y-159517681D01*
X48101960Y-159456358D01*
X48106944Y-159386666D01*
X48135445Y-159342319D01*
X49603726Y-157874038D01*
X56899500Y-157874038D01*
X56899500Y-158125961D01*
X56938910Y-158374785D01*
X57016760Y-158614383D01*
X57131132Y-158838848D01*
X57279201Y-159042649D01*
X57279205Y-159042654D01*
X57457345Y-159220794D01*
X57457350Y-159220798D01*
X57622916Y-159341088D01*
X57661155Y-159368870D01*
X57804184Y-159441747D01*
X57885616Y-159483239D01*
X57885618Y-159483239D01*
X57885621Y-159483241D01*
X58125215Y-159561090D01*
X58374038Y-159600500D01*
X58374039Y-159600500D01*
X58625961Y-159600500D01*
X58625962Y-159600500D01*
X58874785Y-159561090D01*
X59114379Y-159483241D01*
X59338845Y-159368870D01*
X59542656Y-159220793D01*
X59720793Y-159042656D01*
X59868870Y-158838845D01*
X59983241Y-158614379D01*
X60061090Y-158374785D01*
X60100500Y-158125962D01*
X60100500Y-157950000D01*
X98890000Y-157950000D01*
X117580000Y-157950000D01*
X117580000Y-144460000D01*
X98890000Y-144460000D01*
X98890000Y-157950000D01*
X60100500Y-157950000D01*
X60100500Y-157874038D01*
X60061090Y-157625215D01*
X59983241Y-157385621D01*
X59983239Y-157385618D01*
X59983239Y-157385616D01*
X59941747Y-157304184D01*
X59868870Y-157161155D01*
X59849952Y-157135117D01*
X59720798Y-156957350D01*
X59720794Y-156957345D01*
X59542654Y-156779205D01*
X59542649Y-156779201D01*
X59338848Y-156631132D01*
X59338847Y-156631131D01*
X59338845Y-156631130D01*
X59268747Y-156595413D01*
X59114383Y-156516760D01*
X58874785Y-156438910D01*
X58625962Y-156399500D01*
X58374038Y-156399500D01*
X58249626Y-156419205D01*
X58125214Y-156438910D01*
X57885616Y-156516760D01*
X57661151Y-156631132D01*
X57457350Y-156779201D01*
X57457345Y-156779205D01*
X57279205Y-156957345D01*
X57279201Y-156957350D01*
X57131132Y-157161151D01*
X57016760Y-157385616D01*
X56938910Y-157625214D01*
X56899500Y-157874038D01*
X49603726Y-157874038D01*
X51415690Y-156062074D01*
X51526760Y-155909199D01*
X51612547Y-155740832D01*
X51670940Y-155561118D01*
X51684077Y-155478168D01*
X51700500Y-155374487D01*
X51700500Y-148749995D01*
X53294732Y-148749995D01*
X53294732Y-148750004D01*
X53313777Y-149004154D01*
X53357143Y-149194154D01*
X53370492Y-149252637D01*
X53463607Y-149489888D01*
X53591041Y-149710612D01*
X53749950Y-149909877D01*
X53936783Y-150083232D01*
X54147366Y-150226805D01*
X54147371Y-150226807D01*
X54147372Y-150226808D01*
X54147373Y-150226809D01*
X54269328Y-150285538D01*
X54376992Y-150337387D01*
X54376993Y-150337387D01*
X54376996Y-150337389D01*
X54620542Y-150412513D01*
X54872565Y-150450500D01*
X55127435Y-150450500D01*
X55379458Y-150412513D01*
X55623004Y-150337389D01*
X55852634Y-150226805D01*
X56063217Y-150083232D01*
X56250050Y-149909877D01*
X56408959Y-149710612D01*
X56536393Y-149489888D01*
X56629508Y-149252637D01*
X56686222Y-149004157D01*
X56705268Y-148750000D01*
X56705268Y-148749995D01*
X63044732Y-148749995D01*
X63044732Y-148750004D01*
X63063777Y-149004154D01*
X63107143Y-149194154D01*
X63120492Y-149252637D01*
X63213607Y-149489888D01*
X63341041Y-149710612D01*
X63499950Y-149909877D01*
X63686783Y-150083232D01*
X63897366Y-150226805D01*
X63897371Y-150226807D01*
X63897372Y-150226808D01*
X63897373Y-150226809D01*
X64019328Y-150285538D01*
X64126992Y-150337387D01*
X64126993Y-150337387D01*
X64126996Y-150337389D01*
X64370542Y-150412513D01*
X64622565Y-150450500D01*
X64877435Y-150450500D01*
X65129458Y-150412513D01*
X65373004Y-150337389D01*
X65602634Y-150226805D01*
X65813217Y-150083232D01*
X66000050Y-149909877D01*
X66158959Y-149710612D01*
X66286393Y-149489888D01*
X66379508Y-149252637D01*
X66436222Y-149004157D01*
X66455268Y-148750000D01*
X66455268Y-148749995D01*
X73294732Y-148749995D01*
X73294732Y-148750004D01*
X73313777Y-149004154D01*
X73357143Y-149194154D01*
X73370492Y-149252637D01*
X73463607Y-149489888D01*
X73591041Y-149710612D01*
X73749950Y-149909877D01*
X73936783Y-150083232D01*
X74147366Y-150226805D01*
X74147371Y-150226807D01*
X74147372Y-150226808D01*
X74147373Y-150226809D01*
X74269328Y-150285538D01*
X74376992Y-150337387D01*
X74376993Y-150337387D01*
X74376996Y-150337389D01*
X74620542Y-150412513D01*
X74872565Y-150450500D01*
X75127435Y-150450500D01*
X75379458Y-150412513D01*
X75623004Y-150337389D01*
X75852634Y-150226805D01*
X76063217Y-150083232D01*
X76250050Y-149909877D01*
X76408959Y-149710612D01*
X76536393Y-149489888D01*
X76629508Y-149252637D01*
X76686222Y-149004157D01*
X76705268Y-148750000D01*
X76705268Y-148749995D01*
X83544732Y-148749995D01*
X83544732Y-148750004D01*
X83563777Y-149004154D01*
X83607143Y-149194154D01*
X83620492Y-149252637D01*
X83713607Y-149489888D01*
X83841041Y-149710612D01*
X83999950Y-149909877D01*
X84186783Y-150083232D01*
X84397366Y-150226805D01*
X84397371Y-150226807D01*
X84397372Y-150226808D01*
X84397373Y-150226809D01*
X84519328Y-150285538D01*
X84626992Y-150337387D01*
X84626993Y-150337387D01*
X84626996Y-150337389D01*
X84870542Y-150412513D01*
X85122565Y-150450500D01*
X85377435Y-150450500D01*
X85629458Y-150412513D01*
X85873004Y-150337389D01*
X86102634Y-150226805D01*
X86313217Y-150083232D01*
X86500050Y-149909877D01*
X86658959Y-149710612D01*
X86786393Y-149489888D01*
X86879508Y-149252637D01*
X86936222Y-149004157D01*
X86955268Y-148750000D01*
X86950460Y-148685845D01*
X86936222Y-148495845D01*
X86922875Y-148437369D01*
X86879508Y-148247363D01*
X86786393Y-148010112D01*
X86658959Y-147789388D01*
X86500050Y-147590123D01*
X86313217Y-147416768D01*
X86102634Y-147273195D01*
X86102630Y-147273193D01*
X86102627Y-147273191D01*
X86102626Y-147273190D01*
X85873006Y-147162612D01*
X85873008Y-147162612D01*
X85629466Y-147087489D01*
X85629462Y-147087488D01*
X85629458Y-147087487D01*
X85508231Y-147069214D01*
X85377440Y-147049500D01*
X85377435Y-147049500D01*
X85122565Y-147049500D01*
X85122559Y-147049500D01*
X84965609Y-147073157D01*
X84870542Y-147087487D01*
X84870539Y-147087488D01*
X84870533Y-147087489D01*
X84626992Y-147162612D01*
X84397373Y-147273190D01*
X84397372Y-147273191D01*
X84186782Y-147416768D01*
X83999952Y-147590121D01*
X83999950Y-147590123D01*
X83841041Y-147789388D01*
X83713608Y-148010109D01*
X83620492Y-148247362D01*
X83620490Y-148247369D01*
X83563777Y-148495845D01*
X83544732Y-148749995D01*
X76705268Y-148749995D01*
X76700460Y-148685845D01*
X76686222Y-148495845D01*
X76672875Y-148437369D01*
X76629508Y-148247363D01*
X76536393Y-148010112D01*
X76408959Y-147789388D01*
X76250050Y-147590123D01*
X76063217Y-147416768D01*
X75852634Y-147273195D01*
X75852630Y-147273193D01*
X75852627Y-147273191D01*
X75852626Y-147273190D01*
X75623006Y-147162612D01*
X75623008Y-147162612D01*
X75379466Y-147087489D01*
X75379462Y-147087488D01*
X75379458Y-147087487D01*
X75258231Y-147069214D01*
X75127440Y-147049500D01*
X75127435Y-147049500D01*
X74872565Y-147049500D01*
X74872559Y-147049500D01*
X74715609Y-147073157D01*
X74620542Y-147087487D01*
X74620539Y-147087488D01*
X74620533Y-147087489D01*
X74376992Y-147162612D01*
X74147373Y-147273190D01*
X74147372Y-147273191D01*
X73936782Y-147416768D01*
X73749952Y-147590121D01*
X73749950Y-147590123D01*
X73591041Y-147789388D01*
X73463608Y-148010109D01*
X73370492Y-148247362D01*
X73370490Y-148247369D01*
X73313777Y-148495845D01*
X73294732Y-148749995D01*
X66455268Y-148749995D01*
X66450460Y-148685845D01*
X66436222Y-148495845D01*
X66422875Y-148437369D01*
X66379508Y-148247363D01*
X66286393Y-148010112D01*
X66158959Y-147789388D01*
X66000050Y-147590123D01*
X65813217Y-147416768D01*
X65602634Y-147273195D01*
X65602630Y-147273193D01*
X65602627Y-147273191D01*
X65602626Y-147273190D01*
X65373006Y-147162612D01*
X65373008Y-147162612D01*
X65129466Y-147087489D01*
X65129462Y-147087488D01*
X65129458Y-147087487D01*
X65008231Y-147069214D01*
X64877440Y-147049500D01*
X64877435Y-147049500D01*
X64622565Y-147049500D01*
X64622559Y-147049500D01*
X64465609Y-147073157D01*
X64370542Y-147087487D01*
X64370539Y-147087488D01*
X64370533Y-147087489D01*
X64126992Y-147162612D01*
X63897373Y-147273190D01*
X63897372Y-147273191D01*
X63686782Y-147416768D01*
X63499952Y-147590121D01*
X63499950Y-147590123D01*
X63341041Y-147789388D01*
X63213608Y-148010109D01*
X63120492Y-148247362D01*
X63120490Y-148247369D01*
X63063777Y-148495845D01*
X63044732Y-148749995D01*
X56705268Y-148749995D01*
X56700460Y-148685845D01*
X56686222Y-148495845D01*
X56672875Y-148437369D01*
X56629508Y-148247363D01*
X56536393Y-148010112D01*
X56408959Y-147789388D01*
X56250050Y-147590123D01*
X56063217Y-147416768D01*
X55852634Y-147273195D01*
X55852630Y-147273193D01*
X55852627Y-147273191D01*
X55852626Y-147273190D01*
X55623006Y-147162612D01*
X55623008Y-147162612D01*
X55379466Y-147087489D01*
X55379462Y-147087488D01*
X55379458Y-147087487D01*
X55258231Y-147069214D01*
X55127440Y-147049500D01*
X55127435Y-147049500D01*
X54872565Y-147049500D01*
X54872559Y-147049500D01*
X54715609Y-147073157D01*
X54620542Y-147087487D01*
X54620539Y-147087488D01*
X54620533Y-147087489D01*
X54376992Y-147162612D01*
X54147373Y-147273190D01*
X54147372Y-147273191D01*
X53936782Y-147416768D01*
X53749952Y-147590121D01*
X53749950Y-147590123D01*
X53591041Y-147789388D01*
X53463608Y-148010109D01*
X53370492Y-148247362D01*
X53370490Y-148247369D01*
X53313777Y-148495845D01*
X53294732Y-148749995D01*
X51700500Y-148749995D01*
X51700500Y-142249995D01*
X53294732Y-142249995D01*
X53294732Y-142250004D01*
X53313777Y-142504154D01*
X53358505Y-142700121D01*
X53370492Y-142752637D01*
X53463607Y-142989888D01*
X53591041Y-143210612D01*
X53749950Y-143409877D01*
X53936783Y-143583232D01*
X54147366Y-143726805D01*
X54147371Y-143726807D01*
X54147372Y-143726808D01*
X54147373Y-143726809D01*
X54269328Y-143785538D01*
X54376992Y-143837387D01*
X54376993Y-143837387D01*
X54376996Y-143837389D01*
X54620542Y-143912513D01*
X54872565Y-143950500D01*
X55127435Y-143950500D01*
X55379458Y-143912513D01*
X55623004Y-143837389D01*
X55852634Y-143726805D01*
X56063217Y-143583232D01*
X56250050Y-143409877D01*
X56408959Y-143210612D01*
X56536393Y-142989888D01*
X56629508Y-142752637D01*
X56686222Y-142504157D01*
X56705268Y-142250000D01*
X56686222Y-141995843D01*
X56629508Y-141747363D01*
X56536393Y-141510112D01*
X56408959Y-141289388D01*
X56250050Y-141090123D01*
X56063217Y-140916768D01*
X55852634Y-140773195D01*
X55852630Y-140773193D01*
X55852627Y-140773191D01*
X55852626Y-140773190D01*
X55623006Y-140662612D01*
X55623008Y-140662612D01*
X55379466Y-140587489D01*
X55379462Y-140587488D01*
X55379458Y-140587487D01*
X55258231Y-140569214D01*
X55127440Y-140549500D01*
X55127435Y-140549500D01*
X54872565Y-140549500D01*
X54872559Y-140549500D01*
X54715609Y-140573157D01*
X54620542Y-140587487D01*
X54620539Y-140587488D01*
X54620533Y-140587489D01*
X54376992Y-140662612D01*
X54147373Y-140773190D01*
X54147372Y-140773191D01*
X53936782Y-140916768D01*
X53749952Y-141090121D01*
X53749950Y-141090123D01*
X53591041Y-141289388D01*
X53463608Y-141510109D01*
X53370492Y-141747362D01*
X53370490Y-141747369D01*
X53313777Y-141995845D01*
X53294732Y-142249995D01*
X51700500Y-142249995D01*
X51700500Y-121324500D01*
X51720185Y-121257461D01*
X51772989Y-121211706D01*
X51824500Y-121200500D01*
X57824486Y-121200500D01*
X58011118Y-121170940D01*
X58190832Y-121112547D01*
X58359199Y-121026760D01*
X58512074Y-120915690D01*
X69469759Y-109958003D01*
X69531080Y-109924520D01*
X69537030Y-109923377D01*
X69588282Y-109914825D01*
X69816268Y-109836557D01*
X70028263Y-109721832D01*
X70218482Y-109573778D01*
X70381739Y-109396434D01*
X70396191Y-109374314D01*
X70449337Y-109328957D01*
X70518569Y-109319533D01*
X70581904Y-109349035D01*
X70603809Y-109374314D01*
X70618258Y-109396431D01*
X70618261Y-109396434D01*
X70768869Y-109560038D01*
X70781520Y-109573780D01*
X70781524Y-109573783D01*
X70826907Y-109609106D01*
X70971737Y-109721832D01*
X70971739Y-109721833D01*
X70971742Y-109721835D01*
X71094981Y-109788527D01*
X71183732Y-109836557D01*
X71411718Y-109914825D01*
X71649477Y-109954500D01*
X71649478Y-109954500D01*
X71890522Y-109954500D01*
X71890523Y-109954500D01*
X72128282Y-109914825D01*
X72356268Y-109836557D01*
X72568263Y-109721832D01*
X72758482Y-109573778D01*
X72921739Y-109396434D01*
X72936190Y-109374314D01*
X72989335Y-109328957D01*
X73058566Y-109319532D01*
X73121903Y-109349032D01*
X73143807Y-109374311D01*
X73158261Y-109396434D01*
X73276730Y-109525125D01*
X73307652Y-109587777D01*
X73309500Y-109609106D01*
X73309500Y-113908544D01*
X73347947Y-114101828D01*
X73347949Y-114101836D01*
X73355936Y-114121118D01*
X73355936Y-114121119D01*
X73423364Y-114283907D01*
X73423371Y-114283920D01*
X73532859Y-114447780D01*
X73532860Y-114447781D01*
X73532861Y-114447782D01*
X73672218Y-114587139D01*
X73672219Y-114587139D01*
X73679286Y-114594206D01*
X73679285Y-114594206D01*
X73679288Y-114594208D01*
X83222860Y-124137781D01*
X83222861Y-124137782D01*
X83305298Y-124220219D01*
X83362219Y-124277140D01*
X83526079Y-124386628D01*
X83526092Y-124386635D01*
X83622654Y-124426632D01*
X83622655Y-124426632D01*
X83708164Y-124462051D01*
X83901454Y-124500499D01*
X83901457Y-124500500D01*
X83901459Y-124500500D01*
X94131237Y-124500500D01*
X94198276Y-124520185D01*
X94228181Y-124547185D01*
X94349949Y-124699876D01*
X94349954Y-124699882D01*
X94370669Y-124719103D01*
X94406422Y-124779132D01*
X94404046Y-124848961D01*
X94370669Y-124900897D01*
X94349954Y-124920117D01*
X94191041Y-125119388D01*
X94063608Y-125340109D01*
X93970492Y-125577362D01*
X93970490Y-125577369D01*
X93913777Y-125825845D01*
X93894732Y-126079995D01*
X93894732Y-126080004D01*
X93913777Y-126334154D01*
X93957584Y-126526086D01*
X93970492Y-126582637D01*
X94063607Y-126819888D01*
X94191041Y-127040612D01*
X94340227Y-127227685D01*
X94349954Y-127239882D01*
X94370669Y-127259103D01*
X94406422Y-127319132D01*
X94404046Y-127388961D01*
X94370669Y-127440897D01*
X94349954Y-127460117D01*
X94191041Y-127659388D01*
X94063608Y-127880109D01*
X94063606Y-127880113D01*
X94040188Y-127939781D01*
X93997371Y-127994995D01*
X93931501Y-128018295D01*
X93863491Y-128002284D01*
X93837079Y-127982159D01*
X91721479Y-125866559D01*
X91721459Y-125866537D01*
X91577785Y-125722863D01*
X91577781Y-125722860D01*
X91413920Y-125613371D01*
X91413911Y-125613366D01*
X91326991Y-125577363D01*
X91285165Y-125560038D01*
X91258500Y-125548993D01*
X91231837Y-125537949D01*
X91231833Y-125537948D01*
X91123572Y-125516414D01*
X91038543Y-125499500D01*
X91038541Y-125499500D01*
X75354675Y-125499500D01*
X75354655Y-125499499D01*
X75348541Y-125499499D01*
X75151460Y-125499499D01*
X75151457Y-125499499D01*
X74958172Y-125537946D01*
X74958164Y-125537948D01*
X74776088Y-125613366D01*
X74776079Y-125613371D01*
X74612219Y-125722859D01*
X74612215Y-125722862D01*
X59809128Y-140525950D01*
X59747805Y-140559435D01*
X59702966Y-140560884D01*
X59627442Y-140549500D01*
X59627435Y-140549500D01*
X59372565Y-140549500D01*
X59372559Y-140549500D01*
X59215609Y-140573157D01*
X59120542Y-140587487D01*
X59120539Y-140587488D01*
X59120533Y-140587489D01*
X58876992Y-140662612D01*
X58647373Y-140773190D01*
X58647372Y-140773191D01*
X58436782Y-140916768D01*
X58249952Y-141090121D01*
X58249950Y-141090123D01*
X58091041Y-141289388D01*
X57963608Y-141510109D01*
X57870492Y-141747362D01*
X57870490Y-141747369D01*
X57813777Y-141995845D01*
X57794732Y-142249995D01*
X57794732Y-142250004D01*
X57813777Y-142504154D01*
X57858505Y-142700121D01*
X57870492Y-142752637D01*
X57963607Y-142989888D01*
X58091041Y-143210612D01*
X58249950Y-143409877D01*
X58436783Y-143583232D01*
X58647366Y-143726805D01*
X58647371Y-143726807D01*
X58647372Y-143726808D01*
X58647373Y-143726809D01*
X58769328Y-143785538D01*
X58876992Y-143837387D01*
X58876993Y-143837387D01*
X58876996Y-143837389D01*
X59120542Y-143912513D01*
X59372565Y-143950500D01*
X59627435Y-143950500D01*
X59879458Y-143912513D01*
X60123004Y-143837389D01*
X60352634Y-143726805D01*
X60563217Y-143583232D01*
X60750050Y-143409877D01*
X60908959Y-143210612D01*
X61036393Y-142989888D01*
X61129508Y-142752637D01*
X61186222Y-142504157D01*
X61205268Y-142250000D01*
X61205268Y-142249995D01*
X63044732Y-142249995D01*
X63044732Y-142250004D01*
X63063777Y-142504154D01*
X63108505Y-142700121D01*
X63120492Y-142752637D01*
X63213607Y-142989888D01*
X63341041Y-143210612D01*
X63499950Y-143409877D01*
X63686783Y-143583232D01*
X63897366Y-143726805D01*
X63897371Y-143726807D01*
X63897372Y-143726808D01*
X63897373Y-143726809D01*
X64019328Y-143785538D01*
X64126992Y-143837387D01*
X64126993Y-143837387D01*
X64126996Y-143837389D01*
X64370542Y-143912513D01*
X64622565Y-143950500D01*
X64877435Y-143950500D01*
X65129458Y-143912513D01*
X65373004Y-143837389D01*
X65602634Y-143726805D01*
X65813217Y-143583232D01*
X66000050Y-143409877D01*
X66158959Y-143210612D01*
X66286393Y-142989888D01*
X66379508Y-142752637D01*
X66436222Y-142504157D01*
X66455268Y-142250000D01*
X66436222Y-141995843D01*
X66379508Y-141747363D01*
X66286393Y-141510112D01*
X66158959Y-141289388D01*
X66000050Y-141090123D01*
X65813217Y-140916768D01*
X65602634Y-140773195D01*
X65602630Y-140773193D01*
X65602627Y-140773191D01*
X65602626Y-140773190D01*
X65373006Y-140662612D01*
X65373008Y-140662612D01*
X65129466Y-140587489D01*
X65129462Y-140587488D01*
X65129458Y-140587487D01*
X65008231Y-140569214D01*
X64877440Y-140549500D01*
X64877435Y-140549500D01*
X64622565Y-140549500D01*
X64622559Y-140549500D01*
X64465609Y-140573157D01*
X64370542Y-140587487D01*
X64370539Y-140587488D01*
X64370533Y-140587489D01*
X64126992Y-140662612D01*
X63897373Y-140773190D01*
X63897372Y-140773191D01*
X63686782Y-140916768D01*
X63499952Y-141090121D01*
X63499950Y-141090123D01*
X63341041Y-141289388D01*
X63213608Y-141510109D01*
X63120492Y-141747362D01*
X63120490Y-141747369D01*
X63063777Y-141995845D01*
X63044732Y-142249995D01*
X61205268Y-142249995D01*
X61189277Y-142036615D01*
X61203896Y-141968294D01*
X61225246Y-141939672D01*
X75628102Y-127536819D01*
X75689425Y-127503334D01*
X75715783Y-127500500D01*
X90474218Y-127500500D01*
X90541257Y-127520185D01*
X90561899Y-127536819D01*
X93312899Y-130287819D01*
X93346384Y-130349142D01*
X93341400Y-130418834D01*
X93299528Y-130474767D01*
X93234064Y-130499184D01*
X93225218Y-130499500D01*
X79901455Y-130499500D01*
X79804812Y-130518724D01*
X79708167Y-130537947D01*
X79708161Y-130537949D01*
X79654834Y-130560037D01*
X79654834Y-130560038D01*
X79609315Y-130578892D01*
X79526089Y-130613366D01*
X79526079Y-130613371D01*
X79362219Y-130722859D01*
X79292540Y-130792538D01*
X79222861Y-130862218D01*
X79222858Y-130862221D01*
X69559128Y-140525950D01*
X69497805Y-140559435D01*
X69452966Y-140560884D01*
X69377442Y-140549500D01*
X69377435Y-140549500D01*
X69122565Y-140549500D01*
X69122559Y-140549500D01*
X68965609Y-140573157D01*
X68870542Y-140587487D01*
X68870539Y-140587488D01*
X68870533Y-140587489D01*
X68626992Y-140662612D01*
X68397373Y-140773190D01*
X68397372Y-140773191D01*
X68186782Y-140916768D01*
X67999952Y-141090121D01*
X67999950Y-141090123D01*
X67841041Y-141289388D01*
X67713608Y-141510109D01*
X67620492Y-141747362D01*
X67620490Y-141747369D01*
X67563777Y-141995845D01*
X67544732Y-142249995D01*
X67544732Y-142250004D01*
X67563777Y-142504154D01*
X67608505Y-142700121D01*
X67620492Y-142752637D01*
X67713607Y-142989888D01*
X67841041Y-143210612D01*
X67999950Y-143409877D01*
X68186783Y-143583232D01*
X68397366Y-143726805D01*
X68397371Y-143726807D01*
X68397372Y-143726808D01*
X68397373Y-143726809D01*
X68519328Y-143785538D01*
X68626992Y-143837387D01*
X68626993Y-143837387D01*
X68626996Y-143837389D01*
X68870542Y-143912513D01*
X69122565Y-143950500D01*
X69377435Y-143950500D01*
X69629458Y-143912513D01*
X69873004Y-143837389D01*
X70102634Y-143726805D01*
X70313217Y-143583232D01*
X70500050Y-143409877D01*
X70658959Y-143210612D01*
X70786393Y-142989888D01*
X70879508Y-142752637D01*
X70936222Y-142504157D01*
X70955268Y-142250000D01*
X70955268Y-142249995D01*
X73294732Y-142249995D01*
X73294732Y-142250004D01*
X73313777Y-142504154D01*
X73358505Y-142700121D01*
X73370492Y-142752637D01*
X73463607Y-142989888D01*
X73591041Y-143210612D01*
X73749950Y-143409877D01*
X73936783Y-143583232D01*
X74147366Y-143726805D01*
X74147371Y-143726807D01*
X74147372Y-143726808D01*
X74147373Y-143726809D01*
X74269328Y-143785538D01*
X74376992Y-143837387D01*
X74376993Y-143837387D01*
X74376996Y-143837389D01*
X74620542Y-143912513D01*
X74872565Y-143950500D01*
X75127435Y-143950500D01*
X75379458Y-143912513D01*
X75623004Y-143837389D01*
X75852634Y-143726805D01*
X76063217Y-143583232D01*
X76250050Y-143409877D01*
X76408959Y-143210612D01*
X76536393Y-142989888D01*
X76629508Y-142752637D01*
X76686222Y-142504157D01*
X76705268Y-142250000D01*
X76686222Y-141995843D01*
X76629508Y-141747363D01*
X76536393Y-141510112D01*
X76408959Y-141289388D01*
X76250050Y-141090123D01*
X76063217Y-140916768D01*
X75852634Y-140773195D01*
X75852630Y-140773193D01*
X75852627Y-140773191D01*
X75852626Y-140773190D01*
X75623006Y-140662612D01*
X75623008Y-140662612D01*
X75379466Y-140587489D01*
X75379462Y-140587488D01*
X75379458Y-140587487D01*
X75258231Y-140569214D01*
X75127440Y-140549500D01*
X75127435Y-140549500D01*
X74872565Y-140549500D01*
X74872559Y-140549500D01*
X74715609Y-140573157D01*
X74620542Y-140587487D01*
X74620539Y-140587488D01*
X74620533Y-140587489D01*
X74376992Y-140662612D01*
X74147373Y-140773190D01*
X74147372Y-140773191D01*
X73936782Y-140916768D01*
X73749952Y-141090121D01*
X73749950Y-141090123D01*
X73591041Y-141289388D01*
X73463608Y-141510109D01*
X73370492Y-141747362D01*
X73370490Y-141747369D01*
X73313777Y-141995845D01*
X73294732Y-142249995D01*
X70955268Y-142249995D01*
X70939277Y-142036615D01*
X70953896Y-141968294D01*
X70975246Y-141939672D01*
X80378101Y-132536819D01*
X80439424Y-132503334D01*
X80465782Y-132500500D01*
X92934218Y-132500500D01*
X93001257Y-132520185D01*
X93021899Y-132536819D01*
X93874749Y-133389669D01*
X93908234Y-133450992D01*
X93910721Y-133486616D01*
X93894732Y-133699995D01*
X93894732Y-133700004D01*
X93913777Y-133954154D01*
X93913778Y-133954157D01*
X93970492Y-134202637D01*
X94063607Y-134439888D01*
X94191041Y-134660612D01*
X94349949Y-134859876D01*
X94349954Y-134859882D01*
X94370669Y-134879103D01*
X94406422Y-134939132D01*
X94404046Y-135008961D01*
X94370669Y-135060897D01*
X94349954Y-135080117D01*
X94260083Y-135192813D01*
X94202894Y-135232953D01*
X94163136Y-135239500D01*
X85614675Y-135239500D01*
X85614655Y-135239499D01*
X85608541Y-135239499D01*
X85411460Y-135239499D01*
X85411457Y-135239499D01*
X85218172Y-135277946D01*
X85218164Y-135277948D01*
X85036088Y-135353366D01*
X85036079Y-135353371D01*
X84872219Y-135462859D01*
X84872215Y-135462862D01*
X79809128Y-140525950D01*
X79747805Y-140559435D01*
X79702966Y-140560884D01*
X79627442Y-140549500D01*
X79627435Y-140549500D01*
X79372565Y-140549500D01*
X79372559Y-140549500D01*
X79215609Y-140573157D01*
X79120542Y-140587487D01*
X79120539Y-140587488D01*
X79120533Y-140587489D01*
X78876992Y-140662612D01*
X78647373Y-140773190D01*
X78647372Y-140773191D01*
X78436782Y-140916768D01*
X78249952Y-141090121D01*
X78249950Y-141090123D01*
X78091041Y-141289388D01*
X77963608Y-141510109D01*
X77870492Y-141747362D01*
X77870490Y-141747369D01*
X77813777Y-141995845D01*
X77794732Y-142249995D01*
X77794732Y-142250004D01*
X77813777Y-142504154D01*
X77858505Y-142700121D01*
X77870492Y-142752637D01*
X77963607Y-142989888D01*
X78091041Y-143210612D01*
X78249950Y-143409877D01*
X78436783Y-143583232D01*
X78647366Y-143726805D01*
X78647371Y-143726807D01*
X78647372Y-143726808D01*
X78647373Y-143726809D01*
X78769328Y-143785538D01*
X78876992Y-143837387D01*
X78876993Y-143837387D01*
X78876996Y-143837389D01*
X79120542Y-143912513D01*
X79372565Y-143950500D01*
X79627435Y-143950500D01*
X79879458Y-143912513D01*
X80123004Y-143837389D01*
X80352634Y-143726805D01*
X80563217Y-143583232D01*
X80750050Y-143409877D01*
X80908959Y-143210612D01*
X81036393Y-142989888D01*
X81129508Y-142752637D01*
X81186222Y-142504157D01*
X81205268Y-142250000D01*
X81205268Y-142249995D01*
X83544732Y-142249995D01*
X83544732Y-142250004D01*
X83563777Y-142504154D01*
X83608505Y-142700121D01*
X83620492Y-142752637D01*
X83713607Y-142989888D01*
X83841041Y-143210612D01*
X83999950Y-143409877D01*
X84186783Y-143583232D01*
X84397366Y-143726805D01*
X84397371Y-143726807D01*
X84397372Y-143726808D01*
X84397373Y-143726809D01*
X84519328Y-143785538D01*
X84626992Y-143837387D01*
X84626993Y-143837387D01*
X84626996Y-143837389D01*
X84870542Y-143912513D01*
X85122565Y-143950500D01*
X85377435Y-143950500D01*
X85629458Y-143912513D01*
X85873004Y-143837389D01*
X86102634Y-143726805D01*
X86313217Y-143583232D01*
X86500050Y-143409877D01*
X86658959Y-143210612D01*
X86786393Y-142989888D01*
X86879508Y-142752637D01*
X86936222Y-142504157D01*
X86955268Y-142250000D01*
X86936222Y-141995843D01*
X86879508Y-141747363D01*
X86786393Y-141510112D01*
X86658959Y-141289388D01*
X86500050Y-141090123D01*
X86313217Y-140916768D01*
X86102634Y-140773195D01*
X86102630Y-140773193D01*
X86102627Y-140773191D01*
X86102626Y-140773190D01*
X85873006Y-140662612D01*
X85873008Y-140662612D01*
X85629466Y-140587489D01*
X85629462Y-140587488D01*
X85629458Y-140587487D01*
X85508231Y-140569214D01*
X85377440Y-140549500D01*
X85377435Y-140549500D01*
X85122565Y-140549500D01*
X85122559Y-140549500D01*
X84965609Y-140573157D01*
X84870542Y-140587487D01*
X84870539Y-140587488D01*
X84870533Y-140587489D01*
X84626992Y-140662612D01*
X84397373Y-140773190D01*
X84397372Y-140773191D01*
X84186782Y-140916768D01*
X83999952Y-141090121D01*
X83999950Y-141090123D01*
X83841041Y-141289388D01*
X83713608Y-141510109D01*
X83620492Y-141747362D01*
X83620490Y-141747369D01*
X83563777Y-141995845D01*
X83544732Y-142249995D01*
X81205268Y-142249995D01*
X81189277Y-142036615D01*
X81203896Y-141968294D01*
X81225246Y-141939673D01*
X85888102Y-137276819D01*
X85949425Y-137243334D01*
X85975783Y-137240500D01*
X94163136Y-137240500D01*
X94230175Y-137260185D01*
X94260083Y-137287187D01*
X94349954Y-137399882D01*
X94370669Y-137419103D01*
X94406422Y-137479132D01*
X94404046Y-137548961D01*
X94370669Y-137600897D01*
X94349954Y-137620117D01*
X94260083Y-137732813D01*
X94202894Y-137772953D01*
X94163136Y-137779500D01*
X93121455Y-137779500D01*
X93024812Y-137798724D01*
X92928167Y-137817947D01*
X92928161Y-137817949D01*
X92874834Y-137840037D01*
X92874834Y-137840038D01*
X92829315Y-137858892D01*
X92746089Y-137893366D01*
X92746079Y-137893371D01*
X92582219Y-138002859D01*
X92544970Y-138040109D01*
X92442861Y-138142218D01*
X92442858Y-138142221D01*
X90059128Y-140525950D01*
X89997805Y-140559435D01*
X89952966Y-140560884D01*
X89877442Y-140549500D01*
X89877435Y-140549500D01*
X89622565Y-140549500D01*
X89622559Y-140549500D01*
X89465609Y-140573157D01*
X89370542Y-140587487D01*
X89370539Y-140587488D01*
X89370533Y-140587489D01*
X89126992Y-140662612D01*
X88897373Y-140773190D01*
X88897372Y-140773191D01*
X88686782Y-140916768D01*
X88499952Y-141090121D01*
X88499950Y-141090123D01*
X88341041Y-141289388D01*
X88213608Y-141510109D01*
X88120492Y-141747362D01*
X88120490Y-141747369D01*
X88063777Y-141995845D01*
X88044732Y-142249995D01*
X88044732Y-142250004D01*
X88063777Y-142504154D01*
X88108505Y-142700121D01*
X88120492Y-142752637D01*
X88213607Y-142989888D01*
X88341041Y-143210612D01*
X88499950Y-143409877D01*
X88686783Y-143583232D01*
X88897366Y-143726805D01*
X88897371Y-143726807D01*
X88897372Y-143726808D01*
X88897373Y-143726809D01*
X89019328Y-143785538D01*
X89126992Y-143837387D01*
X89126993Y-143837387D01*
X89126996Y-143837389D01*
X89370542Y-143912513D01*
X89622565Y-143950500D01*
X89877435Y-143950500D01*
X90129458Y-143912513D01*
X90373004Y-143837389D01*
X90602634Y-143726805D01*
X90813217Y-143583232D01*
X91000050Y-143409877D01*
X91158959Y-143210612D01*
X91286393Y-142989888D01*
X91379508Y-142752637D01*
X91436222Y-142504157D01*
X91455268Y-142250000D01*
X91439277Y-142036615D01*
X91453896Y-141968294D01*
X91475246Y-141939673D01*
X93598101Y-139816819D01*
X93659424Y-139783334D01*
X93685782Y-139780500D01*
X94163136Y-139780500D01*
X94230175Y-139800185D01*
X94260083Y-139827187D01*
X94349954Y-139939882D01*
X94370669Y-139959103D01*
X94406422Y-140019132D01*
X94404046Y-140088961D01*
X94370669Y-140140897D01*
X94349954Y-140160117D01*
X94191041Y-140359388D01*
X94063608Y-140580109D01*
X93970492Y-140817362D01*
X93970490Y-140817369D01*
X93913777Y-141065845D01*
X93894732Y-141319995D01*
X93894732Y-141320004D01*
X93913777Y-141574154D01*
X93953312Y-141747369D01*
X93970492Y-141822637D01*
X94063607Y-142059888D01*
X94191041Y-142280612D01*
X94349949Y-142479876D01*
X94349954Y-142479882D01*
X94370669Y-142499103D01*
X94406422Y-142559132D01*
X94404046Y-142628961D01*
X94370669Y-142680897D01*
X94349954Y-142700117D01*
X94191041Y-142899388D01*
X94063608Y-143120109D01*
X93970492Y-143357362D01*
X93970490Y-143357369D01*
X93913777Y-143605845D01*
X93894732Y-143859995D01*
X93894732Y-143860004D01*
X93913777Y-144114154D01*
X93913778Y-144114157D01*
X93970492Y-144362637D01*
X94063607Y-144599888D01*
X94191041Y-144820612D01*
X94349949Y-145019876D01*
X94349954Y-145019882D01*
X94370669Y-145039103D01*
X94406422Y-145099132D01*
X94404046Y-145168961D01*
X94370669Y-145220897D01*
X94349954Y-145240117D01*
X94191041Y-145439388D01*
X94063608Y-145660109D01*
X93970492Y-145897362D01*
X93970490Y-145897369D01*
X93913777Y-146145845D01*
X93894732Y-146399995D01*
X93894732Y-146400004D01*
X93913777Y-146654154D01*
X93913778Y-146654157D01*
X93970492Y-146902637D01*
X94063607Y-147139888D01*
X94191041Y-147360612D01*
X94349949Y-147559876D01*
X94349954Y-147559882D01*
X94370669Y-147579103D01*
X94406422Y-147639132D01*
X94404046Y-147708961D01*
X94370669Y-147760897D01*
X94349954Y-147780117D01*
X94191041Y-147979388D01*
X94063608Y-148200109D01*
X93970492Y-148437362D01*
X93970490Y-148437369D01*
X93913777Y-148685845D01*
X93894732Y-148939995D01*
X93894732Y-148940004D01*
X93913777Y-149194154D01*
X93927125Y-149252637D01*
X93970492Y-149442637D01*
X94063607Y-149679888D01*
X94191041Y-149900612D01*
X94349950Y-150099877D01*
X94536783Y-150273232D01*
X94747366Y-150416805D01*
X94747371Y-150416807D01*
X94747372Y-150416808D01*
X94747373Y-150416809D01*
X94788977Y-150436844D01*
X94976992Y-150527387D01*
X94976993Y-150527387D01*
X94976996Y-150527389D01*
X95170938Y-150587212D01*
X95183490Y-150591084D01*
X95241749Y-150629654D01*
X95269907Y-150693599D01*
X95259023Y-150762616D01*
X95212554Y-150814793D01*
X95208940Y-150816962D01*
X95045382Y-150911392D01*
X94863338Y-151051081D01*
X94701081Y-151213338D01*
X94561392Y-151395382D01*
X94446657Y-151594109D01*
X94446650Y-151594123D01*
X94358842Y-151806112D01*
X94299453Y-152027759D01*
X94299451Y-152027770D01*
X94269500Y-152255258D01*
X94269500Y-152484741D01*
X94286547Y-152614218D01*
X94299452Y-152712238D01*
X94299453Y-152712240D01*
X94358842Y-152933887D01*
X94446650Y-153145876D01*
X94446657Y-153145890D01*
X94561392Y-153344617D01*
X94701081Y-153526661D01*
X94701089Y-153526670D01*
X94863330Y-153688911D01*
X94863338Y-153688918D01*
X95045382Y-153828607D01*
X95045385Y-153828608D01*
X95045388Y-153828611D01*
X95244112Y-153943344D01*
X95244117Y-153943346D01*
X95244123Y-153943349D01*
X95335480Y-153981190D01*
X95456113Y-154031158D01*
X95677762Y-154090548D01*
X95905266Y-154120500D01*
X95905273Y-154120500D01*
X96134727Y-154120500D01*
X96134734Y-154120500D01*
X96362238Y-154090548D01*
X96583887Y-154031158D01*
X96795888Y-153943344D01*
X96994612Y-153828611D01*
X97176661Y-153688919D01*
X97176665Y-153688914D01*
X97176670Y-153688911D01*
X97338911Y-153526670D01*
X97338914Y-153526665D01*
X97338919Y-153526661D01*
X97478611Y-153344612D01*
X97593344Y-153145888D01*
X97681158Y-152933887D01*
X97740548Y-152712238D01*
X97770500Y-152484734D01*
X97770500Y-152255266D01*
X97740548Y-152027762D01*
X97681158Y-151806113D01*
X97593344Y-151594112D01*
X97478611Y-151395388D01*
X97478608Y-151395385D01*
X97478607Y-151395382D01*
X97338918Y-151213338D01*
X97338911Y-151213330D01*
X97176670Y-151051089D01*
X97176661Y-151051081D01*
X96994617Y-150911392D01*
X96795890Y-150796657D01*
X96795876Y-150796650D01*
X96583887Y-150708842D01*
X96580147Y-150707840D01*
X96432726Y-150668339D01*
X96373067Y-150631975D01*
X96342538Y-150569128D01*
X96350833Y-150499753D01*
X96395318Y-150445875D01*
X96411012Y-150436848D01*
X96452634Y-150416805D01*
X96663217Y-150273232D01*
X96850050Y-150099877D01*
X97008959Y-149900612D01*
X97136393Y-149679888D01*
X97229508Y-149442637D01*
X97286222Y-149194157D01*
X97300460Y-149004157D01*
X97305268Y-148940004D01*
X97305268Y-148939995D01*
X97286222Y-148685845D01*
X97242855Y-148495843D01*
X97229508Y-148437363D01*
X97136393Y-148200112D01*
X97008959Y-147979388D01*
X96850050Y-147780123D01*
X96829330Y-147760898D01*
X96793576Y-147700870D01*
X96795951Y-147631041D01*
X96829331Y-147579101D01*
X96850050Y-147559877D01*
X97008959Y-147360612D01*
X97136393Y-147139888D01*
X97229508Y-146902637D01*
X97286222Y-146654157D01*
X97305268Y-146400000D01*
X97286222Y-146145843D01*
X97229508Y-145897363D01*
X97136393Y-145660112D01*
X97008959Y-145439388D01*
X96850050Y-145240123D01*
X96829330Y-145220898D01*
X96793576Y-145160870D01*
X96795951Y-145091041D01*
X96829331Y-145039101D01*
X96850050Y-145019877D01*
X97008959Y-144820612D01*
X97136393Y-144599888D01*
X97229508Y-144362637D01*
X97286222Y-144114157D01*
X97305268Y-143860000D01*
X97303573Y-143837387D01*
X97286222Y-143605845D01*
X97241493Y-143409876D01*
X97229508Y-143357363D01*
X97136393Y-143120112D01*
X97008959Y-142899388D01*
X96850050Y-142700123D01*
X96829330Y-142680898D01*
X96793576Y-142620870D01*
X96795951Y-142551041D01*
X96829331Y-142499101D01*
X96850050Y-142479877D01*
X97008959Y-142280612D01*
X97136393Y-142059888D01*
X97229508Y-141822637D01*
X97286222Y-141574157D01*
X97305268Y-141320000D01*
X97286222Y-141065843D01*
X97229508Y-140817363D01*
X97136393Y-140580112D01*
X97008959Y-140359388D01*
X96850050Y-140160123D01*
X96829330Y-140140898D01*
X96793576Y-140080870D01*
X96795951Y-140011041D01*
X96829331Y-139959101D01*
X96850050Y-139939877D01*
X97008959Y-139740612D01*
X97136393Y-139519888D01*
X97229508Y-139282637D01*
X97286222Y-139034157D01*
X97305268Y-138780000D01*
X97286222Y-138525843D01*
X97229508Y-138277363D01*
X97136393Y-138040112D01*
X97008959Y-137819388D01*
X96850050Y-137620123D01*
X96829330Y-137600898D01*
X96793576Y-137540870D01*
X96795951Y-137471041D01*
X96829331Y-137419101D01*
X96834376Y-137414420D01*
X96850050Y-137399877D01*
X97008959Y-137200612D01*
X97136393Y-136979888D01*
X97229508Y-136742637D01*
X97286222Y-136494157D01*
X97303157Y-136268172D01*
X97305268Y-136240004D01*
X97305268Y-136239995D01*
X97286222Y-135985845D01*
X97229509Y-135737369D01*
X97229508Y-135737363D01*
X97136393Y-135500112D01*
X97008959Y-135279388D01*
X96850050Y-135080123D01*
X96829330Y-135060898D01*
X96793576Y-135000870D01*
X96795951Y-134931041D01*
X96829331Y-134879101D01*
X96850050Y-134859877D01*
X97008959Y-134660612D01*
X97136393Y-134439888D01*
X97229508Y-134202637D01*
X97286222Y-133954157D01*
X97305268Y-133700000D01*
X97286222Y-133445843D01*
X97229508Y-133197363D01*
X97136393Y-132960112D01*
X97008959Y-132739388D01*
X96850050Y-132540123D01*
X96829330Y-132520898D01*
X96793576Y-132460870D01*
X96795951Y-132391041D01*
X96829331Y-132339101D01*
X96850050Y-132319877D01*
X97008959Y-132120612D01*
X97136393Y-131899888D01*
X97229508Y-131662637D01*
X97286222Y-131414157D01*
X97305268Y-131160000D01*
X97286222Y-130905843D01*
X97229508Y-130657363D01*
X97136393Y-130420112D01*
X97008959Y-130199388D01*
X96850050Y-130000123D01*
X96829330Y-129980898D01*
X96793576Y-129920870D01*
X96795951Y-129851041D01*
X96829331Y-129799101D01*
X96850050Y-129779877D01*
X97008959Y-129580612D01*
X97136393Y-129359888D01*
X97229508Y-129122637D01*
X97286222Y-128874157D01*
X97305268Y-128620000D01*
X97286222Y-128365843D01*
X97229508Y-128117363D01*
X97136393Y-127880112D01*
X97008959Y-127659388D01*
X96850050Y-127460123D01*
X96829330Y-127440898D01*
X96793576Y-127380870D01*
X96795951Y-127311041D01*
X96829331Y-127259101D01*
X96850050Y-127239877D01*
X97008959Y-127040612D01*
X97136393Y-126819888D01*
X97229508Y-126582637D01*
X97286222Y-126334157D01*
X97305268Y-126080000D01*
X97286222Y-125825843D01*
X97229508Y-125577363D01*
X97136393Y-125340112D01*
X97008959Y-125119388D01*
X96850050Y-124920123D01*
X96829330Y-124900898D01*
X96793576Y-124840870D01*
X96795951Y-124771041D01*
X96829331Y-124719101D01*
X96850050Y-124699877D01*
X97008959Y-124500612D01*
X97136393Y-124279888D01*
X97229508Y-124042637D01*
X97286222Y-123794157D01*
X97305268Y-123540000D01*
X97286222Y-123285843D01*
X97229508Y-123037363D01*
X97136393Y-122800112D01*
X97008959Y-122579388D01*
X96850050Y-122380123D01*
X96829330Y-122360898D01*
X96793576Y-122300870D01*
X96795951Y-122231041D01*
X96829331Y-122179101D01*
X96850050Y-122159877D01*
X97008959Y-121960612D01*
X97136393Y-121739888D01*
X97229508Y-121502637D01*
X97286222Y-121254157D01*
X97305268Y-121000000D01*
X97286222Y-120745843D01*
X97229508Y-120497363D01*
X97136393Y-120260112D01*
X97008959Y-120039388D01*
X96850050Y-119840123D01*
X96829330Y-119820898D01*
X96793576Y-119760870D01*
X96795951Y-119691041D01*
X96829331Y-119639101D01*
X96850050Y-119619877D01*
X97008959Y-119420612D01*
X97136393Y-119199888D01*
X97229508Y-118962637D01*
X97286222Y-118714157D01*
X97305268Y-118460000D01*
X97286222Y-118205843D01*
X97229508Y-117957363D01*
X97136393Y-117720112D01*
X97008959Y-117499388D01*
X96850050Y-117300123D01*
X96663217Y-117126768D01*
X96452634Y-116983195D01*
X96452630Y-116983193D01*
X96452627Y-116983191D01*
X96452626Y-116983190D01*
X96223006Y-116872612D01*
X96223008Y-116872612D01*
X95979466Y-116797489D01*
X95979462Y-116797488D01*
X95979458Y-116797487D01*
X95858231Y-116779214D01*
X95727440Y-116759500D01*
X95727435Y-116759500D01*
X95472565Y-116759500D01*
X95472557Y-116759500D01*
X95397032Y-116770884D01*
X95327807Y-116761411D01*
X95290870Y-116735950D01*
X90878306Y-112323386D01*
X93899500Y-112323386D01*
X93899500Y-114436613D01*
X93905913Y-114507192D01*
X93956522Y-114669606D01*
X94044530Y-114815188D01*
X94164811Y-114935469D01*
X94164813Y-114935470D01*
X94164815Y-114935472D01*
X94310394Y-115023478D01*
X94472804Y-115074086D01*
X94543384Y-115080500D01*
X94543387Y-115080500D01*
X96656613Y-115080500D01*
X96656616Y-115080500D01*
X96727196Y-115074086D01*
X96889606Y-115023478D01*
X97035185Y-114935472D01*
X97155472Y-114815185D01*
X97243478Y-114669606D01*
X97294086Y-114507196D01*
X97300500Y-114436616D01*
X97300500Y-112323384D01*
X97294086Y-112252804D01*
X97243478Y-112090394D01*
X97155472Y-111944815D01*
X97155470Y-111944813D01*
X97155469Y-111944811D01*
X97035188Y-111824530D01*
X96889606Y-111736522D01*
X96727196Y-111685914D01*
X96727194Y-111685913D01*
X96727192Y-111685913D01*
X96677778Y-111681423D01*
X96656616Y-111679500D01*
X94543384Y-111679500D01*
X94524145Y-111681248D01*
X94472807Y-111685913D01*
X94310393Y-111736522D01*
X94164811Y-111824530D01*
X94044530Y-111944811D01*
X93956522Y-112090393D01*
X93905913Y-112252807D01*
X93899500Y-112323386D01*
X90878306Y-112323386D01*
X83860178Y-105305258D01*
X94269500Y-105305258D01*
X94269500Y-105534741D01*
X94294446Y-105724215D01*
X94299452Y-105762238D01*
X94299453Y-105762240D01*
X94358842Y-105983887D01*
X94446650Y-106195876D01*
X94446657Y-106195890D01*
X94561392Y-106394617D01*
X94701081Y-106576661D01*
X94701089Y-106576670D01*
X94863330Y-106738911D01*
X94863338Y-106738918D01*
X95045382Y-106878607D01*
X95045385Y-106878608D01*
X95045388Y-106878611D01*
X95244112Y-106993344D01*
X95244117Y-106993346D01*
X95244123Y-106993349D01*
X95335480Y-107031190D01*
X95456113Y-107081158D01*
X95677762Y-107140548D01*
X95905266Y-107170500D01*
X95905273Y-107170500D01*
X96134727Y-107170500D01*
X96134734Y-107170500D01*
X96362238Y-107140548D01*
X96583887Y-107081158D01*
X96795888Y-106993344D01*
X96994612Y-106878611D01*
X97176661Y-106738919D01*
X97176665Y-106738914D01*
X97176670Y-106738911D01*
X97338911Y-106576670D01*
X97338914Y-106576665D01*
X97338919Y-106576661D01*
X97478611Y-106394612D01*
X97593344Y-106195888D01*
X97681158Y-105983887D01*
X97740548Y-105762238D01*
X97770500Y-105534734D01*
X97770500Y-105305266D01*
X97740548Y-105077762D01*
X97681158Y-104856113D01*
X97593344Y-104644112D01*
X97478611Y-104445388D01*
X97478608Y-104445385D01*
X97478607Y-104445382D01*
X97338918Y-104263338D01*
X97338911Y-104263330D01*
X97176670Y-104101089D01*
X97176661Y-104101081D01*
X96994617Y-103961392D01*
X96795890Y-103846657D01*
X96795876Y-103846650D01*
X96583887Y-103758842D01*
X96362238Y-103699452D01*
X96324215Y-103694446D01*
X96134741Y-103669500D01*
X96134734Y-103669500D01*
X95905266Y-103669500D01*
X95905258Y-103669500D01*
X95688715Y-103698009D01*
X95677762Y-103699452D01*
X95584076Y-103724554D01*
X95456112Y-103758842D01*
X95244123Y-103846650D01*
X95244109Y-103846657D01*
X95045382Y-103961392D01*
X94863338Y-104101081D01*
X94701081Y-104263338D01*
X94561392Y-104445382D01*
X94446657Y-104644109D01*
X94446650Y-104644123D01*
X94358842Y-104856112D01*
X94299453Y-105077759D01*
X94299451Y-105077770D01*
X94269500Y-105305258D01*
X83860178Y-105305258D01*
X79421479Y-100866559D01*
X79421459Y-100866537D01*
X79277785Y-100722863D01*
X79277781Y-100722860D01*
X79113920Y-100613371D01*
X79113907Y-100613364D01*
X78974141Y-100555472D01*
X78974140Y-100555472D01*
X78931836Y-100537949D01*
X78931828Y-100537947D01*
X78835188Y-100518724D01*
X78738544Y-100499500D01*
X78738541Y-100499500D01*
X69775783Y-100499500D01*
X69708744Y-100479815D01*
X69688102Y-100463181D01*
X64849342Y-95624422D01*
X64815857Y-95563099D01*
X64813447Y-95526499D01*
X64815643Y-95500003D01*
X64815643Y-95499995D01*
X64795109Y-95252187D01*
X64795107Y-95252175D01*
X64734063Y-95011118D01*
X64634173Y-94783393D01*
X64498166Y-94575217D01*
X64464359Y-94538493D01*
X64329744Y-94392262D01*
X64133509Y-94239526D01*
X64133507Y-94239525D01*
X64133506Y-94239524D01*
X63914811Y-94121172D01*
X63914802Y-94121169D01*
X63679616Y-94040429D01*
X63434335Y-93999500D01*
X63185665Y-93999500D01*
X62940383Y-94040429D01*
X62705197Y-94121169D01*
X62705188Y-94121172D01*
X62486493Y-94239524D01*
X62290257Y-94392261D01*
X62121833Y-94575217D01*
X61985826Y-94783393D01*
X61885936Y-95011118D01*
X61824892Y-95252175D01*
X61824890Y-95252187D01*
X61804357Y-95499994D01*
X61804357Y-95500005D01*
X61824890Y-95747812D01*
X61824892Y-95747824D01*
X61885936Y-95988881D01*
X61985826Y-96216606D01*
X62121833Y-96424782D01*
X62121836Y-96424785D01*
X62290256Y-96607738D01*
X62486491Y-96760474D01*
X62705190Y-96878828D01*
X62940386Y-96959571D01*
X63185665Y-97000500D01*
X63344218Y-97000500D01*
X63411257Y-97020185D01*
X63431898Y-97036818D01*
X68532860Y-102137781D01*
X68532861Y-102137782D01*
X68672218Y-102277139D01*
X68836086Y-102386632D01*
X68887145Y-102407781D01*
X69018164Y-102462051D01*
X69211454Y-102500499D01*
X69211457Y-102500500D01*
X69211459Y-102500500D01*
X69408540Y-102500500D01*
X78174218Y-102500500D01*
X78241257Y-102520185D01*
X78261899Y-102536819D01*
X93874749Y-118149669D01*
X93908234Y-118210992D01*
X93910721Y-118246616D01*
X93894732Y-118459995D01*
X93894732Y-118460004D01*
X93913777Y-118714154D01*
X93913778Y-118714157D01*
X93970492Y-118962637D01*
X94063607Y-119199888D01*
X94191041Y-119420612D01*
X94267716Y-119516759D01*
X94349954Y-119619882D01*
X94370669Y-119639103D01*
X94406422Y-119699132D01*
X94404046Y-119768961D01*
X94370669Y-119820897D01*
X94349954Y-119840117D01*
X94260083Y-119952813D01*
X94202894Y-119992953D01*
X94163136Y-119999500D01*
X89965782Y-119999500D01*
X89898743Y-119979815D01*
X89878101Y-119963181D01*
X76281479Y-106366559D01*
X76281459Y-106366537D01*
X76137785Y-106222863D01*
X76137781Y-106222860D01*
X75973916Y-106113369D01*
X75973911Y-106113366D01*
X75901315Y-106083296D01*
X75845165Y-106060038D01*
X75791836Y-106037949D01*
X75791832Y-106037948D01*
X75791828Y-106037946D01*
X75695188Y-106018724D01*
X75598544Y-105999500D01*
X75598541Y-105999500D01*
X73368540Y-105999500D01*
X73171459Y-105999500D01*
X73171456Y-105999500D01*
X72978171Y-106037946D01*
X72978167Y-106037948D01*
X72978165Y-106037948D01*
X72978164Y-106037949D01*
X72902745Y-106069188D01*
X72902743Y-106069189D01*
X72796085Y-106113368D01*
X72796085Y-106113369D01*
X72796084Y-106113369D01*
X72632222Y-106222857D01*
X72632214Y-106222863D01*
X71845899Y-107009181D01*
X71784576Y-107042666D01*
X71758218Y-107045500D01*
X71649477Y-107045500D01*
X71590037Y-107055418D01*
X71411715Y-107085175D01*
X71183739Y-107163440D01*
X71183725Y-107163446D01*
X70971742Y-107278164D01*
X70971733Y-107278170D01*
X70781524Y-107426216D01*
X70781520Y-107426219D01*
X70618262Y-107603564D01*
X70618259Y-107603568D01*
X70603808Y-107625688D01*
X70550662Y-107671045D01*
X70481430Y-107680468D01*
X70418095Y-107650966D01*
X70396192Y-107625688D01*
X70381740Y-107603568D01*
X70381739Y-107603566D01*
X70218482Y-107426222D01*
X70218481Y-107426221D01*
X70218479Y-107426219D01*
X70218475Y-107426216D01*
X70028266Y-107278170D01*
X70028257Y-107278164D01*
X69816274Y-107163446D01*
X69816271Y-107163445D01*
X69816268Y-107163443D01*
X69816262Y-107163441D01*
X69816260Y-107163440D01*
X69588284Y-107085175D01*
X69429776Y-107058725D01*
X69350523Y-107045500D01*
X69109477Y-107045500D01*
X69050037Y-107055418D01*
X68871715Y-107085175D01*
X68643739Y-107163440D01*
X68643725Y-107163446D01*
X68431742Y-107278164D01*
X68431733Y-107278170D01*
X68241524Y-107426216D01*
X68241520Y-107426219D01*
X68078262Y-107603564D01*
X68078259Y-107603568D01*
X67946421Y-107805360D01*
X67849595Y-108026101D01*
X67849593Y-108026107D01*
X67804891Y-108202627D01*
X67772367Y-108259867D01*
X57269055Y-118763181D01*
X57207732Y-118796666D01*
X57181374Y-118799500D01*
X51048626Y-118799500D01*
X50981587Y-118779815D01*
X50960945Y-118763181D01*
X47282076Y-115084312D01*
X47282074Y-115084310D01*
X47129199Y-114973240D01*
X47117712Y-114967387D01*
X46960836Y-114887454D01*
X46781118Y-114829059D01*
X46594486Y-114799500D01*
X46594481Y-114799500D01*
X39548626Y-114799500D01*
X39481587Y-114779815D01*
X39460945Y-114763181D01*
X38076819Y-113379055D01*
X38043334Y-113317732D01*
X38040500Y-113291374D01*
X38040500Y-113018841D01*
X38060185Y-112951802D01*
X38112989Y-112906047D01*
X38153277Y-112895350D01*
X38167196Y-112894086D01*
X38329606Y-112843478D01*
X38475185Y-112755472D01*
X38595472Y-112635185D01*
X38683478Y-112489606D01*
X38734086Y-112327196D01*
X38740500Y-112256616D01*
X38740500Y-110848626D01*
X38760185Y-110781587D01*
X38776819Y-110760945D01*
X38906930Y-110630834D01*
X39115690Y-110422074D01*
X39226760Y-110269199D01*
X39312547Y-110100832D01*
X39370940Y-109921118D01*
X39390202Y-109799500D01*
X39400500Y-109734481D01*
X39400500Y-100762485D01*
X39420185Y-100695446D01*
X39472989Y-100649691D01*
X39487609Y-100644100D01*
X39489606Y-100643478D01*
X39635185Y-100555472D01*
X39755472Y-100435185D01*
X39843478Y-100289606D01*
X39894086Y-100127196D01*
X39900500Y-100056616D01*
X39900500Y-99048626D01*
X39914780Y-98999995D01*
X44094732Y-98999995D01*
X44094732Y-99000004D01*
X44113777Y-99254154D01*
X44113778Y-99254157D01*
X44170492Y-99502637D01*
X44263607Y-99739888D01*
X44391041Y-99960612D01*
X44549950Y-100159877D01*
X44736783Y-100333232D01*
X44947366Y-100476805D01*
X44947371Y-100476807D01*
X44947372Y-100476808D01*
X44947373Y-100476809D01*
X45069328Y-100535538D01*
X45176992Y-100587387D01*
X45176993Y-100587387D01*
X45176996Y-100587389D01*
X45420542Y-100662513D01*
X45672565Y-100700500D01*
X45927435Y-100700500D01*
X46179458Y-100662513D01*
X46423004Y-100587389D01*
X46652634Y-100476805D01*
X46863217Y-100333232D01*
X47050050Y-100159877D01*
X47050062Y-100159861D01*
X47053204Y-100156477D01*
X47053946Y-100157165D01*
X47107191Y-100119788D01*
X47177002Y-100116934D01*
X47234638Y-100149558D01*
X50759735Y-103674655D01*
X50759764Y-103674686D01*
X50902214Y-103817136D01*
X50902218Y-103817139D01*
X51066079Y-103926628D01*
X51066092Y-103926635D01*
X51194833Y-103979961D01*
X51237744Y-103997735D01*
X51248164Y-104002051D01*
X51344812Y-104021275D01*
X51393135Y-104030887D01*
X51441458Y-104040500D01*
X51441459Y-104040500D01*
X51441460Y-104040500D01*
X51638540Y-104040500D01*
X52245218Y-104040500D01*
X52312257Y-104060185D01*
X52358012Y-104112989D01*
X52367956Y-104182147D01*
X52338931Y-104245703D01*
X52332899Y-104252181D01*
X47483205Y-109101873D01*
X47421882Y-109135358D01*
X47369166Y-109135358D01*
X47271167Y-109114040D01*
X47271160Y-109114039D01*
X47000001Y-109094645D01*
X46999999Y-109094645D01*
X46728839Y-109114039D01*
X46728832Y-109114040D01*
X46463206Y-109171823D01*
X46463202Y-109171824D01*
X46463199Y-109171825D01*
X46402033Y-109194639D01*
X46208480Y-109266830D01*
X45969892Y-109397109D01*
X45969891Y-109397110D01*
X45752259Y-109560028D01*
X45752247Y-109560038D01*
X45560038Y-109752247D01*
X45560028Y-109752259D01*
X45397110Y-109969891D01*
X45397109Y-109969892D01*
X45266830Y-110208480D01*
X45219326Y-110335843D01*
X45171825Y-110463199D01*
X45171824Y-110463202D01*
X45171823Y-110463206D01*
X45114040Y-110728832D01*
X45114039Y-110728839D01*
X45094645Y-110999998D01*
X45094645Y-111000001D01*
X45114039Y-111271160D01*
X45114040Y-111271167D01*
X45171823Y-111536793D01*
X45171825Y-111536801D01*
X45239218Y-111717487D01*
X45266830Y-111791519D01*
X45397109Y-112030107D01*
X45397110Y-112030108D01*
X45397113Y-112030113D01*
X45560029Y-112247742D01*
X45560033Y-112247746D01*
X45560038Y-112247752D01*
X45752247Y-112439961D01*
X45752253Y-112439966D01*
X45752258Y-112439971D01*
X45969887Y-112602887D01*
X45969891Y-112602889D01*
X45969892Y-112602890D01*
X46208481Y-112733169D01*
X46208480Y-112733169D01*
X46208484Y-112733170D01*
X46208487Y-112733172D01*
X46463199Y-112828175D01*
X46728840Y-112885961D01*
X46980605Y-112903967D01*
X46999999Y-112905355D01*
X47000000Y-112905355D01*
X47000001Y-112905355D01*
X47018100Y-112904060D01*
X47271160Y-112885961D01*
X47536801Y-112828175D01*
X47791513Y-112733172D01*
X47791517Y-112733169D01*
X47791519Y-112733169D01*
X47970963Y-112635185D01*
X48030113Y-112602887D01*
X48247742Y-112439971D01*
X48439971Y-112247742D01*
X48602887Y-112030113D01*
X48672192Y-111903190D01*
X48733169Y-111791519D01*
X48733169Y-111791517D01*
X48733172Y-111791513D01*
X48828175Y-111536801D01*
X48885961Y-111271160D01*
X48905355Y-111000000D01*
X48885961Y-110728840D01*
X48864640Y-110630830D01*
X48869624Y-110561142D01*
X48898123Y-110516795D01*
X54137778Y-105277141D01*
X54137782Y-105277139D01*
X54277139Y-105137782D01*
X54386632Y-104973914D01*
X54462051Y-104791835D01*
X54491433Y-104644123D01*
X54500500Y-104598543D01*
X54500500Y-104000758D01*
X54520185Y-103933719D01*
X54536819Y-103913077D01*
X54538495Y-103911401D01*
X54674035Y-103717830D01*
X54773903Y-103503663D01*
X54835063Y-103275408D01*
X54839698Y-103222417D01*
X54865149Y-103157351D01*
X54921740Y-103116372D01*
X54952414Y-103109699D01*
X55005408Y-103105063D01*
X55233663Y-103043903D01*
X55447830Y-102944035D01*
X55641401Y-102808495D01*
X55808495Y-102641401D01*
X55944035Y-102447830D01*
X56043903Y-102233663D01*
X56105063Y-102005408D01*
X56116043Y-101879901D01*
X56141495Y-101814834D01*
X56151874Y-101803045D01*
X56467139Y-101487782D01*
X56504129Y-101432421D01*
X56576631Y-101323916D01*
X56576635Y-101323908D01*
X56612707Y-101236819D01*
X56627751Y-101200500D01*
X56652051Y-101141836D01*
X56690500Y-100948541D01*
X56690500Y-100751460D01*
X56690500Y-96677027D01*
X56710185Y-96609988D01*
X56723265Y-96593049D01*
X56878164Y-96424785D01*
X57014173Y-96216607D01*
X57114063Y-95988881D01*
X57175108Y-95747821D01*
X57183926Y-95641402D01*
X57195643Y-95500005D01*
X57195643Y-95499994D01*
X57175109Y-95252187D01*
X57175107Y-95252175D01*
X57114063Y-95011118D01*
X57014173Y-94783393D01*
X56878166Y-94575217D01*
X56844359Y-94538493D01*
X56709744Y-94392262D01*
X56513509Y-94239526D01*
X56513507Y-94239525D01*
X56513506Y-94239524D01*
X56294811Y-94121172D01*
X56294802Y-94121169D01*
X56059616Y-94040429D01*
X55814335Y-93999500D01*
X55565665Y-93999500D01*
X55320383Y-94040429D01*
X55085197Y-94121169D01*
X55085188Y-94121172D01*
X54866493Y-94239524D01*
X54670257Y-94392261D01*
X54501833Y-94575217D01*
X54365826Y-94783393D01*
X54265936Y-95011118D01*
X54204892Y-95252175D01*
X54204890Y-95252187D01*
X54184357Y-95499994D01*
X54184357Y-95500005D01*
X54204890Y-95747812D01*
X54204892Y-95747824D01*
X54265936Y-95988881D01*
X54365826Y-96216606D01*
X54501833Y-96424782D01*
X54501836Y-96424785D01*
X54656730Y-96593045D01*
X54687652Y-96655698D01*
X54689500Y-96677027D01*
X54689500Y-100307759D01*
X54669815Y-100374798D01*
X54617011Y-100420553D01*
X54576309Y-100431286D01*
X54570626Y-100431784D01*
X54534595Y-100434936D01*
X54534586Y-100434938D01*
X54306344Y-100496094D01*
X54306335Y-100496098D01*
X54092171Y-100595964D01*
X54092169Y-100595965D01*
X53898597Y-100731505D01*
X53731505Y-100898597D01*
X53595965Y-101092169D01*
X53595964Y-101092171D01*
X53496098Y-101306335D01*
X53496094Y-101306344D01*
X53434938Y-101534586D01*
X53434936Y-101534595D01*
X53430300Y-101587582D01*
X53404846Y-101652650D01*
X53348254Y-101693628D01*
X53317582Y-101700300D01*
X53264595Y-101704936D01*
X53264586Y-101704938D01*
X53036344Y-101766094D01*
X53036335Y-101766098D01*
X52822171Y-101865964D01*
X52822169Y-101865965D01*
X52628597Y-102001505D01*
X52626922Y-102003181D01*
X52626000Y-102003684D01*
X52624449Y-102004986D01*
X52624187Y-102004674D01*
X52565599Y-102036666D01*
X52539241Y-102039500D01*
X52005782Y-102039500D01*
X51938743Y-102019815D01*
X51918101Y-102003181D01*
X48281479Y-98366559D01*
X48281459Y-98366537D01*
X48137785Y-98222863D01*
X48137781Y-98222860D01*
X47973920Y-98113371D01*
X47973911Y-98113366D01*
X47901315Y-98083296D01*
X47845165Y-98060038D01*
X47791836Y-98037949D01*
X47791832Y-98037948D01*
X47791828Y-98037946D01*
X47695188Y-98018724D01*
X47598544Y-97999500D01*
X47598541Y-97999500D01*
X47236864Y-97999500D01*
X47169825Y-97979815D01*
X47139917Y-97952813D01*
X47050050Y-97840123D01*
X46863217Y-97666768D01*
X46652634Y-97523195D01*
X46652630Y-97523193D01*
X46652627Y-97523191D01*
X46652626Y-97523190D01*
X46423006Y-97412612D01*
X46423008Y-97412612D01*
X46179466Y-97337489D01*
X46179462Y-97337488D01*
X46179458Y-97337487D01*
X46058231Y-97319214D01*
X45927440Y-97299500D01*
X45927435Y-97299500D01*
X45672565Y-97299500D01*
X45672559Y-97299500D01*
X45515609Y-97323157D01*
X45420542Y-97337487D01*
X45420539Y-97337488D01*
X45420533Y-97337489D01*
X45176992Y-97412612D01*
X44947373Y-97523190D01*
X44947372Y-97523191D01*
X44736782Y-97666768D01*
X44549952Y-97840121D01*
X44549950Y-97840123D01*
X44391041Y-98039388D01*
X44263608Y-98260109D01*
X44170492Y-98497362D01*
X44170490Y-98497369D01*
X44113777Y-98745845D01*
X44094732Y-98999995D01*
X39914780Y-98999995D01*
X39920185Y-98981587D01*
X39936819Y-98960945D01*
X47160945Y-91736819D01*
X47222268Y-91703334D01*
X47248626Y-91700500D01*
X75451374Y-91700500D01*
X75518413Y-91720185D01*
X75539055Y-91736819D01*
X80257929Y-96455693D01*
X80316618Y-96498332D01*
X80355746Y-96526760D01*
X80410801Y-96566760D01*
X80490347Y-96607290D01*
X80579163Y-96652545D01*
X80579165Y-96652545D01*
X80579168Y-96652547D01*
X80654509Y-96677027D01*
X80758881Y-96710940D01*
X80945514Y-96740500D01*
X80945519Y-96740500D01*
X83589350Y-96740500D01*
X83656389Y-96760185D01*
X83692451Y-96795608D01*
X83748057Y-96878828D01*
X83750481Y-96882455D01*
X83940672Y-97099327D01*
X84157547Y-97289521D01*
X84341765Y-97412611D01*
X84397389Y-97449778D01*
X84656098Y-97577359D01*
X84929247Y-97670081D01*
X85212161Y-97726356D01*
X85500000Y-97745222D01*
X85787839Y-97726356D01*
X86070753Y-97670081D01*
X86343902Y-97577359D01*
X86602611Y-97449778D01*
X86842454Y-97289520D01*
X87059327Y-97099327D01*
X87249520Y-96882454D01*
X87334275Y-96755608D01*
X87387887Y-96710804D01*
X87437377Y-96700500D01*
X90094486Y-96700500D01*
X90281118Y-96670940D01*
X90460832Y-96612547D01*
X90629199Y-96526760D01*
X90782074Y-96415690D01*
X90960945Y-96236819D01*
X91022268Y-96203334D01*
X91048626Y-96200500D01*
X93556866Y-96200500D01*
X93623905Y-96220185D01*
X93633028Y-96226646D01*
X93646099Y-96236819D01*
X93676491Y-96260474D01*
X93895190Y-96378828D01*
X94130386Y-96459571D01*
X94375665Y-96500500D01*
X94624335Y-96500500D01*
X94869614Y-96459571D01*
X95104810Y-96378828D01*
X95323509Y-96260474D01*
X95355584Y-96235508D01*
X95366972Y-96226646D01*
X95431967Y-96201004D01*
X95443134Y-96200500D01*
X96451374Y-96200500D01*
X96518413Y-96220185D01*
X96539055Y-96236819D01*
X101217927Y-100915690D01*
X101370801Y-101026760D01*
X101450347Y-101067290D01*
X101539163Y-101112545D01*
X101539165Y-101112545D01*
X101539168Y-101112547D01*
X101629285Y-101141828D01*
X101718881Y-101170940D01*
X101905514Y-101200500D01*
X101905519Y-101200500D01*
X102094482Y-101200500D01*
X111451374Y-101200500D01*
X111518413Y-101220185D01*
X111539055Y-101236819D01*
X115263181Y-104960945D01*
X115296666Y-105022268D01*
X115299500Y-105048626D01*
X115299500Y-108974486D01*
X115329059Y-109161118D01*
X115387454Y-109340836D01*
X115473240Y-109509199D01*
X115584310Y-109662074D01*
X115584312Y-109662076D01*
X119261589Y-113339353D01*
X119295074Y-113400676D01*
X119297561Y-113417767D01*
X119313777Y-113634155D01*
X119370490Y-113882630D01*
X119370492Y-113882637D01*
X119463607Y-114119888D01*
X119591041Y-114340612D01*
X119749950Y-114539877D01*
X119936783Y-114713232D01*
X120147366Y-114856805D01*
X120147371Y-114856807D01*
X120147372Y-114856808D01*
X120147373Y-114856809D01*
X120211007Y-114887453D01*
X120376992Y-114967387D01*
X120376993Y-114967387D01*
X120376996Y-114967389D01*
X120620542Y-115042513D01*
X120872565Y-115080500D01*
X121127435Y-115080500D01*
X121379458Y-115042513D01*
X121623004Y-114967389D01*
X121852634Y-114856805D01*
X122063217Y-114713232D01*
X122250050Y-114539877D01*
X122408959Y-114340612D01*
X122536393Y-114119888D01*
X122629508Y-113882637D01*
X122686222Y-113634157D01*
X122705268Y-113380000D01*
X122705197Y-113379055D01*
X122686222Y-113125845D01*
X122652419Y-112977746D01*
X122629508Y-112877363D01*
X122536393Y-112640112D01*
X122408959Y-112419388D01*
X122250050Y-112220123D01*
X122063217Y-112046768D01*
X121852634Y-111903195D01*
X121852630Y-111903193D01*
X121852627Y-111903191D01*
X121852626Y-111903190D01*
X121623006Y-111792612D01*
X121623008Y-111792612D01*
X121379466Y-111717489D01*
X121379462Y-111717488D01*
X121379458Y-111717487D01*
X121258231Y-111699214D01*
X121127440Y-111679500D01*
X121127435Y-111679500D01*
X121048626Y-111679500D01*
X120981587Y-111659815D01*
X120960945Y-111643181D01*
X117736819Y-108419055D01*
X117703334Y-108357732D01*
X117700500Y-108331374D01*
X117700500Y-105305258D01*
X118779500Y-105305258D01*
X118779500Y-105534741D01*
X118804446Y-105724215D01*
X118809452Y-105762238D01*
X118809453Y-105762240D01*
X118868842Y-105983887D01*
X118956650Y-106195876D01*
X118956657Y-106195890D01*
X119071392Y-106394617D01*
X119211081Y-106576661D01*
X119211089Y-106576670D01*
X119373330Y-106738911D01*
X119373338Y-106738918D01*
X119555382Y-106878607D01*
X119555385Y-106878608D01*
X119555388Y-106878611D01*
X119754112Y-106993344D01*
X119754117Y-106993346D01*
X119754123Y-106993349D01*
X119845480Y-107031190D01*
X119966113Y-107081158D01*
X120187762Y-107140548D01*
X120415266Y-107170500D01*
X120415273Y-107170500D01*
X120644727Y-107170500D01*
X120644734Y-107170500D01*
X120872238Y-107140548D01*
X121093887Y-107081158D01*
X121305888Y-106993344D01*
X121504612Y-106878611D01*
X121686661Y-106738919D01*
X121686665Y-106738914D01*
X121686670Y-106738911D01*
X121848911Y-106576670D01*
X121848914Y-106576665D01*
X121848919Y-106576661D01*
X121988611Y-106394612D01*
X122103344Y-106195888D01*
X122191158Y-105983887D01*
X122250548Y-105762238D01*
X122280500Y-105534734D01*
X122280500Y-105305266D01*
X122250548Y-105077762D01*
X122191158Y-104856113D01*
X122103344Y-104644112D01*
X121988611Y-104445388D01*
X121988608Y-104445385D01*
X121988607Y-104445382D01*
X121848918Y-104263338D01*
X121848911Y-104263330D01*
X121686670Y-104101089D01*
X121686661Y-104101081D01*
X121504617Y-103961392D01*
X121305890Y-103846657D01*
X121305876Y-103846650D01*
X121093887Y-103758842D01*
X120872238Y-103699452D01*
X120834215Y-103694446D01*
X120644741Y-103669500D01*
X120644734Y-103669500D01*
X120415266Y-103669500D01*
X120415258Y-103669500D01*
X120198715Y-103698009D01*
X120187762Y-103699452D01*
X120094076Y-103724554D01*
X119966112Y-103758842D01*
X119754123Y-103846650D01*
X119754109Y-103846657D01*
X119555382Y-103961392D01*
X119373338Y-104101081D01*
X119211081Y-104263338D01*
X119071392Y-104445382D01*
X118956657Y-104644109D01*
X118956650Y-104644123D01*
X118868842Y-104856112D01*
X118809453Y-105077759D01*
X118809451Y-105077770D01*
X118779500Y-105305258D01*
X117700500Y-105305258D01*
X117700500Y-104405516D01*
X117698938Y-104395659D01*
X117698937Y-104395654D01*
X117670940Y-104218881D01*
X117619376Y-104060185D01*
X117612547Y-104039168D01*
X117612545Y-104039165D01*
X117612545Y-104039163D01*
X117555205Y-103926628D01*
X117526760Y-103870801D01*
X117415690Y-103717926D01*
X112782074Y-99084310D01*
X112629199Y-98973240D01*
X112605069Y-98960945D01*
X112460836Y-98887454D01*
X112281118Y-98829059D01*
X112094486Y-98799500D01*
X112094481Y-98799500D01*
X102548625Y-98799500D01*
X102481586Y-98779815D01*
X102460944Y-98763181D01*
X100122548Y-96424785D01*
X97782074Y-94084310D01*
X97629199Y-93973240D01*
X97610403Y-93963663D01*
X97460836Y-93887454D01*
X97281118Y-93829059D01*
X97094486Y-93799500D01*
X97094481Y-93799500D01*
X95443134Y-93799500D01*
X95376095Y-93779815D01*
X95366972Y-93773354D01*
X95323510Y-93739527D01*
X95323509Y-93739526D01*
X95223165Y-93685222D01*
X95104811Y-93621172D01*
X95104802Y-93621169D01*
X94869616Y-93540429D01*
X94624335Y-93499500D01*
X94375665Y-93499500D01*
X94130383Y-93540429D01*
X93895197Y-93621169D01*
X93895188Y-93621172D01*
X93676489Y-93739527D01*
X93633028Y-93773354D01*
X93568033Y-93798996D01*
X93556866Y-93799500D01*
X90405514Y-93799500D01*
X90218881Y-93829059D01*
X90039163Y-93887454D01*
X89870800Y-93973240D01*
X89860570Y-93980673D01*
X89717927Y-94084310D01*
X89717925Y-94084312D01*
X89717924Y-94084312D01*
X89539056Y-94263181D01*
X89477733Y-94296666D01*
X89451375Y-94299500D01*
X87383922Y-94299500D01*
X87316883Y-94279815D01*
X87280819Y-94244389D01*
X87277568Y-94239524D01*
X87271831Y-94230937D01*
X87249520Y-94197545D01*
X87059327Y-93980672D01*
X86842452Y-93790478D01*
X86602613Y-93630223D01*
X86602606Y-93630219D01*
X86343905Y-93502642D01*
X86070760Y-93409921D01*
X86070754Y-93409919D01*
X86070753Y-93409919D01*
X86070751Y-93409918D01*
X86070745Y-93409917D01*
X85787849Y-93353646D01*
X85787839Y-93353644D01*
X85500000Y-93334778D01*
X85212161Y-93353644D01*
X85212155Y-93353645D01*
X85212150Y-93353646D01*
X84929254Y-93409917D01*
X84929239Y-93409921D01*
X84656094Y-93502642D01*
X84397393Y-93630219D01*
X84397386Y-93630223D01*
X84157547Y-93790478D01*
X83940672Y-93980672D01*
X83750481Y-94197544D01*
X83750480Y-94197546D01*
X83695510Y-94279815D01*
X83692452Y-94284391D01*
X83638840Y-94329196D01*
X83589350Y-94339500D01*
X81588626Y-94339500D01*
X81521587Y-94319815D01*
X81500945Y-94303181D01*
X76782076Y-89584312D01*
X76782074Y-89584310D01*
X76629199Y-89473240D01*
X76460836Y-89387454D01*
X76281118Y-89329059D01*
X76094486Y-89299500D01*
X76094481Y-89299500D01*
X46794481Y-89299500D01*
X46605518Y-89299500D01*
X46605513Y-89299500D01*
X46418885Y-89329059D01*
X46239165Y-89387454D01*
X46070800Y-89473240D01*
X45917923Y-89584312D01*
X38239055Y-97263181D01*
X38177732Y-97296666D01*
X38151374Y-97299500D01*
X37143384Y-97299500D01*
X37124145Y-97301248D01*
X37072807Y-97305913D01*
X36910393Y-97356522D01*
X36764811Y-97444530D01*
X36644530Y-97564811D01*
X36556522Y-97710393D01*
X36505913Y-97872807D01*
X36499500Y-97943386D01*
X36499500Y-100056613D01*
X36505913Y-100127192D01*
X36505913Y-100127194D01*
X36505914Y-100127196D01*
X36556522Y-100289606D01*
X36644377Y-100434936D01*
X36644530Y-100435188D01*
X36764811Y-100555469D01*
X36764813Y-100555470D01*
X36764815Y-100555472D01*
X36910394Y-100643478D01*
X36912386Y-100644098D01*
X36913663Y-100644949D01*
X36917235Y-100646557D01*
X36916967Y-100647150D01*
X36970535Y-100682833D01*
X36998511Y-100746857D01*
X36999500Y-100762485D01*
X36999500Y-108975500D01*
X36979815Y-109042539D01*
X36927011Y-109088294D01*
X36875500Y-109099500D01*
X35583384Y-109099500D01*
X35564145Y-109101248D01*
X35512807Y-109105913D01*
X35350393Y-109156522D01*
X35204811Y-109244530D01*
X35084530Y-109364811D01*
X34996522Y-109510393D01*
X34945913Y-109672807D01*
X34939500Y-109743386D01*
X30500500Y-109743386D01*
X30500500Y-90624038D01*
X32149500Y-90624038D01*
X32149500Y-90875962D01*
X32175563Y-91040517D01*
X32188910Y-91124785D01*
X32266760Y-91364383D01*
X32381132Y-91588848D01*
X32529201Y-91792649D01*
X32529205Y-91792654D01*
X32707345Y-91970794D01*
X32707350Y-91970798D01*
X32770414Y-92016616D01*
X32911155Y-92118870D01*
X33001565Y-92164936D01*
X33135616Y-92233239D01*
X33135618Y-92233239D01*
X33135621Y-92233241D01*
X33375215Y-92311090D01*
X33624038Y-92350500D01*
X33624039Y-92350500D01*
X33875961Y-92350500D01*
X33875962Y-92350500D01*
X34124785Y-92311090D01*
X34364379Y-92233241D01*
X34588845Y-92118870D01*
X34792656Y-91970793D01*
X34970793Y-91792656D01*
X35118870Y-91588845D01*
X35233241Y-91364379D01*
X35311090Y-91124785D01*
X35350500Y-90875962D01*
X35350500Y-90624038D01*
X35311090Y-90375215D01*
X35233241Y-90135621D01*
X35233239Y-90135618D01*
X35233239Y-90135616D01*
X35191747Y-90054184D01*
X35118870Y-89911155D01*
X35099952Y-89885117D01*
X34970798Y-89707350D01*
X34970794Y-89707345D01*
X34792654Y-89529205D01*
X34792649Y-89529201D01*
X34588848Y-89381132D01*
X34588847Y-89381131D01*
X34588845Y-89381130D01*
X34486650Y-89329059D01*
X34364383Y-89266760D01*
X34124785Y-89188910D01*
X33875962Y-89149500D01*
X33624038Y-89149500D01*
X33499626Y-89169205D01*
X33375214Y-89188910D01*
X33135616Y-89266760D01*
X32911151Y-89381132D01*
X32707350Y-89529201D01*
X32707345Y-89529205D01*
X32529205Y-89707345D01*
X32529201Y-89707350D01*
X32381132Y-89911151D01*
X32266760Y-90135616D01*
X32188910Y-90375214D01*
X32188910Y-90375215D01*
X32149500Y-90624038D01*
X30500500Y-90624038D01*
X30500500Y-87624500D01*
X30520185Y-87557461D01*
X30572989Y-87511706D01*
X30624500Y-87500500D01*
X125557054Y-87500500D01*
X125624093Y-87520185D01*
G37*
%TD.AperFunction*%
%TD*%
M02*
