%TF.GenerationSoftware,KiCad,Pcbnew,8.0.4*%
%TF.CreationDate,2024-09-09T12:33:27-05:00*%
%TF.ProjectId,Sistema de riego,53697374-656d-4612-9064-652072696567,rev?*%
%TF.SameCoordinates,Original*%
%TF.FileFunction,Legend,Top*%
%TF.FilePolarity,Positive*%
%FSLAX46Y46*%
G04 Gerber Fmt 4.6, Leading zero omitted, Abs format (unit mm)*
G04 Created by KiCad (PCBNEW 8.0.4) date 2024-09-09 12:33:27*
%MOMM*%
%LPD*%
G01*
G04 APERTURE LIST*
%ADD10C,0.150000*%
%ADD11C,0.120000*%
%ADD12C,0.127000*%
%ADD13C,0.200000*%
G04 APERTURE END LIST*
D10*
X41129047Y-90041009D02*
X41271904Y-90088628D01*
X41271904Y-90088628D02*
X41319523Y-90136247D01*
X41319523Y-90136247D02*
X41367142Y-90231485D01*
X41367142Y-90231485D02*
X41367142Y-90374342D01*
X41367142Y-90374342D02*
X41319523Y-90469580D01*
X41319523Y-90469580D02*
X41271904Y-90517200D01*
X41271904Y-90517200D02*
X41176666Y-90564819D01*
X41176666Y-90564819D02*
X40795714Y-90564819D01*
X40795714Y-90564819D02*
X40795714Y-89564819D01*
X40795714Y-89564819D02*
X41129047Y-89564819D01*
X41129047Y-89564819D02*
X41224285Y-89612438D01*
X41224285Y-89612438D02*
X41271904Y-89660057D01*
X41271904Y-89660057D02*
X41319523Y-89755295D01*
X41319523Y-89755295D02*
X41319523Y-89850533D01*
X41319523Y-89850533D02*
X41271904Y-89945771D01*
X41271904Y-89945771D02*
X41224285Y-89993390D01*
X41224285Y-89993390D02*
X41129047Y-90041009D01*
X41129047Y-90041009D02*
X40795714Y-90041009D01*
X41700476Y-89564819D02*
X42367142Y-89564819D01*
X42367142Y-89564819D02*
X41700476Y-90564819D01*
X41700476Y-90564819D02*
X42367142Y-90564819D01*
X43271904Y-90564819D02*
X42700476Y-90564819D01*
X42986190Y-90564819D02*
X42986190Y-89564819D01*
X42986190Y-89564819D02*
X42890952Y-89707676D01*
X42890952Y-89707676D02*
X42795714Y-89802914D01*
X42795714Y-89802914D02*
X42700476Y-89850533D01*
X37809048Y-96533866D02*
X38570953Y-96533866D01*
X38190000Y-96914819D02*
X38190000Y-96152914D01*
X61907200Y-146833332D02*
X61954819Y-146690475D01*
X61954819Y-146690475D02*
X61954819Y-146452380D01*
X61954819Y-146452380D02*
X61907200Y-146357142D01*
X61907200Y-146357142D02*
X61859580Y-146309523D01*
X61859580Y-146309523D02*
X61764342Y-146261904D01*
X61764342Y-146261904D02*
X61669104Y-146261904D01*
X61669104Y-146261904D02*
X61573866Y-146309523D01*
X61573866Y-146309523D02*
X61526247Y-146357142D01*
X61526247Y-146357142D02*
X61478628Y-146452380D01*
X61478628Y-146452380D02*
X61431009Y-146642856D01*
X61431009Y-146642856D02*
X61383390Y-146738094D01*
X61383390Y-146738094D02*
X61335771Y-146785713D01*
X61335771Y-146785713D02*
X61240533Y-146833332D01*
X61240533Y-146833332D02*
X61145295Y-146833332D01*
X61145295Y-146833332D02*
X61050057Y-146785713D01*
X61050057Y-146785713D02*
X61002438Y-146738094D01*
X61002438Y-146738094D02*
X60954819Y-146642856D01*
X60954819Y-146642856D02*
X60954819Y-146404761D01*
X60954819Y-146404761D02*
X61002438Y-146261904D01*
X60954819Y-145928570D02*
X61954819Y-145690475D01*
X61954819Y-145690475D02*
X61240533Y-145499999D01*
X61240533Y-145499999D02*
X61954819Y-145309523D01*
X61954819Y-145309523D02*
X60954819Y-145071428D01*
X61288152Y-144261904D02*
X61954819Y-144261904D01*
X60907200Y-144499999D02*
X61621485Y-144738094D01*
X61621485Y-144738094D02*
X61621485Y-144119047D01*
X70714285Y-176931009D02*
X70857142Y-176978628D01*
X70857142Y-176978628D02*
X70904761Y-177026247D01*
X70904761Y-177026247D02*
X70952380Y-177121485D01*
X70952380Y-177121485D02*
X70952380Y-177264342D01*
X70952380Y-177264342D02*
X70904761Y-177359580D01*
X70904761Y-177359580D02*
X70857142Y-177407200D01*
X70857142Y-177407200D02*
X70761904Y-177454819D01*
X70761904Y-177454819D02*
X70380952Y-177454819D01*
X70380952Y-177454819D02*
X70380952Y-176454819D01*
X70380952Y-176454819D02*
X70714285Y-176454819D01*
X70714285Y-176454819D02*
X70809523Y-176502438D01*
X70809523Y-176502438D02*
X70857142Y-176550057D01*
X70857142Y-176550057D02*
X70904761Y-176645295D01*
X70904761Y-176645295D02*
X70904761Y-176740533D01*
X70904761Y-176740533D02*
X70857142Y-176835771D01*
X70857142Y-176835771D02*
X70809523Y-176883390D01*
X70809523Y-176883390D02*
X70714285Y-176931009D01*
X70714285Y-176931009D02*
X70380952Y-176931009D01*
X71238095Y-176454819D02*
X71809523Y-176454819D01*
X71523809Y-177454819D02*
X71523809Y-176454819D01*
X72095238Y-176550057D02*
X72142857Y-176502438D01*
X72142857Y-176502438D02*
X72238095Y-176454819D01*
X72238095Y-176454819D02*
X72476190Y-176454819D01*
X72476190Y-176454819D02*
X72571428Y-176502438D01*
X72571428Y-176502438D02*
X72619047Y-176550057D01*
X72619047Y-176550057D02*
X72666666Y-176645295D01*
X72666666Y-176645295D02*
X72666666Y-176740533D01*
X72666666Y-176740533D02*
X72619047Y-176883390D01*
X72619047Y-176883390D02*
X72047619Y-177454819D01*
X72047619Y-177454819D02*
X72666666Y-177454819D01*
X58260057Y-102135238D02*
X58212438Y-102230476D01*
X58212438Y-102230476D02*
X58117200Y-102325714D01*
X58117200Y-102325714D02*
X57974342Y-102468571D01*
X57974342Y-102468571D02*
X57926723Y-102563809D01*
X57926723Y-102563809D02*
X57926723Y-102659047D01*
X58164819Y-102611428D02*
X58117200Y-102706666D01*
X58117200Y-102706666D02*
X58021961Y-102801904D01*
X58021961Y-102801904D02*
X57831485Y-102849523D01*
X57831485Y-102849523D02*
X57498152Y-102849523D01*
X57498152Y-102849523D02*
X57307676Y-102801904D01*
X57307676Y-102801904D02*
X57212438Y-102706666D01*
X57212438Y-102706666D02*
X57164819Y-102611428D01*
X57164819Y-102611428D02*
X57164819Y-102420952D01*
X57164819Y-102420952D02*
X57212438Y-102325714D01*
X57212438Y-102325714D02*
X57307676Y-102230476D01*
X57307676Y-102230476D02*
X57498152Y-102182857D01*
X57498152Y-102182857D02*
X57831485Y-102182857D01*
X57831485Y-102182857D02*
X58021961Y-102230476D01*
X58021961Y-102230476D02*
X58117200Y-102325714D01*
X58117200Y-102325714D02*
X58164819Y-102420952D01*
X58164819Y-102420952D02*
X58164819Y-102611428D01*
X58164819Y-101230476D02*
X58164819Y-101801904D01*
X58164819Y-101516190D02*
X57164819Y-101516190D01*
X57164819Y-101516190D02*
X57307676Y-101611428D01*
X57307676Y-101611428D02*
X57402914Y-101706666D01*
X57402914Y-101706666D02*
X57450533Y-101801904D01*
X90034819Y-93333333D02*
X90749104Y-93333333D01*
X90749104Y-93333333D02*
X90891961Y-93380952D01*
X90891961Y-93380952D02*
X90987200Y-93476190D01*
X90987200Y-93476190D02*
X91034819Y-93619047D01*
X91034819Y-93619047D02*
X91034819Y-93714285D01*
X90368152Y-92428571D02*
X91034819Y-92428571D01*
X89987200Y-92666666D02*
X90701485Y-92904761D01*
X90701485Y-92904761D02*
X90701485Y-92285714D01*
X127224819Y-175833333D02*
X127939104Y-175833333D01*
X127939104Y-175833333D02*
X128081961Y-175880952D01*
X128081961Y-175880952D02*
X128177200Y-175976190D01*
X128177200Y-175976190D02*
X128224819Y-176119047D01*
X128224819Y-176119047D02*
X128224819Y-176214285D01*
X128224819Y-174833333D02*
X128224819Y-175404761D01*
X128224819Y-175119047D02*
X127224819Y-175119047D01*
X127224819Y-175119047D02*
X127367676Y-175214285D01*
X127367676Y-175214285D02*
X127462914Y-175309523D01*
X127462914Y-175309523D02*
X127510533Y-175404761D01*
X35716666Y-130247319D02*
X35716666Y-130961604D01*
X35716666Y-130961604D02*
X35669047Y-131104461D01*
X35669047Y-131104461D02*
X35573809Y-131199700D01*
X35573809Y-131199700D02*
X35430952Y-131247319D01*
X35430952Y-131247319D02*
X35335714Y-131247319D01*
X36145238Y-130342557D02*
X36192857Y-130294938D01*
X36192857Y-130294938D02*
X36288095Y-130247319D01*
X36288095Y-130247319D02*
X36526190Y-130247319D01*
X36526190Y-130247319D02*
X36621428Y-130294938D01*
X36621428Y-130294938D02*
X36669047Y-130342557D01*
X36669047Y-130342557D02*
X36716666Y-130437795D01*
X36716666Y-130437795D02*
X36716666Y-130533033D01*
X36716666Y-130533033D02*
X36669047Y-130675890D01*
X36669047Y-130675890D02*
X36097619Y-131247319D01*
X36097619Y-131247319D02*
X36716666Y-131247319D01*
X124084819Y-93166666D02*
X123608628Y-93499999D01*
X124084819Y-93738094D02*
X123084819Y-93738094D01*
X123084819Y-93738094D02*
X123084819Y-93357142D01*
X123084819Y-93357142D02*
X123132438Y-93261904D01*
X123132438Y-93261904D02*
X123180057Y-93214285D01*
X123180057Y-93214285D02*
X123275295Y-93166666D01*
X123275295Y-93166666D02*
X123418152Y-93166666D01*
X123418152Y-93166666D02*
X123513390Y-93214285D01*
X123513390Y-93214285D02*
X123561009Y-93261904D01*
X123561009Y-93261904D02*
X123608628Y-93357142D01*
X123608628Y-93357142D02*
X123608628Y-93738094D01*
X124084819Y-92214285D02*
X124084819Y-92785713D01*
X124084819Y-92499999D02*
X123084819Y-92499999D01*
X123084819Y-92499999D02*
X123227676Y-92595237D01*
X123227676Y-92595237D02*
X123322914Y-92690475D01*
X123322914Y-92690475D02*
X123370533Y-92785713D01*
X39238095Y-148224819D02*
X39238095Y-149034342D01*
X39238095Y-149034342D02*
X39285714Y-149129580D01*
X39285714Y-149129580D02*
X39333333Y-149177200D01*
X39333333Y-149177200D02*
X39428571Y-149224819D01*
X39428571Y-149224819D02*
X39619047Y-149224819D01*
X39619047Y-149224819D02*
X39714285Y-149177200D01*
X39714285Y-149177200D02*
X39761904Y-149129580D01*
X39761904Y-149129580D02*
X39809523Y-149034342D01*
X39809523Y-149034342D02*
X39809523Y-148224819D01*
X40714285Y-148558152D02*
X40714285Y-149224819D01*
X40476190Y-148177200D02*
X40238095Y-148891485D01*
X40238095Y-148891485D02*
X40857142Y-148891485D01*
X125666666Y-117754819D02*
X125333333Y-117278628D01*
X125095238Y-117754819D02*
X125095238Y-116754819D01*
X125095238Y-116754819D02*
X125476190Y-116754819D01*
X125476190Y-116754819D02*
X125571428Y-116802438D01*
X125571428Y-116802438D02*
X125619047Y-116850057D01*
X125619047Y-116850057D02*
X125666666Y-116945295D01*
X125666666Y-116945295D02*
X125666666Y-117088152D01*
X125666666Y-117088152D02*
X125619047Y-117183390D01*
X125619047Y-117183390D02*
X125571428Y-117231009D01*
X125571428Y-117231009D02*
X125476190Y-117278628D01*
X125476190Y-117278628D02*
X125095238Y-117278628D01*
X126095238Y-117231009D02*
X126428571Y-117231009D01*
X126571428Y-117754819D02*
X126095238Y-117754819D01*
X126095238Y-117754819D02*
X126095238Y-116754819D01*
X126095238Y-116754819D02*
X126571428Y-116754819D01*
X127333333Y-117231009D02*
X127000000Y-117231009D01*
X127000000Y-117754819D02*
X127000000Y-116754819D01*
X127000000Y-116754819D02*
X127476190Y-116754819D01*
X128000000Y-116754819D02*
X128000000Y-116992914D01*
X127761905Y-116897676D02*
X128000000Y-116992914D01*
X128000000Y-116992914D02*
X128238095Y-116897676D01*
X127857143Y-117183390D02*
X128000000Y-116992914D01*
X128000000Y-116992914D02*
X128142857Y-117183390D01*
X128761905Y-116754819D02*
X128761905Y-116992914D01*
X128523810Y-116897676D02*
X128761905Y-116992914D01*
X128761905Y-116992914D02*
X129000000Y-116897676D01*
X128619048Y-117183390D02*
X128761905Y-116992914D01*
X128761905Y-116992914D02*
X128904762Y-117183390D01*
X122340057Y-93595238D02*
X122292438Y-93690476D01*
X122292438Y-93690476D02*
X122197200Y-93785714D01*
X122197200Y-93785714D02*
X122054342Y-93928571D01*
X122054342Y-93928571D02*
X122006723Y-94023809D01*
X122006723Y-94023809D02*
X122006723Y-94119047D01*
X122244819Y-94071428D02*
X122197200Y-94166666D01*
X122197200Y-94166666D02*
X122101961Y-94261904D01*
X122101961Y-94261904D02*
X121911485Y-94309523D01*
X121911485Y-94309523D02*
X121578152Y-94309523D01*
X121578152Y-94309523D02*
X121387676Y-94261904D01*
X121387676Y-94261904D02*
X121292438Y-94166666D01*
X121292438Y-94166666D02*
X121244819Y-94071428D01*
X121244819Y-94071428D02*
X121244819Y-93880952D01*
X121244819Y-93880952D02*
X121292438Y-93785714D01*
X121292438Y-93785714D02*
X121387676Y-93690476D01*
X121387676Y-93690476D02*
X121578152Y-93642857D01*
X121578152Y-93642857D02*
X121911485Y-93642857D01*
X121911485Y-93642857D02*
X122101961Y-93690476D01*
X122101961Y-93690476D02*
X122197200Y-93785714D01*
X122197200Y-93785714D02*
X122244819Y-93880952D01*
X122244819Y-93880952D02*
X122244819Y-94071428D01*
X121340057Y-93261904D02*
X121292438Y-93214285D01*
X121292438Y-93214285D02*
X121244819Y-93119047D01*
X121244819Y-93119047D02*
X121244819Y-92880952D01*
X121244819Y-92880952D02*
X121292438Y-92785714D01*
X121292438Y-92785714D02*
X121340057Y-92738095D01*
X121340057Y-92738095D02*
X121435295Y-92690476D01*
X121435295Y-92690476D02*
X121530533Y-92690476D01*
X121530533Y-92690476D02*
X121673390Y-92738095D01*
X121673390Y-92738095D02*
X122244819Y-93309523D01*
X122244819Y-93309523D02*
X122244819Y-92690476D01*
X96183095Y-100989819D02*
X96183095Y-101799342D01*
X96183095Y-101799342D02*
X96230714Y-101894580D01*
X96230714Y-101894580D02*
X96278333Y-101942200D01*
X96278333Y-101942200D02*
X96373571Y-101989819D01*
X96373571Y-101989819D02*
X96564047Y-101989819D01*
X96564047Y-101989819D02*
X96659285Y-101942200D01*
X96659285Y-101942200D02*
X96706904Y-101894580D01*
X96706904Y-101894580D02*
X96754523Y-101799342D01*
X96754523Y-101799342D02*
X96754523Y-100989819D01*
X97183095Y-101085057D02*
X97230714Y-101037438D01*
X97230714Y-101037438D02*
X97325952Y-100989819D01*
X97325952Y-100989819D02*
X97564047Y-100989819D01*
X97564047Y-100989819D02*
X97659285Y-101037438D01*
X97659285Y-101037438D02*
X97706904Y-101085057D01*
X97706904Y-101085057D02*
X97754523Y-101180295D01*
X97754523Y-101180295D02*
X97754523Y-101275533D01*
X97754523Y-101275533D02*
X97706904Y-101418390D01*
X97706904Y-101418390D02*
X97135476Y-101989819D01*
X97135476Y-101989819D02*
X97754523Y-101989819D01*
X36416667Y-88050057D02*
X36464286Y-88002438D01*
X36464286Y-88002438D02*
X36559524Y-87954819D01*
X36559524Y-87954819D02*
X36797619Y-87954819D01*
X36797619Y-87954819D02*
X36892857Y-88002438D01*
X36892857Y-88002438D02*
X36940476Y-88050057D01*
X36940476Y-88050057D02*
X36988095Y-88145295D01*
X36988095Y-88145295D02*
X36988095Y-88240533D01*
X36988095Y-88240533D02*
X36940476Y-88383390D01*
X36940476Y-88383390D02*
X36369048Y-88954819D01*
X36369048Y-88954819D02*
X36988095Y-88954819D01*
X37416667Y-88859580D02*
X37464286Y-88907200D01*
X37464286Y-88907200D02*
X37416667Y-88954819D01*
X37416667Y-88954819D02*
X37369048Y-88907200D01*
X37369048Y-88907200D02*
X37416667Y-88859580D01*
X37416667Y-88859580D02*
X37416667Y-88954819D01*
X37797619Y-87954819D02*
X38464285Y-87954819D01*
X38464285Y-87954819D02*
X38035714Y-88954819D01*
X38845238Y-88954819D02*
X38845238Y-88288152D01*
X38845238Y-88383390D02*
X38892857Y-88335771D01*
X38892857Y-88335771D02*
X38988095Y-88288152D01*
X38988095Y-88288152D02*
X39130952Y-88288152D01*
X39130952Y-88288152D02*
X39226190Y-88335771D01*
X39226190Y-88335771D02*
X39273809Y-88431009D01*
X39273809Y-88431009D02*
X39273809Y-88954819D01*
X39273809Y-88431009D02*
X39321428Y-88335771D01*
X39321428Y-88335771D02*
X39416666Y-88288152D01*
X39416666Y-88288152D02*
X39559523Y-88288152D01*
X39559523Y-88288152D02*
X39654762Y-88335771D01*
X39654762Y-88335771D02*
X39702381Y-88431009D01*
X39702381Y-88431009D02*
X39702381Y-88954819D01*
X40178571Y-88954819D02*
X40178571Y-88288152D01*
X40178571Y-88383390D02*
X40226190Y-88335771D01*
X40226190Y-88335771D02*
X40321428Y-88288152D01*
X40321428Y-88288152D02*
X40464285Y-88288152D01*
X40464285Y-88288152D02*
X40559523Y-88335771D01*
X40559523Y-88335771D02*
X40607142Y-88431009D01*
X40607142Y-88431009D02*
X40607142Y-88954819D01*
X40607142Y-88431009D02*
X40654761Y-88335771D01*
X40654761Y-88335771D02*
X40749999Y-88288152D01*
X40749999Y-88288152D02*
X40892856Y-88288152D01*
X40892856Y-88288152D02*
X40988095Y-88335771D01*
X40988095Y-88335771D02*
X41035714Y-88431009D01*
X41035714Y-88431009D02*
X41035714Y-88954819D01*
X60213095Y-105484819D02*
X60213095Y-106294342D01*
X60213095Y-106294342D02*
X60260714Y-106389580D01*
X60260714Y-106389580D02*
X60308333Y-106437200D01*
X60308333Y-106437200D02*
X60403571Y-106484819D01*
X60403571Y-106484819D02*
X60594047Y-106484819D01*
X60594047Y-106484819D02*
X60689285Y-106437200D01*
X60689285Y-106437200D02*
X60736904Y-106389580D01*
X60736904Y-106389580D02*
X60784523Y-106294342D01*
X60784523Y-106294342D02*
X60784523Y-105484819D01*
X61784523Y-106484819D02*
X61213095Y-106484819D01*
X61498809Y-106484819D02*
X61498809Y-105484819D01*
X61498809Y-105484819D02*
X61403571Y-105627676D01*
X61403571Y-105627676D02*
X61308333Y-105722914D01*
X61308333Y-105722914D02*
X61213095Y-105770533D01*
X125264819Y-182333333D02*
X125979104Y-182333333D01*
X125979104Y-182333333D02*
X126121961Y-182380952D01*
X126121961Y-182380952D02*
X126217200Y-182476190D01*
X126217200Y-182476190D02*
X126264819Y-182619047D01*
X126264819Y-182619047D02*
X126264819Y-182714285D01*
X125264819Y-181952380D02*
X125264819Y-181333333D01*
X125264819Y-181333333D02*
X125645771Y-181666666D01*
X125645771Y-181666666D02*
X125645771Y-181523809D01*
X125645771Y-181523809D02*
X125693390Y-181428571D01*
X125693390Y-181428571D02*
X125741009Y-181380952D01*
X125741009Y-181380952D02*
X125836247Y-181333333D01*
X125836247Y-181333333D02*
X126074342Y-181333333D01*
X126074342Y-181333333D02*
X126169580Y-181380952D01*
X126169580Y-181380952D02*
X126217200Y-181428571D01*
X126217200Y-181428571D02*
X126264819Y-181523809D01*
X126264819Y-181523809D02*
X126264819Y-181809523D01*
X126264819Y-181809523D02*
X126217200Y-181904761D01*
X126217200Y-181904761D02*
X126169580Y-181952380D01*
X92359580Y-92666666D02*
X92407200Y-92714285D01*
X92407200Y-92714285D02*
X92454819Y-92857142D01*
X92454819Y-92857142D02*
X92454819Y-92952380D01*
X92454819Y-92952380D02*
X92407200Y-93095237D01*
X92407200Y-93095237D02*
X92311961Y-93190475D01*
X92311961Y-93190475D02*
X92216723Y-93238094D01*
X92216723Y-93238094D02*
X92026247Y-93285713D01*
X92026247Y-93285713D02*
X91883390Y-93285713D01*
X91883390Y-93285713D02*
X91692914Y-93238094D01*
X91692914Y-93238094D02*
X91597676Y-93190475D01*
X91597676Y-93190475D02*
X91502438Y-93095237D01*
X91502438Y-93095237D02*
X91454819Y-92952380D01*
X91454819Y-92952380D02*
X91454819Y-92857142D01*
X91454819Y-92857142D02*
X91502438Y-92714285D01*
X91502438Y-92714285D02*
X91550057Y-92666666D01*
X92454819Y-91714285D02*
X92454819Y-92285713D01*
X92454819Y-91999999D02*
X91454819Y-91999999D01*
X91454819Y-91999999D02*
X91597676Y-92095237D01*
X91597676Y-92095237D02*
X91692914Y-92190475D01*
X91692914Y-92190475D02*
X91740533Y-92285713D01*
X92157200Y-146833332D02*
X92204819Y-146690475D01*
X92204819Y-146690475D02*
X92204819Y-146452380D01*
X92204819Y-146452380D02*
X92157200Y-146357142D01*
X92157200Y-146357142D02*
X92109580Y-146309523D01*
X92109580Y-146309523D02*
X92014342Y-146261904D01*
X92014342Y-146261904D02*
X91919104Y-146261904D01*
X91919104Y-146261904D02*
X91823866Y-146309523D01*
X91823866Y-146309523D02*
X91776247Y-146357142D01*
X91776247Y-146357142D02*
X91728628Y-146452380D01*
X91728628Y-146452380D02*
X91681009Y-146642856D01*
X91681009Y-146642856D02*
X91633390Y-146738094D01*
X91633390Y-146738094D02*
X91585771Y-146785713D01*
X91585771Y-146785713D02*
X91490533Y-146833332D01*
X91490533Y-146833332D02*
X91395295Y-146833332D01*
X91395295Y-146833332D02*
X91300057Y-146785713D01*
X91300057Y-146785713D02*
X91252438Y-146738094D01*
X91252438Y-146738094D02*
X91204819Y-146642856D01*
X91204819Y-146642856D02*
X91204819Y-146404761D01*
X91204819Y-146404761D02*
X91252438Y-146261904D01*
X91204819Y-145928570D02*
X92204819Y-145690475D01*
X92204819Y-145690475D02*
X91490533Y-145499999D01*
X91490533Y-145499999D02*
X92204819Y-145309523D01*
X92204819Y-145309523D02*
X91204819Y-145071428D01*
X92204819Y-144166666D02*
X92204819Y-144738094D01*
X92204819Y-144452380D02*
X91204819Y-144452380D01*
X91204819Y-144452380D02*
X91347676Y-144547618D01*
X91347676Y-144547618D02*
X91442914Y-144642856D01*
X91442914Y-144642856D02*
X91490533Y-144738094D01*
X41181905Y-108534819D02*
X41181905Y-107534819D01*
X41181905Y-107534819D02*
X41420000Y-107534819D01*
X41420000Y-107534819D02*
X41562857Y-107582438D01*
X41562857Y-107582438D02*
X41658095Y-107677676D01*
X41658095Y-107677676D02*
X41705714Y-107772914D01*
X41705714Y-107772914D02*
X41753333Y-107963390D01*
X41753333Y-107963390D02*
X41753333Y-108106247D01*
X41753333Y-108106247D02*
X41705714Y-108296723D01*
X41705714Y-108296723D02*
X41658095Y-108391961D01*
X41658095Y-108391961D02*
X41562857Y-108487200D01*
X41562857Y-108487200D02*
X41420000Y-108534819D01*
X41420000Y-108534819D02*
X41181905Y-108534819D01*
X42705714Y-108534819D02*
X42134286Y-108534819D01*
X42420000Y-108534819D02*
X42420000Y-107534819D01*
X42420000Y-107534819D02*
X42324762Y-107677676D01*
X42324762Y-107677676D02*
X42229524Y-107772914D01*
X42229524Y-107772914D02*
X42134286Y-107820533D01*
X36578095Y-109254819D02*
X36578095Y-108254819D01*
X37149523Y-109254819D02*
X36720952Y-108683390D01*
X37149523Y-108254819D02*
X36578095Y-108826247D01*
X71657200Y-146833332D02*
X71704819Y-146690475D01*
X71704819Y-146690475D02*
X71704819Y-146452380D01*
X71704819Y-146452380D02*
X71657200Y-146357142D01*
X71657200Y-146357142D02*
X71609580Y-146309523D01*
X71609580Y-146309523D02*
X71514342Y-146261904D01*
X71514342Y-146261904D02*
X71419104Y-146261904D01*
X71419104Y-146261904D02*
X71323866Y-146309523D01*
X71323866Y-146309523D02*
X71276247Y-146357142D01*
X71276247Y-146357142D02*
X71228628Y-146452380D01*
X71228628Y-146452380D02*
X71181009Y-146642856D01*
X71181009Y-146642856D02*
X71133390Y-146738094D01*
X71133390Y-146738094D02*
X71085771Y-146785713D01*
X71085771Y-146785713D02*
X70990533Y-146833332D01*
X70990533Y-146833332D02*
X70895295Y-146833332D01*
X70895295Y-146833332D02*
X70800057Y-146785713D01*
X70800057Y-146785713D02*
X70752438Y-146738094D01*
X70752438Y-146738094D02*
X70704819Y-146642856D01*
X70704819Y-146642856D02*
X70704819Y-146404761D01*
X70704819Y-146404761D02*
X70752438Y-146261904D01*
X70704819Y-145928570D02*
X71704819Y-145690475D01*
X71704819Y-145690475D02*
X70990533Y-145499999D01*
X70990533Y-145499999D02*
X71704819Y-145309523D01*
X71704819Y-145309523D02*
X70704819Y-145071428D01*
X70704819Y-144785713D02*
X70704819Y-144166666D01*
X70704819Y-144166666D02*
X71085771Y-144499999D01*
X71085771Y-144499999D02*
X71085771Y-144357142D01*
X71085771Y-144357142D02*
X71133390Y-144261904D01*
X71133390Y-144261904D02*
X71181009Y-144214285D01*
X71181009Y-144214285D02*
X71276247Y-144166666D01*
X71276247Y-144166666D02*
X71514342Y-144166666D01*
X71514342Y-144166666D02*
X71609580Y-144214285D01*
X71609580Y-144214285D02*
X71657200Y-144261904D01*
X71657200Y-144261904D02*
X71704819Y-144357142D01*
X71704819Y-144357142D02*
X71704819Y-144642856D01*
X71704819Y-144642856D02*
X71657200Y-144738094D01*
X71657200Y-144738094D02*
X71609580Y-144785713D01*
X59333333Y-98324819D02*
X59000000Y-97848628D01*
X58761905Y-98324819D02*
X58761905Y-97324819D01*
X58761905Y-97324819D02*
X59142857Y-97324819D01*
X59142857Y-97324819D02*
X59238095Y-97372438D01*
X59238095Y-97372438D02*
X59285714Y-97420057D01*
X59285714Y-97420057D02*
X59333333Y-97515295D01*
X59333333Y-97515295D02*
X59333333Y-97658152D01*
X59333333Y-97658152D02*
X59285714Y-97753390D01*
X59285714Y-97753390D02*
X59238095Y-97801009D01*
X59238095Y-97801009D02*
X59142857Y-97848628D01*
X59142857Y-97848628D02*
X58761905Y-97848628D01*
X59714286Y-97420057D02*
X59761905Y-97372438D01*
X59761905Y-97372438D02*
X59857143Y-97324819D01*
X59857143Y-97324819D02*
X60095238Y-97324819D01*
X60095238Y-97324819D02*
X60190476Y-97372438D01*
X60190476Y-97372438D02*
X60238095Y-97420057D01*
X60238095Y-97420057D02*
X60285714Y-97515295D01*
X60285714Y-97515295D02*
X60285714Y-97610533D01*
X60285714Y-97610533D02*
X60238095Y-97753390D01*
X60238095Y-97753390D02*
X59666667Y-98324819D01*
X59666667Y-98324819D02*
X60285714Y-98324819D01*
X81907200Y-146833332D02*
X81954819Y-146690475D01*
X81954819Y-146690475D02*
X81954819Y-146452380D01*
X81954819Y-146452380D02*
X81907200Y-146357142D01*
X81907200Y-146357142D02*
X81859580Y-146309523D01*
X81859580Y-146309523D02*
X81764342Y-146261904D01*
X81764342Y-146261904D02*
X81669104Y-146261904D01*
X81669104Y-146261904D02*
X81573866Y-146309523D01*
X81573866Y-146309523D02*
X81526247Y-146357142D01*
X81526247Y-146357142D02*
X81478628Y-146452380D01*
X81478628Y-146452380D02*
X81431009Y-146642856D01*
X81431009Y-146642856D02*
X81383390Y-146738094D01*
X81383390Y-146738094D02*
X81335771Y-146785713D01*
X81335771Y-146785713D02*
X81240533Y-146833332D01*
X81240533Y-146833332D02*
X81145295Y-146833332D01*
X81145295Y-146833332D02*
X81050057Y-146785713D01*
X81050057Y-146785713D02*
X81002438Y-146738094D01*
X81002438Y-146738094D02*
X80954819Y-146642856D01*
X80954819Y-146642856D02*
X80954819Y-146404761D01*
X80954819Y-146404761D02*
X81002438Y-146261904D01*
X80954819Y-145928570D02*
X81954819Y-145690475D01*
X81954819Y-145690475D02*
X81240533Y-145499999D01*
X81240533Y-145499999D02*
X81954819Y-145309523D01*
X81954819Y-145309523D02*
X80954819Y-145071428D01*
X81050057Y-144738094D02*
X81002438Y-144690475D01*
X81002438Y-144690475D02*
X80954819Y-144595237D01*
X80954819Y-144595237D02*
X80954819Y-144357142D01*
X80954819Y-144357142D02*
X81002438Y-144261904D01*
X81002438Y-144261904D02*
X81050057Y-144214285D01*
X81050057Y-144214285D02*
X81145295Y-144166666D01*
X81145295Y-144166666D02*
X81240533Y-144166666D01*
X81240533Y-144166666D02*
X81383390Y-144214285D01*
X81383390Y-144214285D02*
X81954819Y-144785713D01*
X81954819Y-144785713D02*
X81954819Y-144166666D01*
X57166666Y-154754819D02*
X56833333Y-154278628D01*
X56595238Y-154754819D02*
X56595238Y-153754819D01*
X56595238Y-153754819D02*
X56976190Y-153754819D01*
X56976190Y-153754819D02*
X57071428Y-153802438D01*
X57071428Y-153802438D02*
X57119047Y-153850057D01*
X57119047Y-153850057D02*
X57166666Y-153945295D01*
X57166666Y-153945295D02*
X57166666Y-154088152D01*
X57166666Y-154088152D02*
X57119047Y-154183390D01*
X57119047Y-154183390D02*
X57071428Y-154231009D01*
X57071428Y-154231009D02*
X56976190Y-154278628D01*
X56976190Y-154278628D02*
X56595238Y-154278628D01*
X57595238Y-154231009D02*
X57928571Y-154231009D01*
X58071428Y-154754819D02*
X57595238Y-154754819D01*
X57595238Y-154754819D02*
X57595238Y-153754819D01*
X57595238Y-153754819D02*
X58071428Y-153754819D01*
X58833333Y-154231009D02*
X58500000Y-154231009D01*
X58500000Y-154754819D02*
X58500000Y-153754819D01*
X58500000Y-153754819D02*
X58976190Y-153754819D01*
X59500000Y-153754819D02*
X59500000Y-153992914D01*
X59261905Y-153897676D02*
X59500000Y-153992914D01*
X59500000Y-153992914D02*
X59738095Y-153897676D01*
X59357143Y-154183390D02*
X59500000Y-153992914D01*
X59500000Y-153992914D02*
X59642857Y-154183390D01*
X60261905Y-153754819D02*
X60261905Y-153992914D01*
X60023810Y-153897676D02*
X60261905Y-153992914D01*
X60261905Y-153992914D02*
X60500000Y-153897676D01*
X60119048Y-154183390D02*
X60261905Y-153992914D01*
X60261905Y-153992914D02*
X60404762Y-154183390D01*
D11*
%TO.C,BZ1*%
X49600000Y-99000000D02*
G75*
G02*
X34400000Y-99000000I-7600000J0D01*
G01*
X34400000Y-99000000D02*
G75*
G02*
X49600000Y-99000000I7600000J0D01*
G01*
%TO.C,SW4*%
X54000000Y-143250000D02*
X54000000Y-147750000D01*
X56500000Y-149000000D02*
X58000000Y-149000000D01*
X58000000Y-142000000D02*
X56500000Y-142000000D01*
X60500000Y-147750000D02*
X60500000Y-143250000D01*
%TO.C,BT2*%
X32500000Y-165950000D02*
X110500000Y-165950000D01*
X32500000Y-186050000D02*
X32500000Y-165950000D01*
X110500000Y-165950000D02*
X110500000Y-186050000D01*
X110500000Y-186050000D02*
X32500000Y-186050000D01*
%TO.C,Q1*%
X51650000Y-99970000D02*
X51650000Y-103570000D01*
X51661522Y-99931522D02*
G75*
G02*
X56100001Y-101770000I1838478J-1838478D01*
G01*
X56100000Y-101770000D02*
G75*
G02*
X51661522Y-103608478I-2600000J0D01*
G01*
%TO.C,J4*%
X81690000Y-87920000D02*
X81690000Y-98080000D01*
X81690000Y-98080000D02*
X89310000Y-98080000D01*
X82960000Y-98080000D02*
X82960000Y-87920000D01*
X89310000Y-87920000D02*
X81690000Y-87920000D01*
X89310000Y-98080000D02*
X89310000Y-87920000D01*
%TO.C,J1*%
X116050000Y-174170000D02*
X116050000Y-176830000D01*
X123730000Y-174170000D02*
X116050000Y-174170000D01*
X123730000Y-174170000D02*
X123730000Y-176830000D01*
X123730000Y-176830000D02*
X116050000Y-176830000D01*
X126330000Y-175500000D02*
X126330000Y-176830000D01*
X126330000Y-176830000D02*
X125000000Y-176830000D01*
%TO.C,J2*%
X30700000Y-120442500D02*
X45400000Y-120442500D01*
X30700000Y-129642500D02*
X30700000Y-120442500D01*
X39500000Y-129642500D02*
X30700000Y-129642500D01*
X44550000Y-120242500D02*
X45600000Y-120242500D01*
X45400000Y-120442500D02*
X45400000Y-123042500D01*
X45400000Y-126942500D02*
X45400000Y-129642500D01*
X45400000Y-129642500D02*
X43500000Y-129642500D01*
X45600000Y-121292500D02*
X45600000Y-120242500D01*
%TO.C,R1*%
X124630000Y-89730000D02*
X124960000Y-89730000D01*
X124630000Y-96270000D02*
X124630000Y-89730000D01*
X124960000Y-96270000D02*
X124630000Y-96270000D01*
X127040000Y-96270000D02*
X127370000Y-96270000D01*
X127370000Y-89730000D02*
X127040000Y-89730000D01*
X127370000Y-96270000D02*
X127370000Y-89730000D01*
%TO.C,U4*%
X32380000Y-135300000D02*
X47620000Y-135300000D01*
X47620000Y-160700000D01*
X32380000Y-160700000D01*
X32380000Y-135300000D01*
%TO.C,Q2*%
X116380000Y-91700000D02*
X116380000Y-95300000D01*
X116391522Y-91661522D02*
G75*
G02*
X120830001Y-93500000I1838478J-1838478D01*
G01*
X120830000Y-93500000D02*
G75*
G02*
X116391522Y-95338478I-2600000J0D01*
G01*
D12*
%TO.C,U2*%
X94020000Y-103420000D02*
X105089000Y-103420000D01*
X94020000Y-103420000D02*
X122530000Y-103420000D01*
X94020000Y-154370000D02*
X94020000Y-103420000D01*
X94020000Y-154370000D02*
X94020000Y-103420000D01*
X94020000Y-154370000D02*
X99390000Y-154370000D01*
X99390000Y-154370000D02*
X117080000Y-154370000D01*
X105089000Y-103420000D02*
X111800000Y-103420000D01*
X111800000Y-103420000D02*
X122530000Y-103420000D01*
X117080000Y-154370000D02*
X122530000Y-154370000D01*
X122530000Y-103420000D02*
X122530000Y-154370000D01*
X122530000Y-103420000D02*
X122530000Y-154370000D01*
X122530000Y-154370000D02*
X94020000Y-154370000D01*
D13*
X93550000Y-113380000D02*
G75*
G02*
X93350000Y-113380000I-100000J0D01*
G01*
X93350000Y-113380000D02*
G75*
G02*
X93550000Y-113380000I100000J0D01*
G01*
D12*
%TO.C,U1*%
X57500000Y-107000000D02*
X83500000Y-107000000D01*
X57500000Y-133000000D02*
X57500000Y-107000000D01*
X63500000Y-131000000D02*
X63500000Y-133000000D01*
X63500000Y-133000000D02*
X57500000Y-133000000D01*
X77500000Y-131000000D02*
X63500000Y-131000000D01*
X77500000Y-133000000D02*
X77500000Y-131000000D01*
X83500000Y-107000000D02*
X83500000Y-133000000D01*
X83500000Y-133000000D02*
X77500000Y-133000000D01*
D13*
X66600000Y-106500000D02*
G75*
G02*
X66400000Y-106500000I-100000J0D01*
G01*
X66400000Y-106500000D02*
G75*
G02*
X66600000Y-106500000I100000J0D01*
G01*
D11*
%TO.C,J3*%
X116630000Y-180670000D02*
X116630000Y-183330000D01*
X121770000Y-180670000D02*
X116630000Y-180670000D01*
X121770000Y-180670000D02*
X121770000Y-183330000D01*
X121770000Y-183330000D02*
X116630000Y-183330000D01*
X124370000Y-182000000D02*
X124370000Y-183330000D01*
X124370000Y-183330000D02*
X123040000Y-183330000D01*
%TO.C,C1*%
X93130000Y-89380000D02*
X93575000Y-89380000D01*
X93130000Y-95620000D02*
X93130000Y-89380000D01*
X93130000Y-95620000D02*
X93575000Y-95620000D01*
X95425000Y-89380000D02*
X95870000Y-89380000D01*
X95425000Y-95620000D02*
X95870000Y-95620000D01*
X95870000Y-95620000D02*
X95870000Y-89380000D01*
%TO.C,SW1*%
X84250000Y-143250000D02*
X84250000Y-147750000D01*
X86750000Y-149000000D02*
X88250000Y-149000000D01*
X88250000Y-142000000D02*
X86750000Y-142000000D01*
X90750000Y-147750000D02*
X90750000Y-143250000D01*
%TO.C,D1*%
X38000000Y-109080000D02*
X45840000Y-109080000D01*
X38000000Y-109560000D02*
X38000000Y-109080000D01*
X38000000Y-112440000D02*
X38000000Y-112920000D01*
X38000000Y-112920000D02*
X45840000Y-112920000D01*
X39140000Y-109080000D02*
X39140000Y-112920000D01*
X39260000Y-109080000D02*
X39260000Y-112920000D01*
X39380000Y-109080000D02*
X39380000Y-112920000D01*
X45840000Y-109080000D02*
X45840000Y-109560000D01*
X45840000Y-112920000D02*
X45840000Y-112440000D01*
%TO.C,SW3*%
X63750000Y-143250000D02*
X63750000Y-147750000D01*
X66250000Y-149000000D02*
X67750000Y-149000000D01*
X67750000Y-142000000D02*
X66250000Y-142000000D01*
X70250000Y-147750000D02*
X70250000Y-143250000D01*
%TO.C,R2*%
X56230000Y-94130000D02*
X56230000Y-94460000D01*
X56230000Y-96870000D02*
X56230000Y-96540000D01*
X62770000Y-94130000D02*
X56230000Y-94130000D01*
X62770000Y-94460000D02*
X62770000Y-94130000D01*
X62770000Y-96540000D02*
X62770000Y-96870000D01*
X62770000Y-96870000D02*
X56230000Y-96870000D01*
%TO.C,SW2*%
X74000000Y-143250000D02*
X74000000Y-147750000D01*
X76500000Y-149000000D02*
X78000000Y-149000000D01*
X78000000Y-142000000D02*
X76500000Y-142000000D01*
X80500000Y-147750000D02*
X80500000Y-143250000D01*
%TD*%
M02*
